<?xml version="1.0" encoding="UTF-8"?>
<svg width="550px" height="260px" viewBox="0 0 550 260" version="1.1" xmlns="http://www.w3.org/2000/svg" xmlns:xlink="http://www.w3.org/1999/xlink">
    <!-- Generator: Sketch 58 (84663) - https://sketch.com -->
    <title>06_invest_graphic</title>
    <desc>Created with Sketch.</desc>
    <defs>
        <linearGradient x1="50%" y1="100%" x2="50%" y2="-1.03498996e-14%" id="linearGradient-1">
            <stop stop-color="#B6D6FF" offset="0%"></stop>
            <stop stop-color="#EFF6FF" offset="100%"></stop>
        </linearGradient>
    </defs>
    <g id="designs" stroke="none" stroke-width="1" fill="none" fill-rule="evenodd">
        <g id="16-EstateFunder-support" transform="translate(-496.000000, -1471.000000)" fill-rule="nonzero">
            <g id="footer" transform="translate(0.000000, 1431.000000)">
                <g id="get-started">
                    <g id="06_invest_graphic" transform="translate(496.000000, 40.000000)">
                        <path d="M10.5,260 C16.2989899,260 21,255.29899 21,249.5 C21,243.70101 16.2989899,239 10.5,239 C4.70101013,239 0,243.70101 0,249.5 C0,255.29899 4.70101013,260 10.5,260 Z M10.5,259 C5.25329488,259 1,254.746705 1,249.5 C1,244.253295 5.25329488,240 10.5,240 C15.7467051,240 20,244.253295 20,249.5 C20,254.746705 15.7467051,259 10.5,259 Z" id="Oval" fill="#FFFFFF" opacity="0.400000006"></path>
                        <path d="M356.5,210 C362.29899,210 367,205.29899 367,199.5 C367,193.70101 362.29899,189 356.5,189 C350.70101,189 346,193.70101 346,199.5 C346,205.29899 350.70101,210 356.5,210 Z M356.5,209 C351.253295,209 347,204.746705 347,199.5 C347,194.253295 351.253295,190 356.5,190 C361.746705,190 366,194.253295 366,199.5 C366,204.746705 361.746705,209 356.5,209 Z" id="Oval" fill="#FFFFFF" opacity="0.400000006"></path>
                        <path d="M183.5,151 C189.29899,151 194,146.29899 194,140.5 C194,134.70101 189.29899,130 183.5,130 C177.70101,130 173,134.70101 173,140.5 C173,146.29899 177.70101,151 183.5,151 Z M183.5,150 C178.253295,150 174,145.746705 174,140.5 C174,135.253295 178.253295,131 183.5,131 C188.746705,131 193,135.253295 193,140.5 C193,145.746705 188.746705,150 183.5,150 Z" id="Oval" fill="#FFFFFF" opacity="0.400000006"></path>
                        <path d="M539.5,21 C545.29899,21 550,16.2989899 550,10.5 C550,4.70101013 545.29899,0 539.5,0 C533.70101,0 529,4.70101013 529,10.5 C529,16.2989899 533.70101,21 539.5,21 Z M539.5,20 C534.253295,20 530,15.7467051 530,10.5 C530,5.25329488 534.253295,1 539.5,1 C544.746705,1 549,5.25329488 549,10.5 C549,15.7467051 544.746705,20 539.5,20 Z" id="Oval" fill="#FFFFFF" opacity="0.400000006"></path>
                        <path d="M20.9193699,243.526163 L25.9957866,240.327727 L25.462714,239.481657 L20.3862972,242.680093 L20.9193699,243.526163 Z M31.0722034,237.129291 L36.1486202,233.930855 L35.6155475,233.084785 L30.5391307,236.283221 L31.0722034,237.129291 Z M41.2250369,230.732419 L46.3014537,227.533983 L45.768381,226.687913 L40.6919643,229.886349 L41.2250369,230.732419 Z M51.3778705,224.335547 L56.4542872,221.137111 L55.9212146,220.291041 L50.8447978,223.489477 L51.3778705,224.335547 Z M61.530704,217.938675 L66.6071208,214.740239 L66.0740481,213.894169 L60.9976313,217.092605 L61.530704,217.938675 Z M71.6835375,211.541803 L76.7599543,208.343367 L76.2268816,207.497297 L71.1504649,210.695733 L71.6835375,211.541803 Z M81.836371,205.144931 L86.9127878,201.946495 L86.3797151,201.100425 L81.3032984,204.298861 L81.836371,205.144931 Z M91.9892046,198.748059 L97.0656213,195.549623 L96.5325487,194.703553 L91.4561319,197.901989 L91.9892046,198.748059 Z M102.142038,192.351187 L107.218455,189.152751 L106.685382,188.306681 L101.608965,191.505117 L102.142038,192.351187 Z M112.294872,185.954315 L117.371288,182.755879 L116.838216,181.909809 L111.761799,185.108245 L112.294872,185.954315 Z M122.447705,179.557443 L127.524122,176.359007 L126.991049,175.512937 L121.914633,178.711373 L122.447705,179.557443 Z M132.600539,173.160571 L137.676955,169.962135 L137.143883,169.116065 L132.067466,172.314501 L132.600539,173.160571 Z M142.753372,166.763699 L147.829789,163.565263 L147.296716,162.719193 L142.2203,165.917629 L142.753372,166.763699 Z M152.906206,160.366827 L157.982623,157.168391 L157.44955,156.322321 L152.373133,159.520757 L152.906206,160.366827 Z M163.059039,153.969955 L168.135456,150.771519 L167.602383,149.925449 L162.525967,153.123885 L163.059039,153.969955 Z M194.213953,144.77648 L199.877613,146.757124 L200.207721,145.813181 L194.54406,143.832536 L194.213953,144.77648 Z M205.541274,148.737768 L211.204934,150.718412 L211.535041,149.774469 L205.871381,147.793825 L205.541274,148.737768 Z M216.868594,152.699057 L222.532255,154.679701 L222.862362,153.735758 L217.198702,151.755113 L216.868594,152.699057 Z M228.195915,156.660345 L233.859575,158.640989 L234.189683,157.697046 L228.526022,155.716402 L228.195915,156.660345 Z M239.523236,160.621634 L245.186896,162.602278 L245.517003,161.658334 L239.853343,159.67769 L239.523236,160.621634 Z M250.850556,164.582922 L256.514217,166.563566 L256.844324,165.619623 L251.180664,163.638979 L250.850556,164.582922 Z M262.177877,168.544211 L267.841537,170.524855 L268.171645,169.580911 L262.507984,167.600267 L262.177877,168.544211 Z M273.505198,172.505499 L279.168858,174.486143 L279.498966,173.5422 L273.835305,171.561556 L273.505198,172.505499 Z M284.832518,176.466787 L290.496179,178.447432 L290.826286,177.503488 L285.162626,175.522844 L284.832518,176.466787 Z M296.159839,180.428076 L301.8235,182.40872 L302.153607,181.464777 L296.489947,179.484132 L296.159839,180.428076 Z M307.48716,184.389364 L313.15082,186.370009 L313.480928,185.426065 L307.817267,183.445421 L307.48716,184.389364 Z M318.814481,188.350653 L324.478141,190.331297 L324.808248,189.387354 L319.144588,187.406709 L318.814481,188.350653 Z M330.141801,192.311941 L335.805462,194.292585 L336.135569,193.348642 L330.471909,191.367998 L330.141801,192.311941 Z M370.890078,186.741906 L375.046688,182.414944 L374.325527,181.722176 L370.168918,186.049138 L370.890078,186.741906 Z M379.203297,178.087982 L383.359906,173.76102 L382.638746,173.068252 L378.482136,177.395214 L379.203297,178.087982 Z M387.516515,169.434058 L391.673124,165.107096 L390.951964,164.414328 L386.795355,168.74129 L387.516515,169.434058 Z M395.829733,160.780134 L399.986343,156.453172 L399.265182,155.760404 L395.108573,160.087366 L395.829733,160.780134 Z M404.142952,152.12621 L408.299561,147.799248 L407.578401,147.10648 L403.421791,151.433442 L404.142952,152.12621 Z M412.45617,143.472286 L416.612779,139.145324 L415.891619,138.452556 L411.73501,142.779518 L412.45617,143.472286 Z M420.769388,134.818362 L424.925998,130.4914 L424.204837,129.798632 L420.048228,134.125594 L420.769388,134.818362 Z M429.082607,126.164438 L433.239216,121.837476 L432.518056,121.144708 L428.361447,125.47167 L429.082607,126.164438 Z M437.395825,117.510514 L441.552434,113.183552 L440.831274,112.490784 L436.674665,116.817746 L437.395825,117.510514 Z M445.709044,108.85659 L449.865653,104.529628 L449.144492,103.83686 L444.987883,108.163822 L445.709044,108.85659 Z M454.022262,100.202666 L458.178871,95.8757043 L457.457711,95.1829361 L453.301102,99.5098981 L454.022262,100.202666 Z M462.33548,91.5487423 L466.492089,87.2217802 L465.770929,86.529012 L461.61432,90.8559741 L462.33548,91.5487423 Z M470.648699,82.8948182 L474.805308,78.5678562 L474.084147,77.875088 L469.927538,82.20205 L470.648699,82.8948182 Z M478.961917,74.2408942 L483.118526,69.9139322 L482.397366,69.221164 L478.240757,73.548126 L478.961917,74.2408942 Z M487.275135,65.5869702 L491.431744,61.2600082 L490.710584,60.56724 L486.553975,64.894202 L487.275135,65.5869702 Z M495.588354,56.9330462 L499.744963,52.6060842 L499.023802,51.913316 L494.867193,56.240278 L495.588354,56.9330462 Z M503.901572,48.2791222 L508.058181,43.9521602 L507.337021,43.259392 L503.180412,47.586354 L503.901572,48.2791222 Z M512.21479,39.6251982 L516.371399,35.2982362 L515.650239,34.605468 L511.49363,38.93243 L512.21479,39.6251982 Z M520.528009,30.9712742 L524.684618,26.6443122 L523.963457,25.951544 L519.806848,30.278506 L520.528009,30.9712742 Z M528.841227,22.3173502 L530.997836,19.9903882 L530.276676,19.29762 L528.120067,21.624582 L528.841227,22.3173502 Z" id="Path-3" fill="#FFFFFF" opacity="0.300000012"></path>
                        <path d="M265.844927,109.878572 L265.844927,106.737001 C265.844927,105.004424 264.435933,103.59543 262.703356,103.59543 C259.238203,103.59543 256.420213,100.77744 256.420213,97.312287 L256.420213,91.0291444 L261.13257,91.0291444 L261.13257,87.8875731 L264.274142,87.8875731 L264.274142,91.252196 C266.975893,91.9543371 268.986499,94.3937673 268.986499,97.312287 L265.844927,97.312287 C265.844927,95.5797104 264.435933,94.1707157 262.703356,94.1707157 L259.561785,94.1707157 L259.561785,97.312287 C259.561785,99.0448636 260.970779,100.453858 262.703356,100.453858 C266.168509,100.453858 268.986499,103.271848 268.986499,106.737001 L268.986499,113.020144 L264.274142,113.020144 L264.274142,116.161715 L261.13257,116.161715 L261.13257,112.797092 C258.430819,112.094951 256.420213,109.655521 256.420213,106.737001 L259.561785,106.737001 C259.561785,108.469577 260.970779,109.878572 262.703356,109.878572 L265.844927,109.878572 Z M236,102.024644 C236,87.3000993 247.978811,75.3212879 262.703356,75.3212879 C277.427901,75.3212879 289.406712,87.3000993 289.406712,102.024644 C289.406712,116.749189 277.427901,128.728 262.703356,128.728 C247.978811,128.728 236,116.749189 236,102.024644 Z M239.141571,102.024644 C239.141571,115.016612 249.711388,125.586429 262.703356,125.586429 C275.695324,125.586429 286.265141,115.016612 286.265141,102.024644 C286.265141,89.0326758 275.695324,78.4628592 262.703356,78.4628592 C249.711388,78.4628592 239.141571,89.0326758 239.141571,102.024644 Z M242.283143,102.024644 C242.283143,90.7652524 251.443965,81.6044305 262.703356,81.6044305 C273.962748,81.6044305 283.123569,90.7652524 283.123569,102.024644 C283.123569,113.284035 273.962748,122.444857 262.703356,122.444857 C251.443965,122.444857 242.283143,113.284035 242.283143,102.024644 Z M245.424714,102.024644 C245.424714,111.551459 253.176541,119.303286 262.703356,119.303286 C272.230171,119.303286 279.981998,111.551459 279.981998,102.024644 C279.981998,92.497829 272.230171,84.7460018 262.703356,84.7460018 C253.176541,84.7460018 245.424714,92.497829 245.424714,102.024644 Z M276.840427,100.453858 L273.698856,100.453858 L273.698856,103.59543 L276.840427,103.59543 L276.840427,100.453858 Z M251.707856,100.453858 L248.566285,100.453858 L248.566285,103.59543 L251.707856,103.59543 L251.707856,100.453858 Z M275.729881,74.2107424 L277.950972,76.4318334 L308.906445,45.4763606 L303.694578,40.2644938 L328.359055,36.3705161 L324.465077,61.0349924 L319.251639,55.8215548 L297.720881,77.3523137 L299.941971,79.5734047 L319.251639,60.2637367 L326.606058,67.6181551 L332.136794,32.5927766 L297.109845,38.1219421 L304.464263,45.4763606 L275.729881,74.2107424 Z M298.371186,81.1441903 L296.150095,78.9230994 L293.008524,82.0646707 L295.229615,84.2857616 L298.371186,81.1441903 Z M293.658829,85.8565473 L291.437738,83.6354563 L288.296167,86.7770276 L290.517258,88.9981186 L293.658829,85.8565473 Z M323.178604,89.5934463 L317.602315,84.0171573 C313.31564,79.7304832 306.339781,79.7304832 302.053107,84.0171573 L294.58088,91.4893846 L296.801971,93.7104755 L304.274198,86.2382482 C307.33566,83.1767869 312.319762,83.1767869 315.381224,86.2382482 L323.178604,94.0356281 L327.628639,89.5855924 L329.907849,103.25614 L316.237302,100.97693 L320.687338,96.5268942 L313.158562,88.9981186 C311.320743,87.1602993 308.333108,87.1602993 306.495289,88.9981186 L299.291666,96.2017415 L301.512757,98.4228325 L308.71638,91.2192095 C309.310137,90.6270233 310.343714,90.6270233 310.937471,91.2192095 L316.245156,96.5268942 L309.699692,103.072358 L333.728,107.077861 L329.724067,83.0479825 L323.178604,89.5934463 Z M268.201106,48.4828443 L273.508791,53.790529 C273.804098,54.0874075 273.96746,54.4816747 273.96746,54.9010745 C273.96746,55.3204742 273.804098,55.7147414 273.508791,56.0116199 L266.305168,63.2152429 L268.526258,65.4363338 L275.729881,58.2327108 C277.567701,56.3964624 277.567701,53.4056865 275.729881,51.5694381 L268.201106,44.0406625 L263.75107,48.4906982 L261.47186,34.8201507 L275.142408,37.0993607 L270.692372,41.5493964 L278.489752,49.3467764 C281.551213,52.4098084 281.551213,57.3923405 278.489752,60.4538017 L271.017524,67.9260291 L273.238615,70.14712 L280.710843,62.6748926 C284.997517,58.3882186 284.997517,51.4123595 280.710843,47.1256855 L275.134554,41.5493964 L281.680017,35.0039326 L257.650139,31 L261.655642,55.0283081 L268.201106,48.4828443 Z M297.720881,97.7725272 L294.579309,100.914098 L296.8004,103.135189 L299.941971,99.9936181 L297.720881,97.7725272 Z M261.592811,67.9275998 L263.813902,70.1486908 L266.955473,67.0071195 L264.734382,64.7860285 L261.592811,67.9275998 Z M290.248653,67.5458989 L288.027562,69.7669898 L290.248653,71.9880808 L292.469744,69.7669898 L290.248653,67.5458989 Z M296.8004,65.4363338 L294.579309,63.2152429 L292.469744,65.324808 L294.690835,67.5458989 L296.8004,65.4363338 Z M285.804901,76.4318334 L288.025992,74.2107424 L285.804901,71.9896515 L283.58381,74.2107424 L285.804901,76.4318334 Z M309.098081,58.121185 L306.87699,60.3422759 L309.098081,62.5633669 L311.319172,60.3422759 L309.098081,58.121185 Z M313.428737,53.790529 L311.319172,55.9000941 L313.540263,58.121185 L315.649828,56.0116199 L313.428737,53.790529 Z M304.654328,62.5649376 L302.433237,64.7860285 L304.654328,67.0071195 L306.875419,64.7860285 L304.654328,62.5649376 Z" id="Shape" fill="url(#linearGradient-1)" opacity="0.600000024"></path>
                    </g>
                </g>
            </g>
        </g>
    </g>
</svg>