<?xml version="1.0" encoding="UTF-8"?>
<svg width="84px" height="84px" viewBox="0 0 84 84" version="1.1" xmlns="http://www.w3.org/2000/svg" xmlns:xlink="http://www.w3.org/1999/xlink">
    <!-- Generator: Sketch 58 (84663) - https://sketch.com -->
    <title>access</title>
    <desc>Created with Sketch.</desc>
    <g id="designs" stroke="none" stroke-width="1" fill="none" fill-rule="evenodd">
        <g id="02-EstateFunder-aternative-v5" transform="translate(-278.000000, -3951.000000)">
            <g id="benefits" transform="translate(196.000000, 3747.000000)">
                <g id="access" transform="translate(0.000000, 204.000000)">
                    <g transform="translate(82.000000, 0.000000)">
                        <path d="M5.6,84 L72.8,84 C75.8926875,84 78.4,81.4926875 78.4,78.4 L78.4,74.2 C78.4,73.4265 77.7735,72.8 77,72.8 L74.2,72.8 L74.2,50.4 L71.4,50.4 L71.4,72.8 L68.6,72.8 L68.6,50.4 L65.8,50.4 L65.8,72.8 L47.9303125,72.8 C46.43975,72.79475 45.0756251,73.6378125 44.4141251,74.9743749 C44.2233749,75.3598125 43.8296251,75.6035 43.4,75.6 L35.3303125,75.6 C34.9011251,75.6026251 34.5078125,75.3593749 34.3183749,74.9743749 C33.656,73.6378125 32.2918749,72.79475 30.8,72.8 L12.6,72.8 L12.6,37.8 C12.6,37.0265 13.2265,36.4 14,36.4 L39.2,36.4 L39.2,33.6 L14,33.6 C11.6808125,33.6 9.8,35.4808125 9.8,37.8 L9.8,72.8 L7,72.8 L7,35 C7,32.6808125 8.88081253,30.8 11.2,30.8 L39.2,30.8 L39.2,28 L11.2,28 C7.336,28.0048125 4.20481253,31.136 4.2,35 L4.2,72.8 L1.4,72.8 C0.6265,72.8 0,73.4265 0,74.2 L0,78.4 C0,81.4926875 2.50731253,84 5.6,84 Z M2.8,75.5999789 L30.8,75.5999789 C31.2291875,75.5978125 31.6225,75.8401875 31.8141251,76.2238749 C32.47475,77.5608749 33.83975,78.40525 35.3303125,78.4 L43.4,78.4 C44.8918749,78.40525 46.2568749,77.5608749 46.9183749,76.2238749 C47.1078125,75.83975 47.5015625,75.5973749 47.9303125,75.5999789 L75.6,75.5999789 L75.6,78.4 C75.6,79.9465625 74.3465625,81.2 72.8,81.2 L5.6,81.2 C4.05343747,81.2 2.8,79.9465625 2.8,78.4 L2.8,75.5999789 Z" id="Shape" fill="#3F89E8" fill-rule="nonzero"></path>
                        <path d="M18.2,51.8 L18.2,63 C18.2,63.7735 18.8265,64.4 19.6,64.4 L58.8,64.4 C59.5735,64.4 60.2,63.7735 60.2,63 L60.2,51.8 C60.2,51.0265 59.5735,50.4 58.8,50.4 L19.6,50.4 C18.8265,50.4 18.2,51.0265 18.2,51.8 Z M21,53.2 L57.4,53.2 L57.4,61.6 L21,61.6 L21,53.2 Z" id="Shape" fill="#A1D2FF" fill-rule="nonzero"></path>
                        <polygon id="Path" fill="#3F89E8" fill-rule="nonzero" points="23.8 56 26.6 56 26.6 58.8 23.8 58.8"></polygon>
                        <polygon id="Path" fill="#3F89E8" fill-rule="nonzero" points="29.4 56 32.2 56 32.2 58.8 29.4 58.8"></polygon>
                        <polygon id="Path" fill="#3F89E8" fill-rule="nonzero" points="35 56 37.8 56 37.8 58.8 35 58.8"></polygon>
                        <polygon id="Path" fill="#3F89E8" fill-rule="nonzero" points="40.6 56 43.4 56 43.4 58.8 40.6 58.8"></polygon>
                        <rect id="Rectangle" fill="#A1D2FF" x="44" y="22" width="38" height="25"></rect>
                        <path d="M51.9963557,22.6349381 C52.5994118,11.4783993 56.2322978,6.5 63,6.5 C69.7172024,6.5 73,11.2272285 73,22 L78,22 C78,8.77277147 72.9494643,1.5 63,1.5 C53.1010355,1.5 47.7339215,8.85493407 47.0036443,22.3650619 L51.9963557,22.6349381 Z" id="Path-3" fill="#A1D2FF" fill-rule="nonzero"></path>
                        <path d="M79.8,21.0520625 L79.8,16.8 C79.8,7.5215 72.2785,0 63,0 C53.7215,0 46.2,7.5215 46.2,16.8 L46.2,21.0520625 C43.8178125,21.3058125 42.0083125,23.3108749 42,25.7066251 L42,42.8933749 C42.0035,45.4916875 44.1096251,47.5978125 46.7079375,47.6 L79.2920625,47.6 C81.8903749,47.5978125 83.9965,45.4916875 84,42.8933749 L84,25.7066251 C83.9916875,23.3108749 82.1821875,21.3058125 79.8,21.0520625 Z M49,16.8 C49,9.06762506 55.2676251,2.8 63,2.8 C70.7323749,2.8 77,9.06762506 77,16.8 L77,21 L74.2,21 L74.2,16.8 C74.2,10.6141875 69.1858125,5.6 63,5.6 C56.8141875,5.6 51.8,10.6141875 51.8,16.8 L51.8,21 L49,21 L49,16.8 Z M54.6,21 L54.6,16.8 C54.6,12.1616251 58.3616251,8.4 63,8.4 C67.6383749,8.4 71.4,12.1616251 71.4,16.8 L71.4,21 L54.6,21 Z M81.2,42.8933749 C81.1991251,43.9464375 80.3446875,44.7995625 79.2920625,44.8 L46.7079375,44.8 C45.6553125,44.7995625 44.8008749,43.9464375 44.8,42.8933749 L44.8,25.7066251 C44.8008749,24.6535625 45.6553125,23.8004375 46.7079375,23.8 L79.2920625,23.8 C80.3446875,23.8004375 81.1991251,24.6535625 81.2,25.7066251 L81.2,42.8933749 Z" id="Shape" fill="#3F89E8" fill-rule="nonzero"></path>
                        <path d="M63,29.3999903 C60.9568749,29.3956251 59.2090625,30.8660625 58.8621251,32.8803125 C58.5160625,34.8941251 59.6728125,36.86375 61.6,37.5423125 L61.6,40.6 L64.4,40.6 L64.4,37.5423125 C66.3271875,36.86375 67.4839375,34.8941251 67.1378749,32.8803125 C66.7909375,30.8660625 65.0431251,29.3956251 63,29.3999903 Z M63,35 C62.2265,35 61.6,34.3735 61.6,33.6 C61.6,32.8265 62.2265,32.2 63,32.2 C63.7735,32.2 64.4,32.8265 64.4,33.6 C64.4,34.3735 63.7735,35 63,35 Z" id="Shape" fill="#3F89E8" fill-rule="nonzero"></path>
                        <path d="M28,22.4 L28,25.2 L25.2,25.2 L25.2,22.4 L28,22.4 Z M28,16.8 L28,19.6 L25.2,19.6 L25.2,16.8 L28,16.8 Z M28,11.2 L28,14 L25.2,14 L25.2,11.2 L28,11.2 Z M28,5.6 L28,8.4 L25.2,8.4 L25.2,5.6 L28,5.6 Z M33.6,5.6 L33.6,8.4 L30.8,8.4 L30.8,5.6 L33.6,5.6 Z M39.2,5.6 L39.2,8.4 L36.4,8.4 L36.4,5.6 L39.2,5.6 Z M44.8,5.6 L44.8,8.4 L42,8.4 L42,5.6 L44.8,5.6 Z" id="Combined-Shape" fill="#A1D2FF" fill-rule="nonzero"></path>
                    </g>
                </g>
            </g>
        </g>
    </g>
</svg>