<?xml version="1.0" encoding="UTF-8"?>
<svg width="83px" height="83px" viewBox="0 0 83 83" version="1.1" xmlns="http://www.w3.org/2000/svg" xmlns:xlink="http://www.w3.org/1999/xlink">
    <!-- Generator: Sketch 58 (84663) - https://sketch.com -->
    <title>automatic</title>
    <desc>Created with Sketch.</desc>
    <g id="designs" stroke="none" stroke-width="1" fill="none" fill-rule="evenodd">
        <g id="04-EstateFunder-edirect-investments-efund-tab" transform="translate(-679.000000, -2541.000000)" fill-rule="nonzero">
            <g id="key-benefits" transform="translate(84.000000, 830.000000)">
                <g id="Group-7" transform="translate(56.000000, 1476.000000)">
                    <g id="automatic" transform="translate(539.000000, 235.000000)">
                        <path d="M68.2741935,37.483871 C67.5352258,37.483871 66.9354839,36.8827903 66.9354839,36.1451613 L64.2580645,36.1451613 C64.2580645,37.8881613 65.3812419,39.3607419 66.9354839,39.9149677 L66.9354839,42.8387097 L69.6129032,42.8387097 L69.6129032,40.1612903 L72.2903226,40.1612903 L72.2903226,36.1451613 C72.2903226,33.9309355 70.4884194,32.1290323 68.2741935,32.1290323 C67.5352258,32.1290323 66.9354839,31.5279516 66.9354839,30.7903226 L66.9354839,29.4516129 L68.2741935,29.4516129 C69.0131613,29.4516129 69.6129032,30.0526935 69.6129032,30.7903226 L72.2903226,30.7903226 C72.2903226,29.0473226 71.1671452,27.5747419 69.6129032,27.0205161 L69.6129032,24.0967742 L66.9354839,24.0967742 L66.9354839,26.7741935 L64.2580645,26.7741935 L64.2580645,30.7903226 C64.2580645,33.0045484 66.0599677,34.8064516 68.2741935,34.8064516 C69.0131613,34.8064516 69.6129032,35.4075323 69.6129032,36.1451613 L69.6129032,37.483871 L68.2741935,37.483871 Z" id="Path" fill="#A1D2FF"></path>
                        <circle id="Oval" fill="#A1D2FF" cx="76.3064516" cy="33.4677419" r="1.33870968"></circle>
                        <circle id="Oval" fill="#A1D2FF" cx="60.2419355" cy="33.4677419" r="1.33870968"></circle>
                        <path d="M14.7258065,29.4516129 C15.4647742,29.4516129 16.0645161,30.0526935 16.0645161,30.7903226 L18.7419355,30.7903226 C18.7419355,29.0473226 17.6187581,27.5747419 16.0645161,27.0205161 L16.0645161,24.0967742 L13.3870968,24.0967742 L13.3870968,26.7741935 L10.7096774,26.7741935 L10.7096774,30.7903226 C10.7096774,33.0045484 12.5115806,34.8064516 14.7258065,34.8064516 C15.4647742,34.8064516 16.0645161,35.4075323 16.0645161,36.1451613 L16.0645161,37.483871 L14.7258065,37.483871 C13.9868387,37.483871 13.3870968,36.8827903 13.3870968,36.1451613 L10.7096774,36.1451613 C10.7096774,37.8881613 11.8328548,39.3607419 13.3870968,39.9149677 L13.3870968,42.8387097 L16.0645161,42.8387097 L16.0645161,40.1612903 L18.7419355,40.1612903 L18.7419355,36.1451613 C18.7419355,33.9309355 16.9400323,32.1290323 14.7258065,32.1290323 C13.9868387,32.1290323 13.3870968,31.5279516 13.3870968,30.7903226 L13.3870968,29.4516129 L14.7258065,29.4516129 Z" id="Path" fill="#A1D2FF"></path>
                        <circle id="Oval" fill="#A1D2FF" cx="22.7580645" cy="33.4677419" r="1.33870968"></circle>
                        <circle id="Oval" fill="#A1D2FF" cx="6.69354839" cy="33.4677419" r="1.33870968"></circle>
                        <path d="M58.6769839,57.3382742 C58.5283871,57.486871 58.4079032,57.652871 58.2900968,57.8202097 L56.1883226,59.8670968 C55.8362419,56.4855161 50.8308065,54.4372903 45.5147903,53.7880161 L45.5147903,52.2096774 C45.5147903,49.352871 46.6232419,46.9057097 48.1922097,44.8588226 L48.1922097,45.516129 C48.1922097,49.2069516 51.1949355,52.2096774 54.8857581,52.2096774 L56.2244677,52.2096774 L56.2244677,48.1935484 C56.2244677,45.0904194 54.0919032,42.4986774 51.2230484,41.7436452 C52.4064677,40.7596935 53.6260323,39.9350484 54.7425161,39.268371 C56.9995806,44.5107581 62.2138548,48.1935484 68.2741935,48.1935484 C76.3934677,48.1935484 83,41.5870161 83,33.4677419 C83,25.3484677 76.3934677,18.7419355 68.2741935,18.7419355 C60.1549194,18.7419355 53.5483871,25.3484677 53.5483871,33.4677419 C53.5483871,34.5628065 53.6769032,35.6257419 53.9058226,36.653871 C51.2337581,38.1866935 47.8387903,40.6137742 45.516129,43.9752742 L45.516129,18.7419355 L52.2096774,18.7419355 C61.8055484,18.7419355 69.6129032,10.9345806 69.6129032,1.33870968 L69.6129032,-3.55271368e-15 L57.5645161,-3.55271368e-15 C50.3354839,-3.55271368e-15 44.1252097,4.43246774 41.5,10.7203871 C38.8747903,4.43246774 32.6645161,-3.55271368e-15 25.4354839,-3.55271368e-15 L13.3870968,-3.55271368e-15 L13.3870968,1.33870968 C13.3870968,10.9345806 21.1944516,18.7419355 30.7903226,18.7419355 L37.483871,18.7419355 L37.483871,43.9725968 C35.1638871,40.6137742 31.7715968,38.189371 29.0941774,36.653871 C29.3230968,35.6270806 29.4516129,34.5628065 29.4516129,33.4677419 C29.4516129,25.3484677 22.8450806,18.7419355 14.7258065,18.7419355 C6.60653226,18.7419355 0,25.3484677 0,33.4677419 C0,41.5870161 6.60653226,48.1935484 14.7258065,48.1935484 C20.7861452,48.1935484 26.0004194,44.5107581 28.2574839,39.268371 C29.3753065,39.9350484 30.594871,40.7596935 31.7769516,41.7436452 C28.9067581,42.4973387 26.7741935,45.0904194 26.7741935,48.1935484 L26.7741935,52.2096774 L28.1129032,52.2096774 C31.8037258,52.2096774 34.8064516,49.2069516 34.8064516,45.516129 L34.8064516,44.8574839 C36.3767581,46.904371 37.483871,49.3515323 37.483871,52.2096774 L37.483871,53.7866774 C32.1678548,54.4359516 27.1624194,56.4841774 26.8103387,59.8657581 L24.7085645,57.818871 C24.5907581,57.6515323 24.4716129,57.486871 24.3216774,57.3369355 C21.2828065,54.3020806 14.3576613,57.9540806 9.38033871,62.9287258 C4.40301613,67.9060484 0.752354839,74.833871 3.78854839,77.8700645 C4.03487097,78.1163871 4.31466129,78.3024677 4.60783871,78.4644516 L7.80467742,81.8861935 C8.57175806,82.6532742 9.5865,82.9933065 10.7551935,82.9933065 C14.2157581,82.9933065 19.0257419,80.0133387 22.7460161,76.2944032 C24.2627742,74.7776452 25.6536935,73.0774839 26.7728548,71.3625968 L26.7728548,76.3064516 C26.7728548,80.6545806 34.3593226,83 41.4986613,83 C48.638,83 56.2244677,80.6545806 56.2244677,76.3064516 L56.2244677,71.3652742 C57.343629,73.0801613 58.7332097,74.7789839 60.2513065,76.2957419 C63.9622097,80.0066452 68.7588065,82.9812581 72.2314194,82.9812581 C73.4148387,82.9812581 74.4443065,82.635871 75.2234355,81.8554032 L78.3881452,78.4657903 C78.6826613,78.3051452 78.9624516,78.1177258 79.2087742,77.8714032 C82.2463065,74.8352097 78.5943065,67.9073871 73.6169839,62.9300645 C68.6396613,57.9527419 61.7105,54.3007419 58.6769839,57.3382742 L58.6769839,57.3382742 Z M68.2741935,21.4193548 C74.9182097,21.4193548 80.3225806,26.8250645 80.3225806,33.4677419 C80.3225806,40.1104194 74.9182097,45.516129 68.2741935,45.516129 C61.6301774,45.516129 56.2258065,40.1104194 56.2258065,33.4677419 C56.2258065,26.8250645 61.6301774,21.4193548 68.2741935,21.4193548 Z M53.5483871,48.1935484 L53.5483871,49.3033387 C51.990129,48.7504516 50.8709677,47.2618065 50.8709677,45.516129 L50.8709677,44.4063387 C52.4292258,44.9592258 53.5483871,46.447871 53.5483871,48.1935484 Z M14.7258065,45.516129 C8.08179032,45.516129 2.67741935,40.1104194 2.67741935,33.4677419 C2.67741935,26.8250645 8.08179032,21.4193548 14.7258065,21.4193548 C21.3698226,21.4193548 26.7741935,26.8250645 26.7741935,33.4677419 C26.7741935,40.1104194 21.3698226,45.516129 14.7258065,45.516129 Z M32.1290323,45.516129 C32.1290323,47.2618065 31.009871,48.7504516 29.4516129,49.3033387 L29.4516129,48.1935484 C29.4516129,46.447871 30.5707742,44.9592258 32.1290323,44.4063387 L32.1290323,45.516129 Z M57.7907581,62.0425 C58.0759032,63.2607258 58.630129,64.5766774 59.3744516,65.911371 L57.3141774,67.9716452 C56.6742742,66.7052258 56.3155,65.6007903 56.2258065,64.7600806 L56.2258065,64.0706452 C56.2632903,63.7185645 56.3636935,63.4360968 56.5404032,63.2593871 L57.7907581,62.0425 Z M53.5483871,65.5967742 C53.5483871,66.3344032 52.589871,67.220629 50.8709677,67.9743226 L50.8709677,65.4655806 C51.8709839,65.1068065 52.7799677,64.6877903 53.5483871,64.2031774 L53.5483871,65.5967742 Z M48.1935484,68.857871 C46.6741129,69.2327097 44.8789032,69.503129 42.8387097,69.586129 L42.8387097,66.9087097 C44.6727419,66.8337419 46.5014194,66.6048226 48.1935484,66.2313226 L48.1935484,68.857871 Z M40.1612903,69.586129 C38.1210968,69.503129 36.3258871,69.2327097 34.8064516,68.857871 L34.8064516,66.2313226 C36.4985806,66.6048226 38.3272581,66.8337419 40.1612903,66.9087097 L40.1612903,69.586129 Z M32.1290323,67.9743226 C30.410129,67.220629 29.4516129,66.3344032 29.4516129,65.5967742 L29.4516129,64.2018387 C30.2200323,64.6864516 31.1290161,65.1054677 32.1290323,65.4642419 L32.1290323,67.9743226 Z M29.4516129,69.5566774 C30.2200323,70.0412903 31.1290161,70.4603065 32.1290323,70.8190806 L32.1290323,73.3278226 C30.410129,72.574129 29.4516129,71.6879032 29.4516129,70.9502742 L29.4516129,69.5566774 Z M34.8064516,71.5861613 C36.4985806,71.9596613 38.3272581,72.1885806 40.1612903,72.2635484 L40.1612903,74.9409677 C38.1210968,74.8579677 36.3258871,74.5875484 34.8064516,74.2127097 L34.8064516,71.5861613 Z M40.1612903,77.6183871 L40.1612903,80.2958065 C38.1210968,80.2128065 36.3258871,79.9423871 34.8064516,79.5675484 L34.8064516,76.941 C36.4985806,77.3145 38.3272581,77.5434194 40.1612903,77.6183871 Z M42.8387097,77.6183871 C44.6727419,77.5434194 46.5014194,77.3145 48.1935484,76.941 L48.1935484,79.5675484 C46.6741129,79.9423871 44.8789032,80.2128065 42.8387097,80.2958065 L42.8387097,77.6183871 Z M42.8387097,74.9409677 L42.8387097,72.2635484 C44.6727419,72.1885806 46.5014194,71.9596613 48.1935484,71.5861613 L48.1935484,74.2127097 C46.6741129,74.5875484 44.8789032,74.8579677 42.8387097,74.9409677 Z M50.8709677,70.8190806 C51.8709839,70.4603065 52.7799677,70.0412903 53.5483871,69.5566774 L53.5483871,70.9516129 C53.5483871,71.6892419 52.589871,72.5754677 50.8709677,73.3291613 L50.8709677,70.8190806 Z M57.5645161,2.67741935 L66.8752419,2.67741935 C66.1965161,10.1728548 59.8791452,16.0645161 52.2096774,16.0645161 L45.516129,16.0645161 L42.8989516,16.0645161 C43.5776774,8.56908065 49.8950484,2.67741935 57.5645161,2.67741935 Z M30.7903226,16.0645161 C23.1208548,16.0645161 16.8034839,10.1728548 16.1247581,2.67741935 L25.4354839,2.67741935 C33.1049516,2.67741935 39.4223226,8.56908065 40.1010484,16.0645161 L37.483871,16.0645161 L30.7903226,16.0645161 Z M40.1612903,18.7419355 L42.8387097,18.7419355 L42.8387097,58.9032258 L40.1612903,58.9032258 L40.1612903,18.7419355 Z M37.483871,56.4855161 L37.483871,61.5806452 L45.516129,61.5806452 L45.516129,56.4855161 C50.7611935,57.1709355 53.5483871,59.0317419 53.5483871,60.2419355 C53.5483871,61.8791774 48.854871,64.2580645 41.5,64.2580645 C34.145129,64.2580645 29.4516129,61.8791774 29.4516129,60.2419355 C29.4516129,59.0317419 32.2388065,57.1709355 37.483871,56.4855161 Z M26.7741935,64.1322258 L26.7741935,64.6302258 C26.7112742,65.4883387 26.3578548,66.6369516 25.6844839,67.9703065 L23.6255484,65.911371 C24.3685323,64.5766774 24.9240968,63.2620645 25.2092419,62.0438387 L26.4462097,63.2486774 C26.6363065,63.4387742 26.7420645,63.744 26.7741935,64.1322258 Z M17.7553065,73.196629 L19.887871,75.3291935 C18.8235968,76.309129 17.7834194,77.1284194 16.7900968,77.8125 L14.6856452,75.6893065 C15.7418871,74.939629 16.7740323,74.1002581 17.7553065,73.196629 L17.7553065,73.196629 Z M19.6576129,71.3130645 C20.5639194,70.3291129 21.4086452,69.2889355 22.1596613,68.2313548 L24.2654516,70.3371452 C23.581371,71.3304677 22.7620806,72.3733226 21.7821452,73.4362581 L19.6576129,71.3130645 Z M11.2746129,64.823 C16.3844677,59.7144839 21.2948548,58.0959839 22.4300806,59.2312097 C23.5639677,60.3650968 21.9508226,65.2741452 16.8382903,70.3866774 C11.7284355,75.4951935 6.81804839,77.1123548 5.68282258,75.9784677 C4.54893548,74.8445806 6.16341935,69.9355323 11.2746129,64.823 Z M9.73108065,80.0267258 L8.51954839,78.7295161 C9.73643548,78.4430323 11.0430161,77.9035323 12.3750323,77.1605484 L14.4299516,79.232871 C12.1113065,80.4095968 10.3415323,80.6345 9.73108065,80.0267258 Z M29.4516129,76.3064516 L29.4516129,74.9115161 C30.2200323,75.396129 31.1290161,75.8151452 32.1290323,76.1739194 L32.1290323,78.6826613 C30.410129,77.9303065 29.4516129,77.0440806 29.4516129,76.3064516 Z M50.8709677,78.684 L50.8709677,76.1752581 C51.8709839,75.8164839 52.7799677,75.3974677 53.5483871,74.9128548 L53.5483871,76.3064516 C53.5483871,77.0440806 52.589871,77.9303065 50.8709677,78.684 Z M58.7345484,70.3371452 L60.8403387,68.2313548 C61.5913548,69.2889355 62.4360806,70.3291129 63.3423871,71.3130645 L61.2191935,73.4362581 C60.2379194,72.3719839 59.4172903,71.3304677 58.7345484,70.3371452 Z M65.2446935,73.196629 C66.2273065,74.1002581 67.2581129,74.939629 68.3143548,75.6893065 L66.2099032,77.8125 C65.2165806,77.1297581 64.1750645,76.309129 63.112129,75.3305323 L65.2446935,73.196629 Z M68.5727258,79.2301935 L70.6249677,77.1605484 C71.9569839,77.9035323 73.2635645,78.4430323 74.4817903,78.7295161 L73.3010484,79.9932581 C72.6745323,80.6197742 70.8953871,80.4029032 68.5727258,79.2301935 Z M77.3171774,75.9784677 C76.1792742,77.1110161 71.2702258,75.4951935 66.1617097,70.3866774 C61.0505161,65.2754839 59.437371,60.3664355 60.5699194,59.2312097 C60.7975,59.003629 61.1776935,58.8871613 61.6797097,58.8871613 C63.6824194,58.8871613 67.6396452,60.7385968 71.7253871,64.823 C76.8365806,69.9355323 78.4510645,74.8445806 77.3171774,75.9784677 Z" id="Shape" fill="#FFFFFF"></path>
                    </g>
                </g>
            </g>
        </g>
    </g>
</svg>