<?xml version="1.0" encoding="UTF-8"?>
<svg width="97px" height="84px" viewBox="0 0 97 84" version="1.1" xmlns="http://www.w3.org/2000/svg" xmlns:xlink="http://www.w3.org/1999/xlink">
    <!-- Generator: Sketch 58 (84663) - https://sketch.com -->
    <title>balanced</title>
    <desc>Created with Sketch.</desc>
    <g id="designs" stroke="none" stroke-width="1" fill="none" fill-rule="evenodd">
        <g id="03-EstateFunder-edirect-investments-edirect-tab" transform="translate(-1016.000000, -2433.000000)" fill-rule="nonzero">
            <g id="key-benefits" transform="translate(86.000000, 830.000000)">
                <g id="Group-10" transform="translate(54.000000, 1344.000000)">
                    <g id="access" transform="translate(788.000000, 192.000000)">
                        <g id="balanced" transform="translate(88.000000, 67.000000)">
                            <path d="M91.3643211,32.3954585 L82.0997077,17.8273381 L85.6115108,17.8273381 C88.8006969,17.8470098 91.5130396,15.50607 91.9591952,12.3483588 C91.9851619,12.2295415 92.0032599,12.1083633 92.014276,11.9871852 C92.0402427,11.8691547 92.0551933,11.7487635 92.057554,11.6275854 C92.057554,11.5245055 92.057554,11.4410971 92.057554,11.381295 C92.0701439,9.218188 90.6443345,7.31002688 88.5669964,6.70885801 C86.4888715,6.10768875 84.2643885,6.95986955 83.1202787,8.79563839 C81.9761691,10.6314074 82.1901978,13.003822 83.6451214,14.6043165 L59.8273381,14.6043165 C59.8210432,9.00179856 55.7033499,4.25303502 50.1582734,3.45278777 L50.1582734,1.71223022 C50.1582734,0.822279626 49.4367132,0.100719424 48.5467626,0.100719424 C47.656812,0.100719424 46.9352518,0.822279626 46.9352518,1.71223022 L46.9352518,3.45278777 C41.3901753,4.25303502 37.272482,9.00179856 37.2661871,14.6043165 L13.4484038,14.6043165 C14.9033273,13.003822 15.1173561,10.6314074 13.9732465,8.79563839 C12.8291367,6.95986955 10.6046537,6.10768875 8.52652878,6.70885801 C6.44919065,7.31002688 5.02338129,9.218188 5.03597122,11.381295 L5.03597122,11.6275854 C5.03597122,11.7471897 5.04698751,11.866794 5.06980671,11.9840379 C5.07452783,12.0635117 5.08633094,12.1429856 5.10364219,12.2208858 C5.10364219,12.2468525 5.11623212,12.2688849 5.1193794,12.2948516 C5.1233139,12.3208182 5.13905131,12.3853417 5.1500674,12.4301933 C5.64500909,15.543053 8.33059807,17.8320595 11.4820144,17.8273381 L14.9938175,17.8273381 L5.72920409,32.3954585 C0.465040518,37.388152 -1.22515732,45.0845324 1.46279232,51.8232914 C4.14995494,58.5620504 10.6731115,62.9834758 17.9280576,62.9834758 C25.1830036,62.9834758 31.7061602,58.5620504 34.3933228,51.8232914 C37.0812724,45.0845324 35.3910746,37.388152 30.126911,32.3954585 L20.8622976,17.8273381 L37.7493256,17.8273381 C38.6683904,20.8819693 40.833858,23.4070369 43.7122302,24.7809127 L43.7122302,61.3381295 C42.8222796,61.3381295 42.1007194,62.0596897 42.1007194,62.9496403 L42.1007194,67.7841727 L38.1718751,67.7841727 C35.9529002,67.7833858 34.0187724,69.2933904 33.480553,71.4454811 L32.7849595,74.2302158 L29.2086331,74.2302158 C26.5387815,74.2302158 24.3741007,76.3948966 24.3741007,79.0647482 L24.3741007,82.2877698 C24.3741007,83.1777204 25.0956609,83.8992806 25.9856115,83.8992806 L71.1079137,83.8992806 C71.9978643,83.8992806 72.7194245,83.1777204 72.7194245,82.2877698 L72.7194245,79.0647482 C72.7194245,76.3948966 70.5547437,74.2302158 67.8848921,74.2302158 L64.3085657,74.2302158 L63.6129722,71.4454811 C63.0747527,69.2933904 61.1406249,67.7833858 58.9216501,67.7841727 L54.9928058,67.7841727 L54.9928058,62.9496403 C54.9928058,62.0596897 54.2712456,61.3381295 53.381295,61.3381295 L53.381295,24.7809127 C56.2628148,23.4086106 58.4314298,20.8835432 59.3520683,17.8273381 L76.2312276,17.8273381 L66.9666142,32.3954585 C61.7024506,37.388152 60.0122527,45.0845324 62.7002024,51.8232914 C65.387365,58.5620504 71.9105216,62.9834758 79.1654676,62.9834758 C86.4204137,62.9834758 92.9435702,58.5620504 95.6307329,51.8232914 C98.3186825,45.0845324 96.6284847,37.388152 91.3643211,32.3954585 Z M32.4316547,45.2230216 C32.4316547,53.2333633 25.9383993,59.7266187 17.9280576,59.7266187 C9.91771583,59.7266187 3.42446043,53.2333633 3.42446043,45.2230216 C3.42446043,37.2126799 9.91771583,30.7194245 17.9280576,30.7194245 C25.934465,30.7288669 32.4222122,37.2166142 32.4316547,45.2230216 Z M17.9280576,27.4964029 C15.9073741,27.5003372 13.9024281,27.8528552 12.0005621,28.5374326 L17.9280576,19.2177384 L23.855553,28.5374326 C21.9536871,27.8528552 19.948741,27.5003372 17.9280576,27.4964029 Z M9.8705036,9.76978417 C10.7604542,9.76978417 11.4820144,10.4913444 11.4820144,11.381295 C11.4820144,12.2712456 10.7604542,12.9928058 9.8705036,12.9928058 C8.98055301,12.9928058 8.25899281,12.2712456 8.25899281,11.381295 C8.25899281,10.4913444 8.98055301,9.76978417 9.8705036,9.76978417 Z M48.5467626,12.9928058 C49.4367132,12.9928058 50.1582734,13.714366 50.1582734,14.6043165 C50.1582734,15.4942671 49.4367132,16.2158273 48.5467626,16.2158273 C47.656812,16.2158273 46.9352518,15.4942671 46.9352518,14.6043165 C46.9352518,13.714366 47.656812,12.9928058 48.5467626,12.9928058 Z M69.4964029,79.0647482 L69.4964029,80.676259 L27.5971223,80.676259 L27.5971223,79.0647482 C27.5971223,78.1747976 28.3186825,77.4532374 29.2086331,77.4532374 L67.8848921,77.4532374 C68.7748427,77.4532374 69.4964029,78.1747976 69.4964029,79.0647482 Z M60.4867357,72.2284173 L60.9863983,74.2302158 L36.1071268,74.2302158 L36.6067895,72.2284173 C36.7861961,71.5107914 37.4314298,71.0064074 38.1718751,71.0071933 L58.9216501,71.0071933 C59.6620954,71.0064074 60.307329,71.5107914 60.4867357,72.2284173 Z M45.323741,67.7841727 L45.323741,64.5611511 L51.7697842,64.5611511 L51.7697842,67.7841727 L45.323741,67.7841727 Z M50.1582734,61.3381295 L46.9352518,61.3381295 L46.9352518,25.7558453 C48.003035,25.92817 49.0904902,25.92817 50.1582734,25.7558453 L50.1582734,61.3381295 Z M48.5467626,22.6618742 C44.4070369,22.6658048 40.9377247,19.5324866 40.5222571,15.4140062 C40.1060026,11.2955261 42.8781475,7.53192446 46.9352518,6.70807099 L46.9352518,10.0648607 C44.7154902,10.8493705 43.3833184,13.1194919 43.7814748,15.4399731 C44.1796312,17.761241 46.192446,19.456947 48.5467626,19.456947 C50.9010791,19.456947 52.913894,17.761241 53.3120504,15.4399731 C53.7102067,13.1194919 52.378035,10.8493705 50.1582734,10.0648607 L50.1582734,6.70807099 C54.2153777,7.53192446 56.9875225,11.2955261 56.5712681,15.4140062 C56.1558005,19.5324866 52.6864883,22.6658048 48.5467626,22.6618742 Z M87.2230216,9.76978417 C88.1129722,9.76978417 88.8345324,10.4913444 88.8345324,11.381295 C88.8345324,12.2712456 88.1129722,12.9928058 87.2230216,12.9928058 C86.333071,12.9928058 85.6115108,12.2712456 85.6115108,11.381295 C85.6115108,10.4913444 86.333071,9.76978417 87.2230216,9.76978417 Z M79.1654676,19.2177384 L85.0929631,28.5374326 C81.2632643,27.149393 77.067671,27.149393 73.2379722,28.5374326 L79.1654676,19.2177384 Z M79.1654676,59.7266187 C71.1551259,59.7266187 64.6618705,53.2333633 64.6618705,45.2230216 C64.6618705,37.2126799 71.1551259,30.7194245 79.1654676,30.7194245 C87.1758094,30.7194245 93.6690647,37.2126799 93.6690647,45.2230216 C93.6596223,53.229429 87.1718751,59.7171763 79.1654676,59.7266187 Z" id="Shape" fill="#FFFFFF"></path>
                            <path d="M24.846223,36.0260791 L8.73111511,52.1411871 C8.3125,52.5456384 8.14410981,53.1452338 8.29204127,53.7086331 C8.4391861,54.2720324 8.87904676,54.711893 9.44244604,54.8590379 C10.0058453,55.0069693 10.6054407,54.8385791 11.0098921,54.419964 L27.125,38.3048561 C27.7356115,37.6722122 27.7269559,36.6673786 27.1053283,36.0457508 C26.4837005,35.4241233 25.4788669,35.4154676 24.846223,36.0260791 Z" id="Path" fill="#A1D2FF"></path>
                            <path d="M23.5683453,46.028777 C21.3430755,46.028777 19.5395683,47.8322842 19.5395683,50.057554 C19.5395683,52.2828237 21.3430755,54.0863309 23.5683453,54.0863309 C25.7936151,54.0863309 27.5971223,52.2828237 27.5971223,50.057554 C27.5971223,47.8322842 25.7936151,46.028777 23.5683453,46.028777 Z M23.5683453,50.8633094 C23.1229765,50.8633094 22.7625899,50.5029228 22.7625899,50.057554 C22.7625899,49.6121852 23.1229765,49.2517986 23.5683453,49.2517986 C24.0137141,49.2517986 24.3741007,49.6121852 24.3741007,50.057554 C24.3741007,50.5029228 24.0137141,50.8633094 23.5683453,50.8633094 Z" id="Shape" fill="#A1D2FF"></path>
                            <path d="M12.2877698,43.6115108 C14.5130396,43.6115108 16.3165468,41.8080036 16.3165468,39.5827338 C16.3165468,37.357464 14.5130396,35.5539568 12.2877698,35.5539568 C10.0625,35.5539568 8.25899281,37.357464 8.25899281,39.5827338 C8.25899281,41.8080036 10.0625,43.6115108 12.2877698,43.6115108 Z M12.2877698,38.7769784 C12.7331386,38.7769784 13.0935252,39.137365 13.0935252,39.5827338 C13.0935252,40.0281026 12.7331386,40.3884892 12.2877698,40.3884892 C11.842401,40.3884892 11.4820144,40.0281026 11.4820144,39.5827338 C11.4820144,39.137365 11.842401,38.7769784 12.2877698,38.7769784 Z" id="Shape" fill="#A1D2FF"></path>
                            <path d="M80.7769784,37.3991681 L80.7769784,35.5539568 L77.5539568,35.5539568 L77.5539568,37.3991681 C75.7661871,37.9554856 74.496178,39.5426034 74.3466727,41.4090602 C74.1971674,43.275517 75.1972796,45.0451889 76.8741007,45.8792715 L80.0145009,47.4482914 C80.5873427,47.7331386 80.8895009,48.3744379 80.7423561,48.9968525 C80.5959981,49.6192671 80.0404676,50.0583408 79.400742,50.057554 L78.9301933,50.057554 C78.1708633,50.0567671 77.5547437,49.4406475 77.5539568,48.6813175 L77.5539568,48.4460432 L74.3309353,48.4460432 L74.3309353,48.6813175 C74.338017,50.6839029 75.6426484,52.4504271 77.5539568,53.0468751 L77.5539568,54.8920863 L80.7769784,54.8920863 L80.7769784,53.0468751 C82.5647482,52.4905576 83.8347573,50.9034398 83.9842626,49.036983 C84.1337679,47.1705261 83.1336556,45.4008542 81.4568345,44.5667717 L78.3164343,42.9977518 C77.7435926,42.7129046 77.4414343,42.0716053 77.5885791,41.4491906 C77.7349372,40.826776 78.2904676,40.3877024 78.9301933,40.3884892 L79.400742,40.3884892 C80.1600719,40.389276 80.7761916,41.0053957 80.7769784,41.7647257 L80.7769784,42 L84,42 L84,41.7647257 C83.9929182,39.7621403 82.6882868,37.9956161 80.7769784,37.3991681 L80.7769784,37.3991681 Z" id="Path" fill="#A1D2FF"></path>
                            <polygon id="Path" fill="#FFFFFF" points="87.2230216 43.6115108 90.4460432 43.6115108 90.4460432 46.8345324 87.2230216 46.8345324"></polygon>
                            <polygon id="Path" fill="#FFFFFF" points="67.8848921 43.6115108 71.1079137 43.6115108 71.1079137 46.8345324 67.8848921 46.8345324"></polygon>
                            <polygon id="Path" fill="#A1D2FF" points="63.0503597 8.15827338 66.2733813 8.15827338 66.2733813 11.381295 63.0503597 11.381295"></polygon>
                            <polygon id="Path" fill="#A1D2FF" points="69.4964029 8.15827338 79.1654676 8.15827338 79.1654676 11.381295 69.4964029 11.381295"></polygon>
                            <polygon id="Path" fill="#A1D2FF" points="17.9280576 8.15827338 21.1510791 8.15827338 21.1510791 11.381295 17.9280576 11.381295"></polygon>
                            <polygon id="Path" fill="#A1D2FF" points="24.3741007 8.15827338 34.0431655 8.15827338 34.0431655 11.381295 24.3741007 11.381295"></polygon>
                        </g>
                    </g>
                </g>
            </g>
        </g>
    </g>
</svg>