<?xml version="1.0" encoding="UTF-8"?>
<svg width="84px" height="84px" viewBox="0 0 84 84" version="1.1" xmlns="http://www.w3.org/2000/svg" xmlns:xlink="http://www.w3.org/1999/xlink">
    <!-- Generator: Sketch 58 (84663) - https://sketch.com -->
    <title>control</title>
    <desc>Created with Sketch.</desc>
    <g id="designs" stroke="none" stroke-width="1" fill="none" fill-rule="evenodd">
        <g id="02-EstateFunder-aternative-v5" transform="translate(-478.000000, -4234.000000)" fill-rule="nonzero">
            <g id="benefits" transform="translate(196.000000, 3747.000000)">
                <g id="access" transform="translate(200.000000, 487.000000)">
                    <g id="control" transform="translate(82.000000, 0.000000)">
                        <g id="Group" transform="translate(17.612903, 42.000000)" fill="#A1D2FF">
                            <polygon id="Path" points="0 18.9677419 5.41935484 18.9677419 5.41935484 24.3870968 0 24.3870968"></polygon>
                            <polygon id="Path" points="10.8387097 13.5483871 16.2580645 13.5483871 16.2580645 24.3870968 10.8387097 24.3870968"></polygon>
                            <polygon id="Path" points="21.6774194 10.8387097 27.0967742 10.8387097 27.0967742 24.3870968 21.6774194 24.3870968"></polygon>
                            <polygon id="Path" points="32.516129 5.41935484 37.9354839 5.41935484 37.9354839 24.3870968 32.516129 24.3870968"></polygon>
                            <polygon id="Path" points="43.3548387 0 48.7741935 0 48.7741935 24.3870968 43.3548387 24.3870968"></polygon>
                        </g>
                        <polygon id="Path" fill="#3F89E8" points="65.0322581 35.2258065 67.7419355 35.2258065 67.7419355 37.9354839 65.0322581 37.9354839"></polygon>
                        <polygon id="Path" fill="#3F89E8" points="65.0322581 29.8064516 67.7419355 29.8064516 67.7419355 32.516129 65.0322581 32.516129"></polygon>
                        <polygon id="Path" fill="#3F89E8" points="13.5483871 65.0322581 70.4516129 65.0322581 70.4516129 67.7419355 13.5483871 67.7419355"></polygon>
                        <path d="M81.2903226,70.4516129 L81.2903226,25.7419355 C81.2903226,22.0068674 78.2511972,18.9677419 74.516129,18.9677419 L67.7419355,18.9677419 L67.7419355,16.2580645 L71.9162677,16.2580645 L63.6774194,5.95983489 L55.438571,16.2580645 L59.6129032,16.2580645 L59.6129032,18.9677419 L51.4230091,18.9677419 L51.4230091,21.6774194 L59.6129032,21.6774194 L59.6129032,24.3870968 L48.7741935,24.3870968 L48.7741935,27.0967742 L59.6129032,27.0967742 L59.6129032,37.9354839 L62.3225806,37.9354839 L62.3225806,13.5483871 L61.077558,13.5483871 L63.6774194,10.2982296 L66.2772807,13.5483871 L65.0322581,13.5483871 L65.0322581,27.0967742 L73.1612903,27.0967742 L73.1612903,70.4516129 L10.8387097,70.4516129 L10.8387097,27.0967742 L21.6774194,27.0967742 L21.6774194,24.3870968 L10.8387097,24.3870968 C9.34428549,24.3870968 8.12903226,25.60235 8.12903226,27.0967742 L8.12903226,70.4516129 L5.41935484,70.4516129 L5.41935484,25.7419355 C5.41935484,23.5012915 7.24322702,21.6774194 9.48387097,21.6774194 L19.0286038,21.6774194 L19.0286038,18.9677419 L9.48387097,18.9677419 C5.74880284,18.9677419 2.70967742,22.0068674 2.70967742,25.7419355 L2.70967742,70.4516129 L0,70.4516129 L0,77.2258065 C0,80.9608746 3.03912542,84 6.77419355,84 L77.2258065,84 C80.9608746,84 84,80.9608746 84,77.2258065 L84,70.4516129 L81.2903226,70.4516129 Z M67.7419355,24.3870968 L67.7419355,21.6774194 L74.516129,21.6774194 C76.756773,21.6774194 78.5806452,23.5012915 78.5806452,25.7419355 L78.5806452,70.4516129 L75.8709677,70.4516129 L75.8709677,27.0967742 C75.8709677,25.60235 74.6557145,24.3870968 73.1612903,24.3870968 L67.7419355,24.3870968 Z M32.516129,73.1612903 L51.483871,73.1612903 L51.483871,74.516129 C51.483871,75.2636718 50.876575,75.8709677 50.1290323,75.8709677 L33.8709677,75.8709677 C33.123425,75.8709677 32.516129,75.2636718 32.516129,74.516129 L32.516129,73.1612903 Z M81.2903226,77.2258065 C81.2903226,79.4664504 79.4664504,81.2903226 77.2258065,81.2903226 L6.77419355,81.2903226 C4.5335496,81.2903226 2.70967742,79.4664504 2.70967742,77.2258065 L2.70967742,73.1612903 L29.8064516,73.1612903 L29.8064516,74.516129 C29.8064516,76.756773 31.6303238,78.5806452 33.8709677,78.5806452 L50.1290323,78.5806452 C52.3696762,78.5806452 54.1935484,76.756773 54.1935484,74.516129 L54.1935484,73.1612903 L81.2903226,73.1612903 L81.2903226,77.2258065 Z" id="Shape" fill="#3F89E8"></path>
                        <path d="M35.2258065,35.2258065 C25.5143649,35.2258065 17.6129032,27.3243448 17.6129032,17.6129032 C17.6129032,7.90146169 25.5143649,0 35.2258065,0 C44.937248,0 52.8387097,7.90146169 52.8387097,17.6129032 C52.8387097,27.3243448 44.937248,35.2258065 35.2258065,35.2258065 Z" id="Path" fill="#A1D2FF"></path>
                        <path d="M35.2258065,29.8064516 C28.5018901,29.8064516 23.0322581,24.3368196 23.0322581,17.6129032 C23.0322581,14.8866873 23.9193863,12.3046875 25.601027,10.1421056 L27.741778,11.8045615 C26.4325857,13.4875252 25.7419355,15.4966292 25.7419355,17.6129032 C25.7419355,22.8410724 29.9976373,27.0967742 35.2258065,27.0967742 C37.3420804,27.0967742 39.3511845,26.406124 41.0341482,25.0969317 L42.696604,27.2376827 C40.5340222,28.9193234 37.9520224,29.8064516 35.2258065,29.8064516 Z" id="Path" fill="#3F89E8"></path>
                        <path d="M35.2258065,13.5483871 C35.9733492,13.5483871 36.5806452,14.155683 36.5806452,14.9032258 L39.2903226,14.9032258 C39.2903226,13.139554 38.1537928,11.649099 36.5806452,11.0881111 L36.5806452,9.48387097 L33.8709677,9.48387097 L33.8709677,11.0881111 C32.2978201,11.649099 31.1612903,13.139554 31.1612903,14.9032258 C31.1612903,17.1438697 32.9851625,18.9677419 35.2258065,18.9677419 C35.9733492,18.9677419 36.5806452,19.5750379 36.5806452,20.3225806 C36.5806452,21.0701234 35.9733492,21.6774194 35.2258065,21.6774194 C34.4782637,21.6774194 33.8709677,21.0701234 33.8709677,20.3225806 L31.1612903,20.3225806 C31.1612903,22.0862524 32.2978201,23.5767075 33.8709677,24.1376954 L33.8709677,25.7419355 L36.5806452,25.7419355 L36.5806452,24.1376954 C38.1537928,23.5767075 39.2903226,22.0862524 39.2903226,20.3225806 C39.2903226,18.0819367 37.4664504,16.2580645 35.2258065,16.2580645 C34.4782637,16.2580645 33.8709677,15.6507686 33.8709677,14.9032258 C33.8709677,14.155683 34.4782637,13.5483871 35.2258065,13.5483871 Z" id="Path" fill="#3F89E8"></path>
                        <path d="M35.2258065,5.41935484 C32.4995905,5.41935484 29.9175907,6.30648307 27.7550089,7.98812378 L29.4174647,10.1288748 C31.1004284,8.81968246 33.1095325,8.12903226 35.2258065,8.12903226 C40.4539756,8.12903226 44.7096774,12.3847341 44.7096774,17.6129032 C44.7096774,19.7291772 44.0190272,21.7382812 42.7098349,23.421245 L44.8505859,25.0837008 C46.5322266,22.921119 47.4193548,20.3391192 47.4193548,17.6129032 C47.4193548,10.8889869 41.9497228,5.41935484 35.2258065,5.41935484 Z" id="Path" fill="#3F89E8"></path>
                    </g>
                </g>
            </g>
        </g>
    </g>
</svg>