<?xml version="1.0" encoding="UTF-8"?>
<svg width="34px" height="34px" viewBox="0 0 34 34" version="1.1" xmlns="http://www.w3.org/2000/svg" xmlns:xlink="http://www.w3.org/1999/xlink">
    <!-- Generator: Sketch 58 (84663) - https://sketch.com -->
    <title>delete</title>
    <desc>Created with Sketch.</desc>
    <g id="designs" stroke="none" stroke-width="1" fill="none" fill-rule="evenodd">
        <g id="15-EstateFunder-settings" transform="translate(-483.000000, -342.000000)">
            <g id="delete" transform="translate(483.000000, 342.000000)">
                <circle id="Oval" fill="#FF4E4E" cx="17" cy="17" r="17"></circle>
                <path d="M12.7573593,11.3431458 L16.9992525,15.5852525 L21.2426407,11.3431458 C21.633165,10.9526215 22.26633,10.9526215 22.6568542,11.3431458 C23.0473785,11.73367 23.0473785,12.366835 22.6568542,12.7573593 L18.4142525,16.9992525 L22.6568542,21.2426407 C23.0473785,21.633165 23.0473785,22.26633 22.6568542,22.6568542 C22.26633,23.0473785 21.633165,23.0473785 21.2426407,22.6568542 L16.9992525,18.4142525 L12.7573593,22.6568542 C12.366835,23.0473785 11.73367,23.0473785 11.3431458,22.6568542 C10.9526215,22.26633 10.9526215,21.633165 11.3431458,21.2426407 L15.5852525,16.9992525 L11.3431458,12.7573593 C10.9526215,12.366835 10.9526215,11.73367 11.3431458,11.3431458 C11.73367,10.9526215 12.366835,10.9526215 12.7573593,11.3431458 Z" fill="#FFFFFF"></path>
            </g>
        </g>
    </g>
</svg>