<?xml version="1.0" encoding="UTF-8"?>
<svg width="86px" height="84px" viewBox="0 0 86 84" version="1.1" xmlns="http://www.w3.org/2000/svg" xmlns:xlink="http://www.w3.org/1999/xlink">
    <!-- Generator: Sketch 58 (84663) - https://sketch.com -->
    <title>diversification</title>
    <desc>Created with Sketch.</desc>
    <g id="designs" stroke="none" stroke-width="1" fill="none" fill-rule="evenodd">
        <g id="02-EstateFunder-aternative-v5" transform="translate(-678.000000, -3951.000000)">
            <g id="benefits" transform="translate(196.000000, 3747.000000)">
                <g id="access" transform="translate(344.000000, 159.000000)">
                    <g id="diversification" transform="translate(138.000000, 45.000000)">
                        <circle id="Oval" fill="#A1D2FF" cx="5.5" cy="47.5" r="3.5"></circle>
                        <circle id="Oval" fill="#A1D2FF" cx="15.5" cy="19.5" r="3.5"></circle>
                        <circle id="Oval" fill="#A1D2FF" cx="5.5" cy="5.5" r="3.5"></circle>
                        <circle id="Oval" fill="#A1D2FF" cx="28.5" cy="11.5" r="3.5"></circle>
                        <circle id="Oval" fill="#A1D2FF" cx="42.5" cy="5.5" r="3.5"></circle>
                        <circle id="Oval" fill="#A1D2FF" cx="58.5" cy="9.5" r="3.5"></circle>
                        <circle id="Oval" fill="#A1D2FF" cx="75.5" cy="5.5" r="3.5"></circle>
                        <circle id="Oval" fill="#A1D2FF" cx="79.5" cy="43.5" r="3.5"></circle>
                        <polygon id="Rectangle" fill="#A1D2FF" points="17 63 67 63 71 75 13 75"></polygon>
                        <path d="M75.6,0 C78.6884,0 81.2,2.5116 81.2,5.6 C81.2,8.12126875 79.51825,10.2391803 77.2239094,10.9380331 L77,11.0012 L77,28 C77,28.32585 76.8874531,28.6388375 76.682993,28.8873785 L76.5898,28.9898 L60.2,45.3796 L60.2,49.8204 L67.6102,42.4102 C67.839275,42.1799 68.1412375,42.0385656 68.4616898,42.0068305 L68.6,42 L74.3988,42 C75.0246,39.5906 77.1988,37.8 79.8,37.8 C82.8884,37.8 85.4,40.3116 85.4,43.4 C85.4,46.4884 82.8884,49 79.8,49 C77.2800875,49 75.1609045,47.3195639 74.4619709,45.0240326 L74.3988,44.8 L69.1796,44.8 L60.2,53.7796 L60.2,56 L71.8424,56 C74.0903172,56 76.0759068,57.3064181 76.971277,59.3496849 L77.063,59.5714 L83.5968,76.3714 C84.266,78.0934 84.0434,80.0352 82.999,81.5612 C82.0020727,83.0191727 80.3813674,83.9158727 78.6275916,83.9943786 L78.3762,84 L5.6252,84 C3.7744,84 2.0468,83.0886 1.0024,81.5612 C0.00773333333,80.1078667 -0.242806349,78.2773905 0.314877702,76.6188266 L0.4046,76.3714 L6.9384,59.5714 C7.75348966,57.4762276 9.68967134,56.0975622 11.9177933,56.0049731 L12.1576,56 L23.8,56 L23.8,52.3796 L14.8204,43.4 L11.7796,43.4 L10.4062,44.7734 C10.899,45.6064 11.2,46.564 11.2,47.6 C11.2,50.6884 8.6884,53.2 5.6,53.2 C2.5116,53.2 -7.10542736e-15,50.6884 -7.10542736e-15,47.6 C-7.10542736e-15,44.5116 2.5116,42 5.6,42 C6.5324,42 7.401296,42.24381 8.1730082,42.6518232 L8.4266,42.7938 L10.2102,41.0102 C10.439275,40.7799 10.7412375,40.6385656 11.0616898,40.6068305 L11.2,40.6 L12.0204,40.6 L4.6102,33.1898 C4.3799,32.960725 4.23856562,32.6598344 4.20683047,32.3387121 L4.2,32.2 L4.2,11.0012 C1.792,10.3754 -7.10542736e-15,8.2026 -7.10542736e-15,5.6 C-7.10542736e-15,2.5116 2.5116,0 5.6,0 C8.6884,0 11.2,2.5116 11.2,5.6 C11.2,8.12126875 9.51825,10.2391803 7.22390942,10.9380331 L7,11.0012 L7,31.6204 L26.1898,50.8102 C26.4201,51.039275 26.5614344,51.3401656 26.5931695,51.6612879 L26.6,51.8 L26.6,56 L32.2,56 L32.2,49.5796 L14.4102,31.7898 C14.1799,31.560725 14.0385656,31.2598344 14.0068305,30.9387121 L14,30.8 L14,25.0012 C11.592,24.3754 9.8,22.2026 9.8,19.6 C9.8,16.5116 12.3116,14 15.4,14 C18.4884,14 21,16.5116 21,19.6 C21,22.1212687 19.31825,24.2391803 17.0239094,24.9380331 L16.8,25.0012 L16.8,30.2204 L19.6,33.0204 L26.6,26.0204 L26.6,16.6012 C24.192,15.9754 22.4,13.8026 22.4,11.2 C22.4,8.1116 24.9116,5.6 28,5.6 C31.0884,5.6 33.6,8.1116 33.6,11.2 C33.6,13.7212688 31.91825,15.8391803 29.6239094,16.5380331 L29.4,16.6012 L29.4,26.6 C29.4,26.92585 29.2874531,27.2388375 29.082993,27.4873785 L28.9898,27.5898 L21.5796,35 L34.5898,48.0102 C34.8201,48.239275 34.9614344,48.5401656 34.9931695,48.8612879 L35,49 L35,56 L40.6,56 L40.6,43.9796 L34.0102,37.3898 C33.7799,37.160725 33.6385656,36.8598344 33.6068305,36.5387121 L33.6,36.4 L33.6,25.2 L36.4,25.2 L36.4,35.8204 L40.6,40.0204 L40.6,11.0012 C38.192,10.3754 36.4,8.2026 36.4,5.6 C36.4,2.5116 38.9116,0 42,0 C45.0884,0 47.6,2.5116 47.6,5.6 C47.6,8.12126875 45.91825,10.2391803 43.6239094,10.9380331 L43.4,11.0012 L43.4,56 L49,56 L49,32.2 C49,31.87415 49.1125469,31.5611625 49.317007,31.3126215 L49.4102,31.2102 L57.4,23.2204 L57.4,15.2012 C54.992,14.5754 53.2,12.4026 53.2,9.8 C53.2,6.7116 55.7116,4.2 58.8,4.2 C61.8884,4.2 64.4,6.7116 64.4,9.8 C64.4,12.3212687 62.71825,14.4391803 60.4239094,15.1380331 L60.2,15.2012 L60.2,23.8 C60.2,24.12585 60.0874531,24.4388375 59.882993,24.6873785 L59.7898,24.7898 L51.8,32.7796 L51.8,56 L57.4,56 L57.4,44.8 C57.4,44.47415 57.5125469,44.1611625 57.717007,43.9126215 L57.8102,43.8102 L61.0204,40.6 L57.8102,37.3898 C57.5799,37.160725 57.4385656,36.8598344 57.4068305,36.5387121 L57.4,36.4 L57.4,30.8 L60.2,30.8 L60.2,35.8204 L63,38.6204 L70.8204,30.8 L66.2102,26.1898 C65.9799,25.960725 65.8385656,25.6598344 65.8068305,25.3387121 L65.8,25.2 L65.8,18.2 L68.6,18.2 L68.6,24.6204 L72.8,28.8204 L74.2,27.4204 L74.2,11.0012 C71.792,10.3754 70,8.2026 70,5.6 C70,2.5116 72.5116,0 75.6,0 Z M23.8,58.8 L12.1576,58.8 C11.0588333,58.8 10.0849432,59.4256315 9.6239488,60.4079936 L9.548,60.585 L3.0142,77.385 C2.674,78.26 2.7832,79.205 3.3138,79.9806 C3.8065,80.7008 4.56839286,81.1349071 5.42573622,81.193248 L5.6252,81.2 L78.3748,81.2 C79.3142,81.2 80.157,80.7562 80.6876,79.9806 C81.1803,79.2604 81.3084429,78.3941357 81.051852,77.5734842 L80.9858,77.385 L74.452,60.585 C74.0526889,59.5616 73.1176574,58.879113 72.0349247,58.8064397 L71.8424,58.8 L60.2,58.8 L60.2,61.6 L67.2,61.6 C67.7569846,61.6 68.2543243,61.9280473 68.4783982,62.4288816 L68.5286,62.5576 L72.7286,75.1576 C72.87,75.5832 72.7986,76.0536 72.5354,76.419 C72.3014444,76.7438 71.9413852,76.9502395 71.5486324,76.9921051 L71.4,77 L12.6,77 C12.1506,77 11.7278,76.783 11.4646,76.419 C11.2306444,76.0954444 11.1471284,75.6878198 11.2317506,75.3013353 L11.2714,75.1576 L15.4714,62.5576 C15.6484462,62.0290462 16.1165598,61.6603408 16.6621201,61.6067445 L16.8,61.6 L23.8,61.6 L23.8,58.8 Z M23.8,64.4 L17.808,64.4 L14.5418,74.2 L69.4568,74.2 L66.1906,64.4 L60.2,64.4 L60.2,70 L57.4,70 L57.4,64.4 L51.8,64.4 L51.8,70 L49,70 L49,64.4 L43.4,64.4 L43.4,70 L40.6,70 L40.6,64.4 L35,64.4 L35,70 L32.2,70 L32.2,64.4 L26.6,64.4 L26.6,70 L23.8,70 L23.8,64.4 Z M57.4,58.8 L51.8,58.8 L51.8,61.6 L57.4,61.6 L57.4,58.8 Z M49,58.8 L43.4,58.8 L43.4,61.6 L49,61.6 L49,58.8 Z M40.6,58.8 L35,58.8 L35,61.6 L40.6,61.6 L40.6,58.8 Z M32.2,58.8 L26.6,58.8 L26.6,61.6 L32.2,61.6 L32.2,58.8 Z M5.6,44.8 C4.0558,44.8 2.8,46.0558 2.8,47.6 C2.8,49.1442 4.0558,50.4 5.6,50.4 C7.1442,50.4 8.4,49.1442 8.4,47.6 C8.4,46.0558 7.1442,44.8 5.6,44.8 Z M79.8,40.6 C78.2558,40.6 77,41.8558 77,43.4 C77,44.9442 78.2558,46.2 79.8,46.2 C81.3442,46.2 82.6,44.9442 82.6,43.4 C82.6,41.8558 81.3442,40.6 79.8,40.6 Z M15.4,16.8 C13.8558,16.8 12.6,18.0558 12.6,19.6 C12.6,21.1442 13.8558,22.4 15.4,22.4 C16.9442,22.4 18.2,21.1442 18.2,19.6 C18.2,18.0558 16.9442,16.8 15.4,16.8 Z M36.4,16.8 L36.4,22.4 L33.6,22.4 L33.6,16.8 L36.4,16.8 Z M68.6,12.6 L68.6,15.4 L65.8,15.4 L65.8,12.6 L68.6,12.6 Z M28,8.4 C26.4558,8.4 25.2,9.6558 25.2,11.2 C25.2,12.7442 26.4558,14 28,14 C29.5442,14 30.8,12.7442 30.8,11.2 C30.8,9.6558 29.5442,8.4 28,8.4 Z M58.8,7 C57.2558,7 56,8.2558 56,9.8 C56,11.3442 57.2558,12.6 58.8,12.6 C60.3442,12.6 61.6,11.3442 61.6,9.8 C61.6,8.2558 60.3442,7 58.8,7 Z M42,2.8 C40.4558,2.8 39.2,4.0558 39.2,5.6 C39.2,7.1442 40.4558,8.4 42,8.4 C43.5442,8.4 44.8,7.1442 44.8,5.6 C44.8,4.0558 43.5442,2.8 42,2.8 Z M5.6,2.8 C4.0558,2.8 2.8,4.0558 2.8,5.6 C2.8,7.1442 4.0558,8.4 5.6,8.4 C7.1442,8.4 8.4,7.1442 8.4,5.6 C8.4,4.0558 7.1442,2.8 5.6,2.8 Z M75.6,2.8 C74.0558,2.8 72.8,4.0558 72.8,5.6 C72.8,7.1442 74.0558,8.4 75.6,8.4 C77.1442,8.4 78.4,7.1442 78.4,5.6 C78.4,4.0558 77.1442,2.8 75.6,2.8 Z" id="Combined-Shape" fill="#3F89E8" fill-rule="nonzero"></path>
                    </g>
                </g>
            </g>
        </g>
    </g>
</svg>