<?xml version="1.0" encoding="UTF-8"?>
<svg width="28px" height="32px" viewBox="0 0 28 32" version="1.1" xmlns="http://www.w3.org/2000/svg" xmlns:xlink="http://www.w3.org/1999/xlink">
    <!-- Generator: Sketch 58 (84663) - https://sketch.com -->
    <title>doc</title>
    <desc>Created with Sketch.</desc>
    <g id="designs" stroke="none" stroke-width="1" fill="none" fill-rule="evenodd">
        <g id="06-EstateFunder-investments" transform="translate(-940.000000, -4281.000000)" fill-rule="nonzero">
            <g id="doc" transform="translate(940.000000, 4281.000000)">
                <path d="M2.0292129,0 L18.9819871,0 L27.9676903,8.9508129 L27.9676903,29.9290839 C27.9676903,31.0314323 27.0738581,31.9243355 25.9724387,31.9243355 L2.0292129,31.9243355 C0.927793548,31.9243355 0.0339612903,31.0314323 0.0339612903,29.9290839 L0.0339612903,1.99525161 C0.0339612903,0.892903226 0.927896774,0 2.0292129,0 Z" id="Path" fill="#3F89E8"></path>
                <path d="M27.9388903,8.97868387 L20.9843613,8.97868387 C19.8829419,8.97868387 18.9891097,8.08485161 18.9891097,6.98343226 L18.9891097,0.0199225806 L27.9388903,8.97868387 Z" id="Path" fill="#2262B5"></path>
                <path d="M6.30224486,14.2734375 L7.72570817,14.2734375 C8.09598213,14.2734375 8.4135302,14.3098955 8.67836191,14.3828125 C8.94319362,14.4557295 9.18350027,14.5924469 9.39928907,14.7929688 C9.96083037,15.303388 10.2415968,16.0794219 10.2415968,17.1210938 C10.2415968,17.4648455 10.2133976,17.7786444 10.1569982,18.0625 C10.1005989,18.3463556 10.013549,18.6022124 9.89584604,18.8300781 C9.77814305,19.0579438 9.62733837,19.2617179 9.44342746,19.4414062 C9.29875088,19.5794278 9.14058987,19.6901037 8.96893969,19.7734375 C8.79728951,19.8567713 8.61276834,19.9153644 8.41537063,19.9492188 C8.21797292,19.9830731 7.99544406,20 7.74777737,20 L6.32431406,20 C6.12569028,20 5.97611165,19.9680993 5.87557368,19.9042969 C5.77503572,19.8404945 5.70944182,19.7506516 5.67879,19.6347656 C5.64813818,19.5188796 5.6328125,19.3684905 5.6328125,19.1835938 L5.6328125,14.984375 C5.6328125,14.7343737 5.68553284,14.553386 5.79097509,14.4414062 C5.89641734,14.3294265 6.0668389,14.2734375 6.30224486,14.2734375 Z M6.72523783,15.1914062 L6.72523783,19.078125 L7.55283278,19.078125 C7.73429154,19.078125 7.87651385,19.0729167 7.97950395,19.0625 C8.08249406,19.0520833 8.18916079,19.0260419 8.29950733,18.984375 C8.40985388,18.9427081 8.50548612,18.884115 8.58640692,18.8085938 C8.95177659,18.4804671 9.13445868,17.9153686 9.13445868,17.1132812 C9.13445868,16.5481743 9.05415212,16.1250014 8.8935366,15.84375 C8.73292107,15.5624986 8.5349133,15.3834639 8.29950733,15.3066406 C8.06410137,15.2298173 7.77965677,15.1914062 7.44616499,15.1914062 L6.72523783,15.1914062 Z M13.5740458,14.1757812 C14.133135,14.1757812 14.6131352,14.2962228 15.014061,14.5371094 C15.4149868,14.777996 15.7184352,15.1204405 15.9244155,15.5644531 C16.1303946,16.0084658 16.2333842,16.5299449 16.2333842,17.1289062 C16.2333842,17.5716168 16.1769857,17.9739565 16.0641871,18.3359375 C15.9513884,18.6979185 15.7821929,19.0117174 15.5565955,19.2773438 C15.3309981,19.5429701 15.0539098,19.746093 14.7253223,19.8867188 C14.3967348,20.0273445 14.0203362,20.0976562 13.596115,20.0976562 C13.174346,20.0976562 12.7967213,20.0253913 12.4632295,19.8808594 C12.1297377,19.7363274 11.8514234,19.5325534 11.6282781,19.2695312 C11.4051329,19.0065091 11.2365504,18.690106 11.1225257,18.3203125 C11.0085009,17.950519 10.9514894,17.5507834 10.9514894,17.1210938 C10.9514894,16.6809874 11.010953,16.2773456 11.1298821,15.9101562 C11.2488111,15.5429669 11.4210717,15.23047 11.6466691,14.9726562 C11.8722665,14.7148425 12.1469027,14.5175788 12.4705859,14.3808594 C12.7942691,14.2441399 13.1620854,14.1757812 13.5740458,14.1757812 Z M15.1262461,17.1210938 C15.1262461,16.7018208 15.0624913,16.3385432 14.9349797,16.03125 C14.8074682,15.7239568 14.6253991,15.4915372 14.3887671,15.3339844 C14.152135,15.1764315 13.880564,15.0976562 13.5740458,15.0976562 C13.3558049,15.0976562 13.1541189,15.1412756 12.9689819,15.2285156 C12.783845,15.3157556 12.6244579,15.4427075 12.490816,15.609375 C12.357174,15.7760425 12.2517334,15.988931 12.1744908,16.2480469 C12.0972482,16.5071628 12.0586275,16.7981755 12.0586275,17.1210938 C12.0586275,17.4466162 12.0972482,17.7408841 12.1744908,18.0039062 C12.2517334,18.2669284 12.3608522,18.4850252 12.5018506,18.6582031 C12.6428489,18.8313811 12.8046881,18.9609371 12.9873729,19.046875 C13.1700578,19.1328129 13.3705177,19.1757812 13.5887586,19.1757812 C13.8683032,19.1757812 14.1251616,19.1015632 14.3593415,18.953125 C14.5935213,18.8046868 14.7798816,18.5755224 14.9184278,18.265625 C15.056974,17.9557276 15.1262461,17.574221 15.1262461,17.1210938 Z M21.7617185,18.1914062 C21.7617185,18.3736988 21.7194196,18.5709625 21.6348206,18.7832031 C21.5502216,18.9954438 21.4171947,19.203775 21.2357359,19.4082031 C21.0542772,19.6126312 20.8225529,19.7786452 20.5405562,19.90625 C20.2585594,20.0338548 19.9299769,20.0976562 19.5547986,20.0976562 C19.2703498,20.0976562 19.0116523,20.0690107 18.7786985,20.0117188 C18.5457447,19.9544268 18.3342503,19.865235 18.144209,19.7441406 C17.9541678,19.6230463 17.779455,19.4635427 17.6200656,19.265625 C17.4778411,19.0859366 17.3564617,18.8847667 17.2559238,18.6621094 C17.1553858,18.439452 17.0799835,18.2018242 17.0297145,17.9492188 C16.9794455,17.6966133 16.9543114,17.4283868 16.9543114,17.1445312 C16.9543114,16.6835914 17.0174532,16.2708352 17.1437387,15.90625 C17.2700242,15.5416648 17.4508672,15.229819 17.6862732,14.9707031 C17.9216791,14.7115872 18.1975413,14.5143236 18.5138681,14.3789062 C18.8301949,14.2434889 19.1673598,14.1757812 19.525373,14.1757812 C19.9618549,14.1757812 20.3505141,14.2682282 20.6913624,14.453125 C21.0322106,14.6380218 21.2933602,14.8665351 21.4748189,15.1386719 C21.6562777,15.4108087 21.7470057,15.6679675 21.7470057,15.9101562 C21.7470057,16.0429694 21.7028677,16.1601557 21.6145905,16.2617188 C21.5263133,16.3632818 21.4196465,16.4140625 21.2945871,16.4140625 C21.1548148,16.4140625 21.0499872,16.3789066 20.980101,16.3085938 C20.9102149,16.2382809 20.8323605,16.1171884 20.7465354,15.9453125 C20.6043109,15.6614569 20.4369545,15.4492195 20.2444611,15.3085938 C20.0519677,15.167968 19.8147262,15.0976562 19.5327294,15.0976562 C19.0839868,15.0976562 18.726592,15.278644 18.4605342,15.640625 C18.1944764,16.002606 18.0614495,16.5169238 18.0614495,17.1835938 C18.0614495,17.6289085 18.1203001,17.9993475 18.2380031,18.2949219 C18.3557061,18.5904963 18.5224495,18.8111972 18.7382383,18.9570312 C18.9540271,19.1028653 19.2065943,19.1757812 19.4959474,19.1757812 C19.8098221,19.1757812 20.0752628,19.0930998 20.2922777,18.9277344 C20.5092926,18.762369 20.6729708,18.5195329 20.7833174,18.1992188 C20.8299081,18.0481763 20.8875327,17.9251307 20.9561927,17.8300781 C21.0248528,17.7350256 21.1351977,17.6875 21.2872307,17.6875 C21.4171944,17.6875 21.5287654,17.7356766 21.6219469,17.8320312 C21.7151284,17.9283859 21.7617185,18.0481764 21.7617185,18.1914062 Z" id="DOC" fill="#FFFFFF"></path>
            </g>
        </g>
    </g>
</svg>