<?xml version="1.0" encoding="UTF-8"?>
<svg width="24px" height="24px" viewBox="0 0 24 24" version="1.1" xmlns="http://www.w3.org/2000/svg" xmlns:xlink="http://www.w3.org/1999/xlink">
    <!-- Generator: Sketch 58 (84663) - https://sketch.com -->
    <title>done</title>
    <desc>Created with Sketch.</desc>
    <g id="designs" stroke="none" stroke-width="1" fill="none" fill-rule="evenodd">
        <g id="04-EstateFunder-edirect-investments-efund-tab" transform="translate(-179.000000, -6229.000000)" fill="#3F89E8" fill-rule="nonzero">
            <g id="item1-copy-3" transform="translate(140.000000, 5791.000000)">
                <path d="M50.9642925,447.698234 L54.8904599,452.33825 C55.2472039,452.759857 55.8781818,452.812438 56.2997884,452.455694 C56.721395,452.09895 56.7739765,451.467972 56.4172324,451.046365 L51.7633863,445.546365 C51.3762741,445.088869 50.6764474,445.072275 50.2680867,445.51091 L42.0170659,454.37362 C41.907274,454.160784 41.8209278,453.978376 41.7583428,453.827446 C41.2598642,452.625314 41,451.331633 41,450 C41,444.477153 45.4771525,440 51,440 C56.5228475,440 61,444.477153 61,450 C61,455.522847 56.5228475,460 51,460 C50.4477153,460 50,460.447715 50,461 C50,461.552285 50.4477153,462 51,462 C57.627417,462 63,456.627417 63,450 C63,443.372583 57.627417,438 51,438 C44.372583,438 39,443.372583 39,450 C39,451.595694 39.3121341,453.149591 39.9108769,454.59352 C40.1124781,455.079702 40.45949,455.732395 40.9569216,456.568274 C41.2979639,457.141358 42.0937662,457.226377 42.5481798,456.738275 L50.9642925,447.698234 Z" id="done" transform="translate(51.000000, 450.000000) rotate(-180.000000) translate(-51.000000, -450.000000) "></path>
            </g>
        </g>
    </g>
</svg>