<?xml version="1.0" encoding="UTF-8"?>
<svg width="92px" height="91px" viewBox="0 0 92 91" version="1.1" xmlns="http://www.w3.org/2000/svg" xmlns:xlink="http://www.w3.org/1999/xlink">
    <!-- Generator: Sketch 58 (84663) - https://sketch.com -->
    <title>fast_safe</title>
    <desc>Created with Sketch.</desc>
    <g id="designs" stroke="none" stroke-width="1" fill="none" fill-rule="evenodd">
        <g id="04-EstateFunder-edirect-investments-efund-tab" transform="translate(-1018.000000, -2530.000000)" fill-rule="nonzero">
            <g id="key-benefits" transform="translate(84.000000, 830.000000)">
                <g id="Group-7" transform="translate(56.000000, 1476.000000)">
                    <g id="access" transform="translate(788.000000, 224.000000)">
                        <g id="fast_safe" transform="translate(90.000000, 0.000000)">
                            <path d="M45.9677419,44.0322581 C56.4885161,44.0322581 65.0483871,35.4723871 65.0483871,24.9516129 C65.0483871,14.4308387 56.4885161,5.87096774 45.9677419,5.87096774 C35.4469677,5.87096774 26.8870968,14.4308387 26.8870968,24.9516129 C26.8870968,35.4723871 35.4469677,44.0322581 45.9677419,44.0322581 Z M45.9677419,8.80645161 C54.8695968,8.80645161 62.1129032,16.0497581 62.1129032,24.9516129 C62.1129032,33.8534677 54.8695968,41.0967742 45.9677419,41.0967742 C37.0658871,41.0967742 29.8225806,33.8534677 29.8225806,24.9516129 C29.8225806,16.0497581 37.0658871,8.80645161 45.9677419,8.80645161 Z" id="Shape" fill="#A1D2FF"></path>
                            <path d="M45.9677419,32.2903226 C44.3488226,32.2903226 43.0322581,30.9737581 43.0322581,29.3548387 L40.0967742,29.3548387 C40.0967742,32.083371 41.9740161,34.3613065 44.5,35.0173871 L44.5,38.1612903 L47.4354839,38.1612903 L47.4354839,35.2258065 L51.8387097,35.2258065 L51.8387097,29.3548387 C51.8387097,26.117 49.2055806,23.483871 45.9677419,23.483871 C44.3488226,23.483871 43.0322581,22.1673065 43.0322581,20.5483871 L43.0322581,17.6129032 L45.9677419,17.6129032 C47.5866613,17.6129032 48.9032258,18.9294677 48.9032258,20.5483871 L51.8387097,20.5483871 C51.8387097,17.8198548 49.9614677,15.5419194 47.4354839,14.8858387 L47.4354839,11.7419355 L44.5,11.7419355 L44.5,14.6774194 L40.0967742,14.6774194 L40.0967742,20.5483871 C40.0967742,23.7862258 42.7299032,26.4193548 45.9677419,26.4193548 C47.5866613,26.4193548 48.9032258,27.7359194 48.9032258,29.3548387 L48.9032258,32.2903226 L45.9677419,32.2903226 Z" id="Path" fill="#FFFFFF"></path>
                            <polygon id="Path" fill="#A1D2FF" points="56.2419355 23.483871 59.1774194 23.483871 59.1774194 26.4193548 56.2419355 26.4193548"></polygon>
                            <polygon id="Path" fill="#A1D2FF" points="32.7580645 23.483871 35.6935484 23.483871 35.6935484 26.4193548 32.7580645 26.4193548"></polygon>
                            <path d="M76.7903226,42.2606935 L76.7903226,22.016129 L85.9974677,22.016129 L66.516129,0.764693548 L61.9147581,5.78290323 C57.5878548,2.17519355 52.0280484,0 45.9677419,0 C39.9074355,0 34.347629,2.17519355 30.0207258,5.78143548 L25.4193548,0.764693548 L5.93801613,22.016129 L15.1451613,22.016129 L15.1451613,42.2606935 L0.0670483871,58.7096774 L9.27419355,58.7096774 L9.27419355,73.3870968 L12.2096774,73.3870968 L12.2096774,55.7741935 L6.73940323,55.7741935 L19.5483871,41.7998226 L29.6655323,52.8387097 L21.016129,52.8387097 L21.016129,54.3064516 C21.016129,61.5908548 26.9414032,67.516129 34.2258065,67.516129 L44.5,67.516129 L44.5,70.4809677 C37.134871,70.7803871 29.8225806,73.3195806 29.8225806,77.7903226 L29.8225806,83.6612903 C29.8225806,88.4285161 38.1402742,91 45.9677419,91 C53.7952097,91 62.1129032,88.4285161 62.1129032,83.6612903 L62.1129032,77.7903226 C62.1129032,73.3195806 54.8006129,70.7803871 47.4354839,70.4809677 L47.4354839,67.516129 L57.7096774,67.516129 C64.9940806,67.516129 70.9193548,61.5908548 70.9193548,54.3064516 L70.9193548,52.8387097 L62.2699516,52.8387097 L72.3870968,41.7998226 L85.1960806,55.7741935 L79.7258065,55.7741935 L79.7258065,73.3870968 L82.6612903,73.3870968 L82.6612903,58.7096774 L91.8684355,58.7096774 L76.7903226,42.2606935 Z M32.7580645,83.6612903 L32.7580645,82.1319032 C33.6005484,82.6632258 34.5971452,83.122629 35.6935484,83.5159839 L35.6935484,86.268 C33.8089677,85.4416613 32.7580645,84.4700161 32.7580645,83.6612903 L32.7580645,83.6612903 Z M47.4354839,85.0996774 C49.4462903,85.0174839 51.4512258,84.7665 53.3064516,84.357 L53.3064516,87.2367097 C51.6405645,87.6476774 49.6723226,87.9441613 47.4354839,88.0351613 L47.4354839,85.0996774 Z M44.5,88.0351613 C42.2631613,87.9441613 40.2949194,87.6491452 38.6290323,87.2367097 L38.6290323,84.357 C40.4842581,84.7665 42.4891935,85.0174839 44.5,85.0996774 L44.5,88.0351613 Z M56.2419355,86.268 L56.2419355,83.5159839 C57.3383387,83.122629 58.3349355,82.6632258 59.1774194,82.1319032 L59.1774194,83.6612903 C59.1774194,84.4700161 58.1265161,85.4416613 56.2419355,86.268 L56.2419355,86.268 Z M59.1774194,77.7903226 C59.1774194,79.5868387 54.0315161,82.1935484 45.9677419,82.1935484 C37.9039677,82.1935484 32.7580645,79.5868387 32.7580645,77.7903226 C32.7580645,76.1053548 37.2845806,73.7085323 44.5,73.4164516 L44.5,79.2580645 L47.4354839,79.2580645 L47.4354839,73.4164516 C54.6509032,73.7085323 59.1774194,76.1053548 59.1774194,77.7903226 Z M67.983871,24.9516129 C67.983871,37.0913065 58.1074355,46.9677419 45.9677419,46.9677419 C33.8280484,46.9677419 23.9516129,37.0913065 23.9516129,24.9516129 C23.9516129,12.8119194 33.8280484,2.93548387 45.9677419,2.93548387 C58.1074355,2.93548387 67.983871,12.8119194 67.983871,24.9516129 Z M34.2258065,64.5806452 C29.0578871,64.5806452 24.7706129,60.7469032 24.0558226,55.7741935 L34.2258065,55.7741935 C39.3937258,55.7741935 43.681,59.6079355 44.3957903,64.5806452 L34.2258065,64.5806452 Z M34.2258065,52.8387097 L33.6475161,52.8387097 L19.5483871,37.4582419 L18.0806452,39.0595484 L18.0806452,19.0806452 L12.610371,19.0806452 L25.4193548,5.10627419 L27.8895645,7.80251613 C23.6419194,12.279129 21.016129,18.3086129 21.016129,24.9516129 C21.016129,38.214129 31.4253548,49.0622097 44.5,49.828371 L44.5,57.7629839 C42.0767581,54.7643871 38.3736452,52.8387097 34.2258065,52.8387097 Z M57.7096774,64.5806452 L47.5396935,64.5806452 C48.2530161,59.6079355 52.5417581,55.7741935 57.7096774,55.7741935 L67.8796613,55.7741935 C67.164871,60.7469032 62.8775968,64.5806452 57.7096774,64.5806452 Z M58.2879677,52.8387097 L57.7096774,52.8387097 C53.5618387,52.8387097 49.8587258,54.7643871 47.4354839,57.7629839 L47.4354839,49.828371 C60.510129,49.0622097 70.9193548,38.214129 70.9193548,24.9516129 C70.9193548,18.3086129 68.2935645,12.279129 64.0459194,7.80251613 L66.516129,5.10627419 L79.3251129,19.0806452 L73.8548387,19.0806452 L73.8548387,39.0580806 L72.3870968,37.4567742 L58.2879677,52.8387097 Z" id="Shape" fill="#FFFFFF"></path>
                            <polygon id="Path" fill="#A1D2FF" points="79.7258065 76.3225806 82.6612903 76.3225806 82.6612903 79.2580645 79.7258065 79.2580645"></polygon>
                            <polygon id="Path" fill="#A1D2FF" points="79.7258065 82.1935484 82.6612903 82.1935484 82.6612903 85.1290323 79.7258065 85.1290323"></polygon>
                            <polygon id="Path" fill="#A1D2FF" points="79.7258065 88.0645161 82.6612903 88.0645161 82.6612903 91 79.7258065 91"></polygon>
                            <polygon id="Path" fill="#A1D2FF" points="65.0483871 73.3870968 67.983871 73.3870968 67.983871 76.3225806 65.0483871 76.3225806"></polygon>
                            <polygon id="Path" fill="#A1D2FF" points="65.0483871 79.2580645 67.983871 79.2580645 67.983871 82.1935484 65.0483871 82.1935484"></polygon>
                            <polygon id="Path" fill="#A1D2FF" points="65.0483871 85.1290323 67.983871 85.1290323 67.983871 88.0645161 65.0483871 88.0645161"></polygon>
                            <polygon id="Path" fill="#A1D2FF" points="9.27419355 76.3225806 12.2096774 76.3225806 12.2096774 79.2580645 9.27419355 79.2580645"></polygon>
                            <polygon id="Path" fill="#A1D2FF" points="9.27419355 82.1935484 12.2096774 82.1935484 12.2096774 85.1290323 9.27419355 85.1290323"></polygon>
                            <polygon id="Path" fill="#A1D2FF" points="9.27419355 88.0645161 12.2096774 88.0645161 12.2096774 91 9.27419355 91"></polygon>
                            <polygon id="Path" fill="#A1D2FF" points="23.9516129 73.3870968 26.8870968 73.3870968 26.8870968 76.3225806 23.9516129 76.3225806"></polygon>
                            <polygon id="Path" fill="#A1D2FF" points="23.9516129 79.2580645 26.8870968 79.2580645 26.8870968 82.1935484 23.9516129 82.1935484"></polygon>
                            <polygon id="Path" fill="#A1D2FF" points="23.9516129 85.1290323 26.8870968 85.1290323 26.8870968 88.0645161 23.9516129 88.0645161"></polygon>
                        </g>
                    </g>
                </g>
            </g>
        </g>
    </g>
</svg>