<?xml version="1.0" encoding="UTF-8"?>
<svg width="84px" height="84px" viewBox="0 0 84 84" version="1.1" xmlns="http://www.w3.org/2000/svg" xmlns:xlink="http://www.w3.org/1999/xlink">
    <!-- Generator: Sketch 58 (84663) - https://sketch.com -->
    <title>fixed return</title>
    <desc>Created with Sketch.</desc>
    <g id="designs" stroke="none" stroke-width="1" fill="none" fill-rule="evenodd">
        <g id="04-EstateFunder-edirect-investments-efund-tab" transform="translate(-334.000000, -2535.000000)" fill-rule="nonzero">
            <g id="key-benefits" transform="translate(84.000000, 830.000000)">
                <g id="Group-7" transform="translate(56.000000, 1476.000000)">
                    <g id="access" transform="translate(100.000000, 229.000000)">
                        <g id="fixed-return" transform="translate(94.000000, 0.000000)">
                            <path d="M76.8818664,11.5766602 C77.4003297,11.1280518 77.5849,10.4051514 77.3458557,9.76300041 C77.1061707,9.12084961 76.4934998,8.6953125 75.8084106,8.6953125 L68.2903748,8.6953125 C61.3023377,3.24279785 51.5258789,0 42,0 C32.0947266,0 22.0414123,3.52157597 14.8021545,9.4752502 L12.4258117,7.47573848 C11.9470824,7.07327266 11.2805785,6.97714237 10.7082824,7.22964473 C10.1353455,7.48214726 9.75595097,8.03842167 9.7303162,8.66326912 L9.47653202,14.7983094 C3.53503418,21.9754028 -2.84217094e-14,32.0947266 -2.84217094e-14,42 C-2.84217094e-14,50.6997986 2.74676522,59.7257996 7.40139766,66.481842 L5.71398926,67.8795777 C5.22051994,68.2878113 5.01031486,68.9466248 5.17630001,69.5657043 C5.34164433,70.1854248 5.85241699,70.6513367 6.48367305,70.7596436 L11.6881715,71.6530152 C19.3138732,79.4171447 30.7207031,84 42,84 C53.0133361,84 63.9138793,79.7170715 71.4697266,72.4855041 L74.3183899,74.5151367 C74.8342895,74.8823547 75.5219422,74.9227295 76.0807801,74.6048584 C76.6351318,74.2895508 76.9574891,73.681366 76.9055785,73.0456238 L76.3948059,66.7766418 C81.1647949,60.0411072 84,50.8324586 84,42 C84,31.7704469 80.2643738,21.4844971 73.9415588,14.1215516 L76.8818664,11.5766602 Z M13.7556152,12.8827515 C14.3798219,13.4076233 15.2956238,13.394165 15.9038086,12.8513488 C22.6181945,6.85858162 32.3735047,3.28125 42,3.28125 C49.1745301,3.28125 56.4868469,5.25769043 62.4251404,8.6953125 L58.6228637,8.6953125 C58.1242676,8.6953125 57.6525879,8.92218009 57.3411254,9.3111877 C57.0303039,9.70083614 56.912384,10.2103271 57.0226135,10.6967469 L57.6724549,13.5812988 C53.0505066,11.2075195 47.4416199,9.84375 42,9.84375 C34.1096191,9.84375 26.3454895,12.7385559 21.4345094,16.7785949 C20.6020203,17.4598389 20.6282959,18.7326051 21.5306396,19.4202576 L22.6246033,20.2546691 L12.4514465,22.2484131 L12.870575,12.1380615 L13.7556152,12.8827515 Z M66.8202209,57.4475098 L58.3793336,60.5858459 C57.8012695,60.8011779 57.3923949,61.3215637 57.3212586,61.9342346 C57.2501221,62.5462646 57.5282594,63.1474 58.0409547,63.4889832 L60.1731262,64.90979 C55.2877808,68.6242676 48.5208435,70.875 42,70.875 C35.1670531,70.875 28.013031,68.3974 23.1443481,64.3765869 L22.6816406,56.8098449 C22.6425476,56.1625672 22.2253418,55.599884 21.6177979,55.3730164 C21.0102539,55.1467895 20.3264465,55.2986756 19.8727111,55.761383 L17.5976258,58.0826111 C14.8111267,53.6099854 13.125,47.6287537 13.125,42 C13.125,35.7085877 15.2315369,29.0204773 18.649292,24.3773805 L26.8363953,22.7726441 C27.4702148,22.6483154 27.9720154,22.1638184 28.1187744,21.5351258 C28.2648926,20.9057922 28.0290527,20.2495422 27.5157166,19.8579711 L25.2079469,18.0981445 C25.2733154,18.0462342 25.3290711,18.0013733 25.3809814,17.9597168 C30.0080566,14.9316101 36.2142334,13.125 42,13.125 C47.886383,13.125 54.2040711,14.9687805 58.660675,17.9622803 L60.448059,25.8904725 C60.5787965,26.4710998 61.0133057,26.9350891 61.5843201,27.1029969 C62.1546936,27.2715453 62.7718506,27.1177367 63.1967469,26.7018127 L65.4346619,24.5093994 C68.8190918,29.2486267 70.875,35.780365 70.875,42 C70.875,47.4031678 69.3292236,53.2626344 66.8202209,57.4475098 Z M10.9370727,65.7736816 C6.1433715,59.4559937 3.28125,50.5690613 3.28125,42 C3.28125,34.5140076 5.45315548,26.9100953 9.22851562,20.7763367 L9.08752441,24.1902465 C9.04330448,25.2521668 10.0039672,26.0711975 11.0421754,25.8686828 L14.1856385,25.2521668 C11.4299012,30.1246949 9.84375,36.128357 9.84375,42 C9.84375,49.1065979 12.1669006,56.4490356 16.058258,61.6413574 C16.6638793,62.4488525 17.8430785,62.5193481 18.5422668,61.8054199 L19.6317443,60.6941528 L20.1880188,69.7823182 L10.5563965,68.1295166 L10.6775207,68.0289002 C11.3536377,67.4681396 11.4683533,66.4735107 10.9370727,65.7736816 Z M72.4489746,69.1542664 C71.7972107,68.5255738 70.7590027,68.543518 70.1296691,69.195282 C63.161499,76.4108277 52.6461182,80.71875 42,80.71875 C33.3706971,80.71875 24.5664367,77.7342225 17.8783264,72.7149353 L21.6741943,73.3666992 C22.7207336,73.5461426 23.6531982,72.7001953 23.5891113,71.6491699 L23.404541,68.6364441 C28.6468506,72.0920105 35.4656982,74.15625 42,74.15625 C50.0685426,74.15625 58.5049438,71.0204773 64.0177002,65.9717102 C64.3900451,65.6314086 64.5842285,65.1385803 64.5457764,64.6361389 C64.5066834,64.1330566 64.239441,63.676117 63.8196717,63.396698 L62.5360107,62.5411377 L72.4573059,58.8522949 L73.3487549,69.7951355 L72.4489746,69.1542664 Z M75.9455566,61.2581176 L75.5520629,56.4259644 C75.5104065,55.9132691 75.2309875,55.4505615 74.79776,55.1749879 C74.3638916,54.8987732 73.8262024,54.8417359 73.3449097,55.0211793 L71.350525,55.7626648 C73.1385498,51.5982971 74.15625,46.7097473 74.15625,42 C74.15625,34.4018555 71.3594971,26.3525391 66.8586731,20.9929504 C66.5645141,20.6430359 66.1383361,20.431549 65.6820373,20.4097596 C65.2270203,20.3873291 64.7803344,20.5565186 64.454132,20.8763123 L63.0019226,22.2990418 L60.6742859,11.9765625 L71.4056396,11.9765625 L70.5853271,12.6866455 C70.5609742,12.7077941 70.5385437,12.7308654 70.5154725,12.7532959 C70.5039367,12.7641906 70.4911193,12.7731629 70.4795838,12.7840576 C69.8214111,13.4063416 69.7919312,14.4451904 70.414215,15.1033631 C76.8664856,21.930542 80.71875,31.9851379 80.71875,42 C80.71875,48.6804199 78.9762268,55.5774535 75.9455566,61.2581176 Z" id="Shape" fill="#FFFFFF"></path>
                            <path d="M42,27.234375 C42.8779906,27.234375 43.5944824,26.543518 43.6387024,25.6757812 C43.640625,25.6495057 43.640625,25.6219482 43.640625,25.59375 C43.640625,24.6882019 42.9055481,23.953125 42,23.953125 C41.0944519,23.953125 40.359375,24.6882019 40.359375,25.59375 C40.359375,25.6219482 40.359375,25.6495057 40.3612976,25.6757812 C40.4055176,26.543518 41.1220094,27.234375 42,27.234375 L42,27.234375 Z" id="Path" fill="#FFFFFF"></path>
                            <path d="M60.0045777,40.7650412 C59.498291,33.9308166 55.419159,28.1886291 49.0918578,25.4046936 C48.2625732,25.0400391 47.2942199,25.4162293 46.9295654,26.2455139 C46.5642699,27.0747986 46.9411012,28.0431519 47.7703857,28.4078064 C52.9646301,30.6937867 56.3138123,35.3996887 56.731659,40.9983215 C57.289215,49.8576965 50.2358094,56.765625 42,56.765625 C33.9455566,56.765625 27.1209412,50.3171996 27.2375793,41.691742 C27.4151,35.7925414 30.8540039,30.7059631 36.2135926,28.4148559 C37.0467225,28.0585328 37.4331664,27.0946656 37.0774842,26.2615356 C36.7211609,25.4277649 35.7572937,25.0413207 34.923523,25.3976441 C28.3712769,28.198883 24.1690979,34.4101867 23.9569703,41.6071473 L23.9569703,41.632141 C23.805725,52.1776428 32.1972656,60.046875 42,60.046875 C52.0462646,60.046875 60.6941527,51.6207275 60.0058594,40.7817078 C60.0052185,40.7759399 60.0052185,40.7708129 60.0045777,40.7650412 Z" id="Path" fill="#A1D2FF"></path>
                            <path d="M42.1640625,43.5239867 C43.0689697,43.5239867 43.8046875,44.2603455 43.8046875,45.1646117 C43.8046875,46.0695191 43.0689697,46.8052367 42.1640625,46.8052367 C41.4629516,46.8052367 40.7060852,46.3643188 40.0338135,45.5645141 C39.4506226,44.8704529 38.4156189,44.7807312 37.7221984,45.3645629 C37.0281371,45.9471131 36.9390564,46.9821168 37.5222473,47.6755371 C38.3989563,48.7188721 39.4307557,49.4462586 40.5234375,49.8128357 L40.5234375,51.7271117 C40.5234375,52.6333008 41.2578735,53.3677367 42.1640625,53.3677367 C43.0702515,53.3677367 43.8046875,52.6333008 43.8046875,51.7271117 L43.8046875,49.8045043 C45.7144775,49.1271057 47.0859375,47.303833 47.0859375,45.1646117 C47.0859375,42.4511719 44.8781434,40.2427367 42.1640625,40.2427367 C41.2591553,40.2427367 40.5234375,39.5070191 40.5234375,38.6021117 C40.5234375,37.6978455 41.2591553,36.9614867 42.1640625,36.9614867 C42.7453309,36.9614867 43.3586426,37.2582092 43.9386291,37.8196106 C44.5897522,38.449585 45.6279602,38.4322815 46.2585754,37.7811584 C46.8885498,37.1300354 46.8712463,36.0911865 46.2201233,35.4612121 C45.3876344,34.6556396 44.5545043,34.1999816 43.8046875,33.9513244 L43.8046875,32.0396117 C43.8046875,31.1340637 43.0702515,30.3989867 42.1640625,30.3989867 C41.2578735,30.3989867 40.5234375,31.1340637 40.5234375,32.0396117 L40.5234375,33.9628601 C38.6136475,34.639618 37.2421875,36.4635315 37.2421875,38.6021117 C37.2421875,41.3161926 39.4499816,43.5239867 42.1640625,43.5239867 L42.1640625,43.5239867 Z" id="Path" fill="#FFFFFF"></path>
                        </g>
                    </g>
                </g>
            </g>
        </g>
    </g>
</svg>