<?xml version="1.0" encoding="UTF-8"?>
<svg width="84px" height="84px" viewBox="0 0 84 84" version="1.1" xmlns="http://www.w3.org/2000/svg" xmlns:xlink="http://www.w3.org/1999/xlink">
    <!-- Generator: Sketch 58 (84663) - https://sketch.com -->
    <title>grow</title>
    <desc>Created with Sketch.</desc>
    <g id="designs" stroke="none" stroke-width="1" fill="none" fill-rule="evenodd">
        <g id="03-EstateFunder-edirect-investments-edirect-tab" transform="translate(-334.000000, -2433.000000)" fill-rule="nonzero">
            <g id="key-benefits" transform="translate(86.000000, 830.000000)">
                <g id="Group-10" transform="translate(54.000000, 1344.000000)">
                    <g id="access" transform="translate(100.000000, 192.000000)">
                        <g id="grow" transform="translate(94.000000, 67.000000)">
                            <path d="M82.359375,34.2478828 L71.859375,34.2478828 C70.9532578,34.2478828 70.21875,34.9825547 70.21875,35.8885078 L70.21875,44.1736641 C70.21875,45.0796172 70.9532578,45.8142891 71.859375,45.8142891 C72.7654922,45.8142891 73.5,45.0796172 73.5,44.1736641 L73.5,37.5291328 L80.71875,37.5291328 L80.71875,80.71875 L77.109375,80.71875 L73.5,80.71875 L73.5,56.4783516 C73.5,55.5723984 72.7654922,54.8377266 71.859375,54.8377266 C70.9532578,54.8377266 70.21875,55.5723984 70.21875,56.4783516 L70.21875,80.71875 L66.9375,80.71875 L66.9375,46.7578125 C66.9375,45.8518594 66.2029922,45.1171875 65.296875,45.1171875 L54.796875,45.1171875 C53.8907578,45.1171875 53.15625,45.8518594 53.15625,46.7578125 L53.15625,80.71875 L49.875,80.71875 L49.875,58.2421875 C49.875,57.3362344 49.1404922,56.6015625 48.234375,56.6015625 L37.734375,56.6015625 C36.8282578,56.6015625 36.09375,57.3362344 36.09375,58.2421875 L36.09375,80.71875 L32.8125,80.71875 L32.8125,67.6552734 C32.8125,66.7493203 32.0779922,66.0146484 31.171875,66.0146484 L20.671875,66.0146484 C19.7657578,66.0146484 19.03125,66.7493203 19.03125,67.6552734 L19.03125,80.71875 L4.921875,80.71875 C4.01723438,80.71875 3.28125,79.9827656 3.28125,79.078125 L3.28125,4.921875 C3.28125,4.01723438 4.01723438,3.28125 4.921875,3.28125 L47.2458984,3.28125 L47.2458984,14.1098672 C47.2458984,16.8237891 49.4538516,19.0317422 52.1677734,19.0317422 L62.9958984,19.0317422 L62.9958984,39.2109375 C62.9958984,40.1168906 63.7304063,40.8515625 64.6365234,40.8515625 C65.5426406,40.8515625 66.2771484,40.1168906 66.2771484,39.2109375 L66.2771484,17.3911172 C66.2771484,16.9560234 66.1042266,16.5388125 65.7966094,16.2310313 L50.0466094,0.480539063 C49.7388281,0.172921875 49.3216172,0 48.8865234,0 L4.921875,0 C2.20795312,0 0,2.20795312 0,4.921875 L0,79.078125 C0,81.7920469 2.20795312,84 4.921875,84 L82.359375,84 C83.2654922,84 84,83.2653281 84,82.359375 L84,35.8885078 C84,34.9825547 83.2654922,34.2478828 82.359375,34.2478828 Z M50.5271484,5.60158594 L60.6758906,15.7504922 L52.1677734,15.7504922 C51.2629688,15.7504922 50.5271484,15.0145078 50.5271484,14.1098672 L50.5271484,5.60158594 Z M29.53125,80.71875 L22.3125,80.71875 L22.3125,69.2958984 L29.53125,69.2958984 L29.53125,80.71875 Z M46.59375,80.71875 L39.375,80.71875 L39.375,59.8828125 L46.59375,59.8828125 L46.59375,80.71875 Z M63.65625,80.71875 L56.4375,80.71875 L56.4375,48.3984375 L63.65625,48.3984375 L63.65625,80.71875 Z" id="Shape" fill="#FFFFFF"></path>
                            <path d="M73.0192969,48.8610937 C72.7141406,48.5544609 72.2908594,48.3803906 71.859375,48.3803906 C71.4278906,48.3803906 71.0046094,48.5544609 70.6994531,48.8610937 C70.3942969,49.16625 70.21875,49.5895313 70.21875,50.0210156 C70.21875,50.4525 70.3942969,50.8757812 70.6994531,51.1809375 C71.0046094,51.4859297 71.4278906,51.6616406 71.859375,51.6616406 C72.2908594,51.6616406 72.7141406,51.4860937 73.0192969,51.1809375 C73.3244531,50.8757812 73.5,50.4525 73.5,50.0210156 C73.5,49.5895313 73.3244531,49.16625 73.0192969,48.8610937 Z" id="Path" fill="#A1D2FF"></path>
                            <path d="M23.8837266,8.97897656 C22.9776094,8.97897656 22.2431016,9.71364844 22.2431016,10.6196016 L22.2431016,13.5709219 C14.6911406,14.3907422 8.79407812,20.8055859 8.79407812,28.5719766 C8.79407812,36.8924063 15.5632969,43.661625 23.8837266,43.661625 C31.6501172,43.661625 38.0649609,37.7647266 38.8847813,30.2126016 L41.8359375,30.2126016 C42.7420547,30.2126016 43.4765625,29.4779297 43.4765625,28.5719766 C43.4765625,17.7682969 34.6872422,8.97897656 23.8837266,8.97897656 Z M23.8837266,40.3802109 C17.3725781,40.3802109 12.0753281,35.0829609 12.0753281,28.5718125 C12.0753281,22.6174922 16.5058359,17.6782266 22.2431016,16.8771094 L22.2431016,28.5718125 C22.2431016,29.4777656 22.9776094,30.2124375 23.8837266,30.2124375 L35.5784297,30.2124375 C34.7773125,35.9497031 29.8380469,40.3802109 23.8837266,40.3802109 Z M25.5243516,26.9313516 L25.5243516,26.9311875 L25.5243516,12.3420938 C33.2110078,13.1135156 39.3420234,19.2446953 40.1134453,26.9313516 L25.5243516,26.9313516 Z" id="Shape" fill="#FFFFFF"></path>
                            <path d="M41.8359375,48.2753906 L10.5,48.2753906 C9.59388281,48.2753906 8.859375,49.0100625 8.859375,49.9160156 C8.859375,50.8219687 9.59388281,51.5566406 10.5,51.5566406 L41.8359375,51.5566406 C42.7420547,51.5566406 43.4765625,50.8219687 43.4765625,49.9160156 C43.4765625,49.0100625 42.7420547,48.2753906 41.8359375,48.2753906 Z" id="Path" fill="#A1D2FF"></path>
                            <path d="M21,56.1914062 L10.5,56.1914062 C9.59388281,56.1914062 8.859375,56.9260781 8.859375,57.8320312 C8.859375,58.7379844 9.59388281,59.4726562 10.5,59.4726562 L21,59.4726562 C21.9061172,59.4726562 22.640625,58.7379844 22.640625,57.8320312 C22.640625,56.9260781 21.9061172,56.1914062 21,56.1914062 Z" id="Path" fill="#A1D2FF"></path>
                            <path d="M30.3761719,56.6721094 C30.0710156,56.3669531 29.6477344,56.1914062 29.21625,56.1914062 C28.783125,56.1914062 28.3614844,56.3667891 28.0563281,56.6721094 C27.7495313,56.9772656 27.575625,57.4005469 27.575625,57.8320312 C27.575625,58.2635156 27.7495313,58.6867969 28.0563281,58.9917891 C28.3614844,59.2969453 28.783125,59.4726562 29.21625,59.4726562 C29.6477344,59.4726562 30.0710156,59.2971094 30.3761719,58.9917891 C30.6813281,58.6867969 30.856875,58.2635156 30.856875,57.8320312 C30.856875,57.4005469 30.6813281,56.9772656 30.3761719,56.6721094 Z" id="Path" fill="#A1D2FF"></path>
                        </g>
                    </g>
                </g>
            </g>
        </g>
    </g>
</svg>