<?xml version="1.0" encoding="UTF-8"?>
<svg width="24px" height="24px" viewBox="0 0 24 24" version="1.1" xmlns="http://www.w3.org/2000/svg" xmlns:xlink="http://www.w3.org/1999/xlink">
    <!-- Generator: Sketch 58 (84663) - https://sketch.com -->
    <title>icon_bullet</title>
    <desc>Created with Sketch.</desc>
    <g id="designs" stroke="none" stroke-width="1" fill="none" fill-rule="evenodd">
        <g id="20-EstateFunder-perfomance" transform="translate(-1027.000000, -4335.000000)" fill="#3F89E8" fill-rule="nonzero">
            <g id="item1-copy-4" transform="translate(770.000000, 3919.000000)">
                <path d="M272.89046,430.33825 C273.247204,430.759857 273.878182,430.812438 274.299788,430.455694 C274.721395,430.09895 274.773976,429.467972 274.417232,429.046365 L269.763386,423.546365 C269.376274,423.088869 268.676447,423.072275 268.268087,423.51091 L260.017066,432.37362 C259.907274,432.160784 259.820928,431.978376 259.758343,431.827446 C259.259864,430.625314 259,429.331633 259,428 C259,422.477153 263.477153,418 269,418 C274.522847,418 279,422.477153 279,428 C279,433.522847 274.522847,438 269,438 C268.447715,438 268,438.447715 268,439 C268,439.552285 268.447715,440 269,440 C275.627417,440 281,434.627417 281,428 C281,421.372583 275.627417,416 269,416 C262.372583,416 257,421.372583 257,428 C257,429.595694 257.312134,431.149591 257.910877,432.59352 C258.112478,433.079702 258.45949,433.732395 258.956922,434.568274 C259.297964,435.141358 260.093766,435.226377 260.54818,434.738275 L268.964292,425.698234 L272.89046,430.33825 Z" id="icon_bullet" transform="translate(269.000000, 428.000000) rotate(-180.000000) translate(-269.000000, -428.000000) "></path>
            </g>
        </g>
    </g>
</svg>