<svg xmlns="http://www.w3.org/2000/svg" width="12" height="14" viewBox="0 0 12 14"><g><g clip-path="url(#clip-9A8C92F9-E311-4C30-B140-3A2D498C2140)"><path fill="#475871" d="M5 5.799c0-.534.448-.967 1-.967s1 .433 1 .967-.448.966-1 .966-1-.432-1-.966zm5.1-4.1c2.344 2.343 2.407 6.078.143 8.343l-4.1 4.1L1.898 9.9C-.444 7.556-.507 3.82 1.757 1.556c2.265-2.264 6-2.2 8.344.142zM8.829 8.626c1.51-1.51 1.468-4-.094-5.562-1.562-1.562-4.053-1.604-5.562-.094-1.51 1.51-1.468 4 .094 5.562l2.829 2.828z"/></g></g></svg>