<?xml version="1.0" encoding="UTF-8"?>
<svg width="19px" height="22px" viewBox="0 0 19 22" version="1.1" xmlns="http://www.w3.org/2000/svg" xmlns:xlink="http://www.w3.org/1999/xlink">
    <!-- Generator: Sketch 58 (84663) - https://sketch.com -->
    <title>icon_location2</title>
    <desc>Created with Sketch.</desc>
    <g id="designs" stroke="none" stroke-width="1" fill="none" fill-rule="evenodd">
        <g id="23-EstateFunder-term-of-use" transform="translate(-143.000000, -4604.000000)" fill-rule="nonzero">
            <g id="footer" transform="translate(0.000000, 4017.000000)">
                <g transform="translate(0.000000, 340.000000)" id="icon_location2">
                    <g transform="translate(139.142136, 243.142136)">
                        <path d="M13,4 C17.9705627,4 22,8.02943725 22,13 C22,17.9705627 17.9705627,22 13,22 L4,22 L4,13 C4,8.02943725 8.02943725,4 13,4 Z M13,20 C16.8659932,20 20,16.8659932 20,13 C20,9.13400675 16.8659932,6 13,6 C9.13400675,6 6,9.13400675 6,13 L6,20 L13,20 Z" id="Rectangle-Copy-7" fill="#3F89E8" transform="translate(13.000000, 13.000000) rotate(-45.000000) translate(-13.000000, -13.000000) "></path>
                        <path d="M12.8578644,15.8578644 C14.5147186,15.8578644 15.8578644,14.5147186 15.8578644,12.8578644 C15.8578644,11.2010101 14.5147186,9.85786438 12.8578644,9.85786438 C11.2010101,9.85786438 9.85786438,11.2010101 9.85786438,12.8578644 C9.85786438,14.5147186 11.2010101,15.8578644 12.8578644,15.8578644 Z M12.8578644,13.8578644 C12.3055796,13.8578644 11.8578644,13.4101491 11.8578644,12.8578644 C11.8578644,12.3055796 12.3055796,11.8578644 12.8578644,11.8578644 C13.4101491,11.8578644 13.8578644,12.3055796 13.8578644,12.8578644 C13.8578644,13.4101491 13.4101491,13.8578644 12.8578644,13.8578644 Z" id="Oval" fill="#FFFFFF"></path>
                    </g>
                </g>
            </g>
        </g>
    </g>
</svg>