<?xml version="1.0" encoding="UTF-8"?>
<svg width="36px" height="36px" viewBox="0 0 36 36" version="1.1" xmlns="http://www.w3.org/2000/svg" xmlns:xlink="http://www.w3.org/1999/xlink">
    <!-- Generator: Sketch 58 (84663) - https://sketch.com -->
    <title>icon_direct</title>
    <desc>Created with Sketch.</desc>
    <g id="designs" stroke="none" stroke-width="1" fill="none" fill-rule="evenodd">
        <g id="20-EstateFunder-perfomance" transform="translate(-582.000000, -4121.000000)">
            <g id="item1-copy-3" transform="translate(140.000000, 3919.000000)">
                <g id="Group-15" transform="translate(420.000000, 180.000000)">
                    <g id="icon_direct" transform="translate(22.000000, 22.000000)">
                        <polygon id="Path" fill="#A1D2FF" points="29.4322045 20.6456383 11.4661805 20.6456383 11.4661805 10.5656383 29.4322045 10.5656383 34.5061805 15.6058061"></polygon>
                        <path d="M35.3055682,14.1269139 L29.8183986,8.63947189 C29.5568193,8.37789265 29.2017801,8.23102679 28.8317544,8.23102679 L24.7396742,8.23102679 L24.7396742,4.13867404 C24.7396742,3.36837765 24.1148813,2.74358475 23.3445849,2.74358475 L19.2522321,2.74358475 L19.2522321,1.39508929 C19.2522321,0.624520438 18.6277117,0 17.8571429,0 C17.086574,0 16.4620536,0.624520438 16.4620536,1.39508929 L16.4620536,2.74358475 L6.88253132,2.74358475 C6.51250565,2.74358475 6.15746638,2.89072307 5.89588714,3.15230232 L0.408717564,8.63974435 C-0.136239188,9.18442864 -0.136239188,10.0678035 0.408717564,10.6124878 L5.89588714,16.0999298 C6.15746638,16.3615091 6.51250565,16.5086474 6.88253132,16.5086474 L10.9748841,16.5086474 L10.9748841,20.6010001 C10.9748841,21.3712965 11.5994044,21.9960894 12.3699734,21.9960894 L16.4620536,21.9960894 L16.4620536,32.9241071 L9.62611607,32.9241071 C8.85554722,32.9241071 8.23102679,33.5486276 8.23102679,34.3191964 C8.23102679,35.0897653 8.85554722,35.7142857 9.62611607,35.7142857 L26.0881696,35.7142857 C26.8587385,35.7142857 27.4832589,35.0897653 27.4832589,34.3191964 C27.4832589,33.5486276 26.8587385,32.9241071 26.0881696,32.9241071 L19.2522321,32.9241071 L19.2522321,21.9958169 L28.8317544,21.9958169 C29.2017801,21.9958169 29.5568193,21.848951 29.8183986,21.5873718 L35.3055682,16.0999298 C35.8505249,15.5552455 35.8505249,14.6718707 35.3055682,14.1269139 Z M7.46045794,13.7184688 L3.36810519,9.62611607 L7.46045794,5.53376332 L21.9494956,5.53376332 L21.9494956,8.23102679 L12.3697008,8.23102679 C11.5994044,8.23102679 10.9746115,8.85554722 10.9746115,9.62611607 L10.9746115,13.7184688 L7.46045794,13.7184688 Z M28.2541002,19.2056383 L13.7647901,19.2056383 L13.7647901,11.0212054 L28.2541002,11.0212054 L32.3461805,15.1135581 L28.2541002,19.2056383 Z" id="Shape" fill="#3F89E8" fill-rule="nonzero"></path>
                    </g>
                </g>
            </g>
        </g>
    </g>
</svg>