<?xml version="1.0" encoding="UTF-8"?>
<svg width="44px" height="30px" viewBox="0 0 44 30" version="1.1" xmlns="http://www.w3.org/2000/svg" xmlns:xlink="http://www.w3.org/1999/xlink">
    <!-- Generator: Sketch 58 (84663) - https://sketch.com -->
    <title>icon_invest</title>
    <desc>Created with Sketch.</desc>
    <g id="designs" stroke="none" stroke-width="1" fill="none" fill-rule="evenodd">
        <g id="20-EstateFunder-perfomance" transform="translate(-1208.000000, -4124.000000)" fill-rule="nonzero">
            <g id="item1-copy-4" transform="translate(770.000000, 3919.000000)">
                <g id="Group-16" transform="translate(420.000000, 180.000000)">
                    <g id="icon_invest" transform="translate(18.000000, 25.000000)">
                        <path d="M42.5806452,7.22269169 C42.5806452,3.97634802 39.9470766,1.34432675 36.6980847,1.34432675 C33.4494392,1.34432675 30.8155242,3.97634802 30.8155242,7.22269169 C30.8155242,10.4693807 33.4494392,13.1010566 36.6980847,13.1010566 C39.9470766,13.1010566 42.5806452,10.4693807 42.5806452,7.22269169 Z" id="Path" fill="#A1D2FF"></path>
                        <path d="M8.34009577,23.0262191 C9.65791963,23.0275959 10.8873803,22.3656194 11.6084929,21.2661238 C12.3292591,20.1666282 12.4439579,18.7784459 11.9134325,17.5763906 L16.8021673,12.7042851 C17.7998047,13.1428402 18.936051,13.1428402 19.9333417,12.7042851 L23.0069934,15.7665737 C22.2869204,17.39717 22.7703188,19.3071293 24.1810106,20.4021357 C25.5913558,21.4967969 27.5679183,21.4967969 28.9782636,20.4021357 C30.3886089,19.3071293 30.8723538,17.39717 30.1519342,15.7665737 L32.6451613,13.284421 C34.8857736,14.7813787 37.7726499,14.9236501 40.1504852,13.6542576 C42.5286668,12.384865 44.0093561,9.91099989 44.0000441,7.22269169 C43.9975743,3.74740152 41.5369204,0.755212621 38.1174395,0.0707903679 L38.1174395,2.99426086 C40.1913747,3.68766136 41.4554876,5.77649582 41.1030746,7.92783308 C40.7506616,10.0791703 38.8856792,11.6586592 36.6980847,11.6586592 C34.5108367,11.6586592 32.6458543,10.0791703 32.2934413,7.92783308 C31.9410282,5.77649582 33.2047946,3.68766136 35.2787298,2.99426086 L35.2787298,0.0707903679 C32.8814894,0.549057215 30.8820565,2.18863162 29.9495653,4.44080202 C29.0174206,6.69331772 29.2752331,9.26076424 30.6367188,11.2843335 L28.1452243,13.7664862 C27.1479335,13.3282765 26.0113407,13.3282765 25.0140499,13.7664862 L21.9403982,10.7045429 C22.6604712,9.0736014 22.1770729,7.16398742 20.7667275,6.06898102 C19.3560357,4.97397452 17.3794732,4.97397452 15.969128,6.06898102 C14.5587828,7.16398742 14.0750378,9.0736014 14.7954574,10.7045429 L9.90637601,15.576303 C8.45132936,14.9381536 6.75302419,15.2430703 5.61331277,16.3477456 C4.47325477,17.4520757 4.11945565,19.1351604 4.71859247,20.6024208 C5.31772929,22.0700264 6.75025202,23.0286318 8.34009577,23.0262191 Z M26.5796371,16.265905 C27.1673387,16.265905 27.6441532,16.7407186 27.6441532,17.3267249 C27.6441532,17.9127312 27.1673387,18.3875448 26.5796371,18.3875448 C25.991589,18.3875448 25.515121,17.9127312 25.515121,17.3267249 C25.515121,16.7407186 25.991589,16.265905 26.5796371,16.265905 Z M18.3677546,8.08288128 C18.9558027,8.08288128 19.4322707,8.55769489 19.4322707,9.14370117 C19.4322707,9.72936215 18.9558027,10.2045211 18.3677546,10.2045211 C17.780053,10.2045211 17.3032385,9.72936215 17.3032385,9.14370117 C17.3032385,8.55769489 17.780053,8.08288128 18.3677546,8.08288128 Z M8.34009577,18.0757217 C8.92814388,18.0757217 9.4046119,18.5505354 9.4046119,19.1365416 C9.4046119,19.7225479 8.92814388,20.1973615 8.34009577,20.1973615 C7.75204765,20.1973615 7.27557964,19.7225479 7.27557964,19.1365416 C7.27557964,18.5505354 7.75204765,18.0757217 8.34009577,18.0757217 Z" id="Shape" fill="#3F89E8"></path>
                        <path d="M1.41935484,0 C0.635466807,1.43997895e-16 1.26046008e-16,0.635466807 0,1.41935484 L0,29.702957 L0,29.702957 L42.5788397,29.702957 C43.3637249,29.702957 44,29.0666819 44,28.2817967 C44,27.4969116 43.3637249,26.8606365 42.5788397,26.8606365 L2.83870968,26.8606365 L2.83870968,26.8606365 L2.83870968,1.41935484 C2.83870968,0.635466807 2.20324287,-1.43997895e-16 1.41935484,0 Z" id="Path" fill="#3F89E8"></path>
                    </g>
                </g>
            </g>
        </g>
    </g>
</svg>