<?xml version="1.0" encoding="UTF-8"?>
<svg width="18px" height="18px" viewBox="0 0 18 18" version="1.1" xmlns="http://www.w3.org/2000/svg" xmlns:xlink="http://www.w3.org/1999/xlink">
    <!-- Generator: Sketch 58 (84663) - https://sketch.com -->
    <title>instagram</title>
    <desc>Created with Sketch.</desc>
    <g id="designs" stroke="none" stroke-width="1" fill="none" fill-rule="evenodd">
        <g id="01-EstateFunder-home-page" transform="translate(-641.000000, -6497.000000)" fill="#6B7C95" fill-rule="nonzero">
            <g id="Group-6" transform="translate(0.000000, 4795.000000)">
                <g id="footer" transform="translate(0.000000, 1356.000000)">
                    <g id="social-links" transform="translate(641.000000, 346.000000)">
                        <path d="M5.36229706,-2.27373675e-13 L12.6377029,-2.27373675e-13 C15.5205346,-2.27373675e-13 17.8793782,2.28674174 17.9955186,5.14160094 L18,5.36229706 L18,12.6377029 C18,15.5205664 15.7132583,17.8793798 12.8583991,17.9955186 L12.6377029,18 L5.36229706,18 C2.47943357,18 0.120620243,15.7132583 0.00448136617,12.8583991 L-2.27373675e-13,12.6377029 L-2.27373675e-13,5.36229706 C-2.27373675e-13,2.47943357 2.28674174,0.120620243 5.14160094,0.00448136617 L5.36229706,-2.27373675e-13 L12.6377029,-2.27373675e-13 Z M12.6377029,1.81079933 L5.36229706,1.81079933 C3.46414711,1.81079933 1.9137713,3.2999139 1.81572224,5.17367926 L1.81079933,5.36229706 L1.81079933,12.6377029 C1.81079933,14.5358529 3.2999445,16.0862287 5.17368222,16.1842778 L5.36229706,16.1892007 L12.6377029,16.1892007 C14.5358529,16.1892007 16.0862287,14.7000555 16.1842778,12.8263178 L16.1892007,12.6377029 L16.1892007,5.36229706 C16.1892007,3.40084278 14.5991246,1.81079933 12.6377029,1.81079933 Z M9,4.3445595 C11.567014,4.3445595 13.6554405,6.43295332 13.6554405,8.99996733 C13.6554405,11.5669813 11.567014,13.6554078 9,13.6554078 C6.43298599,13.6554078 4.3445595,11.5669487 4.3445595,8.99996733 C4.3445595,6.43298599 6.43298599,4.3445595 9,4.3445595 Z M9,6.15535883 C7.42896809,6.15535883 6.15535883,7.42893542 6.15535883,9 C6.15535883,10.5710646 7.42893542,11.8446412 9,11.8446412 C10.5710319,11.8446412 11.8446412,10.5710319 11.8446412,9 C11.8446412,7.42893542 10.5710646,6.15535883 9,6.15535883 Z M13.6644563,3.26397282 C14.2805515,3.26397282 14.7799954,3.76341671 14.7799954,4.37951197 C14.7799954,4.99560723 14.2805515,5.49505112 13.6644563,5.49505112 C13.048361,5.49505112 12.5489171,4.99560723 12.5489171,4.37951197 C12.5489171,3.76341671 13.048361,3.26397282 13.6644563,3.26397282 Z" id="instagram"></path>
                    </g>
                </g>
            </g>
        </g>
    </g>
</svg>