<?xml version="1.0" encoding="UTF-8"?>
<svg width="19px" height="18px" viewBox="0 0 19 18" version="1.1" xmlns="http://www.w3.org/2000/svg" xmlns:xlink="http://www.w3.org/1999/xlink">
    <!-- Generator: Sketch 58 (84663) - https://sketch.com -->
    <title>linkedin</title>
    <desc>Created with Sketch.</desc>
    <g id="designs" stroke="none" stroke-width="1" fill="none" fill-rule="evenodd">
        <g id="01-EstateFunder-home-page" transform="translate(-681.000000, -6497.000000)" fill="#6B7C95" fill-rule="nonzero">
            <g id="Group-6" transform="translate(0.000000, 4795.000000)">
                <g id="footer" transform="translate(0.000000, 1356.000000)">
                    <g id="social-links" transform="translate(641.000000, 346.000000)">
                        <path d="M58.5,10.5447976 L58.5,17.20055 L54.6411716,17.20055 L54.6411716,10.990855 C54.6411716,9.43166848 54.0840315,8.36688623 52.6868645,8.36688623 C51.6206433,8.36688623 50.9872418,9.08374368 50.7075206,9.7778666 C50.6059346,10.0259321 50.5797468,10.3704035 50.5797468,10.7183283 L50.5797468,17.2002622 L46.7206306,17.2002622 C46.7206306,17.2002622 46.7724308,6.68309139 46.7206306,5.59442348 L50.5800345,5.59442348 L50.5800345,7.23908039 C50.5722645,7.25203044 50.5613289,7.26469272 50.5544222,7.27706721 L50.5800345,7.27706721 L50.5800345,7.23908039 C51.0928567,6.44999041 52.0074183,5.32189678 54.0578436,5.32189678 C56.5966298,5.32189678 58.5,6.98065486 58.5,10.5447976 L58.5,10.5447976 Z M42.6836669,-1.91846539e-13 C41.3636247,-1.91846539e-13 40.5,0.866502526 40.5,2.00495619 C40.5,3.11923643 41.338588,4.01077572 42.6330178,4.01077572 L42.6580546,4.01077572 C44.0039969,4.01077572 44.8408582,3.11923643 44.8408582,2.00495619 C44.8152459,0.866502526 44.0039969,-1.91846539e-13 42.6836669,-1.91846539e-13 L42.6836669,-1.91846539e-13 Z M40.7293599,17.20055 L44.5870372,17.20055 L44.5870372,5.59442348 L40.7293599,5.59442348 L40.7293599,17.20055 Z" id="linkedin"></path>
                    </g>
                </g>
            </g>
        </g>
    </g>
</svg>