<?xml version="1.0" encoding="UTF-8"?>
<svg width="156px" height="31px" viewBox="0 0 156 31" version="1.1" xmlns="http://www.w3.org/2000/svg" xmlns:xlink="http://www.w3.org/1999/xlink">
    <!-- Generator: Sketch 61.2 (89653) - https://sketch.com -->
    <title>realinvest_logo</title>
    <desc>Created with Sketch.</desc>
    <g id="designs" stroke="none" stroke-width="1" fill="none" fill-rule="evenodd">
        <g id="Artboard" transform="translate(-104.000000, -241.000000)" fill-rule="nonzero">
            <g id="realinvest_logo" transform="translate(104.000000, 241.000000)">
                <path d="M58.885,23 L58.885,16.385 L61.111,16.385 L64.891,23 L67.411,23 L63.253,16.175 C64.317,15.993 65.185,15.566 65.857,14.894 C66.529,14.222 66.865,13.34 66.865,12.248 C66.865,11.492 66.725,10.8515 66.445,10.3265 C66.165,9.8015 65.7835,9.378 65.3005,9.056 C64.8175,8.734 64.254,8.4995 63.61,8.3525 C62.966,8.2055 62.287,8.132 61.573,8.132 L61.573,8.132 L56.806,8.132 L56.806,23 L58.885,23 Z M61.279,14.642 L58.885,14.642 L58.885,9.896 L61.426,9.896 C61.874,9.896 62.301,9.9345 62.707,10.0115 C63.113,10.0885 63.4665,10.218 63.7675,10.4 C64.0685,10.582 64.31,10.8235 64.492,11.1245 C64.674,11.4255 64.765,11.8 64.765,12.248 C64.765,12.696 64.674,13.0705 64.492,13.3715 C64.31,13.6725 64.0615,13.9175 63.7465,14.1065 C63.4315,14.2955 63.064,14.432 62.644,14.516 C62.224,14.6 61.769,14.642 61.279,14.642 L61.279,14.642 Z M73.6949412,23.273 C74.5769412,23.273 75.3784412,23.1085 76.0994412,22.7795 C76.8204412,22.4505 77.4469412,21.936 77.9789412,21.236 L77.9789412,21.236 L76.5929412,20.123 C76.3129412,20.543 75.9279412,20.9 75.4379412,21.194 C74.9479412,21.488 74.3669412,21.635 73.6949412,21.635 C73.2609412,21.635 72.8514412,21.558 72.4664412,21.404 C72.0814412,21.25 71.7419412,21.0365 71.4479412,20.7635 C71.1539412,20.4905 70.9194412,20.1685 70.7444412,19.7975 C70.5694412,19.4265 70.4749412,19.031 70.4609412,18.611 L70.4609412,18.611 L78.3569412,18.611 C78.3709412,18.499 78.3779412,18.387 78.3779412,18.275 L78.3779412,18.275 L78.3779412,17.939 C78.3779412,17.141 78.2659412,16.4235 78.0419412,15.7865 C77.8179412,15.1495 77.4994412,14.607 77.0864412,14.159 C76.6734412,13.711 76.1694412,13.368 75.5744412,13.13 C74.9794412,12.892 74.3179412,12.773 73.5899412,12.773 C72.8619412,12.773 72.1829412,12.9025 71.5529412,13.1615 C70.9229412,13.4205 70.3769412,13.781 69.9149412,14.243 C69.4529412,14.705 69.0924412,15.2615 68.8334412,15.9125 C68.5744412,16.5635 68.4449412,17.274 68.4449412,18.044 C68.4449412,18.828 68.5779412,19.542 68.8439412,20.186 C69.1099412,20.83 69.4739412,21.3795 69.9359412,21.8345 C70.3979412,22.2895 70.9509412,22.643 71.5949412,22.895 C72.2389412,23.147 72.9389412,23.273 73.6949412,23.273 Z M76.3829412,17.141 L70.4609412,17.141 C70.4889412,16.749 70.5904412,16.3815 70.7654412,16.0385 C70.9404412,15.6955 71.1644412,15.398 71.4374412,15.146 C71.7104412,14.894 72.0324412,14.6945 72.4034412,14.5475 C72.7744412,14.4005 73.1699412,14.327 73.5899412,14.327 C74.0519412,14.327 74.4544412,14.4005 74.7974412,14.5475 C75.1404412,14.6945 75.4274412,14.894 75.6584412,15.146 C75.8894412,15.398 76.0644412,15.6955 76.1834412,16.0385 C76.3024412,16.3815 76.3689412,16.749 76.3829412,17.141 L76.3829412,17.141 Z M83.6328824,23.252 C84.3888824,23.252 85.0433824,23.105 85.5963824,22.811 C86.1493824,22.517 86.6078824,22.104 86.9718824,21.572 L86.9718824,21.572 L87.0348824,21.572 C87.0348824,22.048 87.0908824,22.524 87.2028824,23 L87.2028824,23 L88.9878824,23 C88.9318824,22.762 88.8933824,22.4575 88.8723824,22.0865 C88.8513824,21.7155 88.8408824,21.362 88.8408824,21.026 L88.8408824,21.026 L88.8408824,16.679 C88.8408824,16.133 88.7568824,15.622 88.5888824,15.146 C88.4208824,14.67 88.1688824,14.257 87.8328824,13.907 C87.4968824,13.557 87.0663824,13.2805 86.5413824,13.0775 C86.0163824,12.8745 85.3968824,12.773 84.6828824,12.773 C83.8708824,12.773 83.1113824,12.906 82.4043824,13.172 C81.6973824,13.438 81.0988824,13.802 80.6088824,14.264 L80.6088824,14.264 L81.6588824,15.524 C81.9948824,15.188 82.4113824,14.9115 82.9083824,14.6945 C83.4053824,14.4775 83.9338824,14.369 84.4938824,14.369 C85.2358824,14.369 85.8308824,14.5475 86.2788824,14.9045 C86.7268824,15.2615 86.9508824,15.811 86.9508824,16.553 L86.9508824,16.553 L86.9508824,16.826 C86.1108824,16.826 85.2778824,16.861 84.4518824,16.931 C83.6258824,17.001 82.8838824,17.1515 82.2258824,17.3825 C81.5678824,17.6135 81.0358824,17.9495 80.6298824,18.3905 C80.2238824,18.8315 80.0208824,19.43 80.0208824,20.186 C80.0208824,20.76 80.1363824,21.243 80.3673824,21.635 C80.5983824,22.027 80.8888824,22.342 81.2388824,22.58 C81.5888824,22.818 81.9773824,22.9895 82.4043824,23.0945 C82.8313824,23.1995 83.2408824,23.252 83.6328824,23.252 Z M84.0738824,21.698 C83.8218824,21.698 83.5768824,21.6735 83.3388824,21.6245 C83.1008824,21.5755 82.8838824,21.488 82.6878824,21.362 C82.4918824,21.236 82.3343824,21.075 82.2153824,20.879 C82.0963824,20.683 82.0368824,20.438 82.0368824,20.144 C82.0368824,19.724 82.1768824,19.388 82.4568824,19.136 C82.7368824,18.884 83.0903824,18.695 83.5173824,18.569 C83.9443824,18.443 84.4203824,18.359 84.9453824,18.317 C85.4703824,18.275 85.9778824,18.254 86.4678824,18.254 L86.4678824,18.254 L86.9508824,18.254 L86.9508824,18.779 C86.9508824,19.619 86.7023824,20.3155 86.2053824,20.8685 C85.7083824,21.4215 84.9978824,21.698 84.0738824,21.698 Z M93.9068235,23 L93.9068235,7.124 L91.9328235,7.124 L91.9328235,23 L93.9068235,23 Z M100.547765,23 L100.547765,8.132 L96.9357647,8.132 L96.9357647,23 L100.547765,23 Z M106.642706,23 L106.642706,17.33 C106.642706,17.036 106.681206,16.7525 106.758206,16.4795 C106.835206,16.2065 106.950706,15.965 107.104706,15.755 C107.258706,15.545 107.451206,15.3805 107.682206,15.2615 C107.913206,15.1425 108.182706,15.083 108.490706,15.083 C108.798706,15.083 109.054206,15.1425 109.257206,15.2615 C109.460206,15.3805 109.617706,15.5415 109.729706,15.7445 C109.841706,15.9475 109.922206,16.182 109.971206,16.448 C110.020206,16.714 110.044706,16.994 110.044706,17.288 L110.044706,17.288 L110.044706,23 L113.509706,23 L113.509706,16.532 C113.509706,16.014 113.443206,15.496 113.310206,14.978 C113.177206,14.46 112.960206,14.0015 112.659206,13.6025 C112.358206,13.2035 111.962706,12.878 111.472706,12.626 C110.982706,12.374 110.387706,12.248 109.687706,12.248 C109.323706,12.248 108.980706,12.297 108.658706,12.395 C108.336706,12.493 108.039206,12.619 107.766206,12.773 C107.493206,12.927 107.255206,13.1125 107.052206,13.3295 C106.849206,13.5465 106.684706,13.767 106.558706,13.991 L106.558706,13.991 L106.516706,13.991 L106.516706,12.542 L103.177706,12.542 L103.177706,23 L106.642706,23 Z M122.334647,23 L126.450647,12.542 L122.775647,12.542 L120.570647,19.325 L120.507647,19.325 L118.302647,12.542 L114.501647,12.542 L118.617647,23 L122.334647,23 Z M132.755588,23.336 C133.819588,23.336 134.754088,23.1435 135.559088,22.7585 C136.364088,22.3735 137.011588,21.824 137.501588,21.11 L137.501588,21.11 L135.107588,19.598 C134.869588,19.92 134.561588,20.1825 134.183588,20.3855 C133.805588,20.5885 133.343588,20.69 132.797588,20.69 C132.489588,20.69 132.192088,20.641 131.905088,20.543 C131.618088,20.445 131.359088,20.3085 131.128088,20.1335 C130.897088,19.9585 130.708088,19.752 130.561088,19.514 C130.414088,19.276 130.326588,19.01 130.298588,18.716 L130.298588,18.716 L137.879588,18.716 C137.893588,18.59 137.900588,18.457 137.900588,18.317 L137.900588,18.317 L137.900588,17.897 C137.900588,17.001 137.771088,16.203 137.512088,15.503 C137.253088,14.803 136.892588,14.208 136.430588,13.718 C135.968588,13.228 135.415588,12.8535 134.771588,12.5945 C134.127588,12.3355 133.420588,12.206 132.650588,12.206 C131.852588,12.206 131.110588,12.339 130.424588,12.605 C129.738588,12.871 129.143588,13.2455 128.639588,13.7285 C128.135588,14.2115 127.736588,14.7995 127.442588,15.4925 C127.148588,16.1855 127.001588,16.959 127.001588,17.813 C127.001588,18.695 127.152088,19.479 127.453088,20.165 C127.754088,20.851 128.167088,21.4285 128.692088,21.8975 C129.217088,22.3665 129.829588,22.7235 130.529588,22.9685 C131.229588,23.2135 131.971588,23.336 132.755588,23.336 Z M134.729588,16.574 L130.298588,16.574 C130.312588,16.308 130.382588,16.0525 130.508588,15.8075 C130.634588,15.5625 130.802588,15.349 131.012588,15.167 C131.222588,14.985 131.467588,14.8415 131.747588,14.7365 C132.027588,14.6315 132.335588,14.579 132.671588,14.579 C133.357588,14.579 133.872088,14.775 134.215088,15.167 C134.558088,15.559 134.729588,16.028 134.729588,16.574 L134.729588,16.574 Z M143.239529,23.336 C143.771529,23.336 144.303529,23.273 144.835529,23.147 C145.367529,23.021 145.847029,22.818 146.274029,22.538 C146.701029,22.258 147.047529,21.8905 147.313529,21.4355 C147.579529,20.9805 147.712529,20.424 147.712529,19.766 C147.712529,19.262 147.614529,18.828 147.418529,18.464 C147.222529,18.1 146.963529,17.792 146.641529,17.54 C146.319529,17.288 145.959029,17.085 145.560029,16.931 C145.161029,16.777 144.765529,16.658 144.373529,16.574 C143.701529,16.42 143.215029,16.28 142.914029,16.154 C142.613029,16.028 142.462529,15.818 142.462529,15.524 C142.462529,15.216 142.599029,14.999 142.872029,14.873 C143.145029,14.747 143.442529,14.684 143.764529,14.684 C144.184529,14.684 144.583529,14.775 144.961529,14.957 C145.339529,15.139 145.668529,15.363 145.948529,15.629 L145.948529,15.629 L147.838529,13.676 C147.320529,13.186 146.687029,12.8185 145.938029,12.5735 C145.189029,12.3285 144.422529,12.206 143.638529,12.206 C143.134529,12.206 142.627029,12.2725 142.116029,12.4055 C141.605029,12.5385 141.139529,12.745 140.719529,13.025 C140.299529,13.305 139.956529,13.6655 139.690529,14.1065 C139.424529,14.5475 139.291529,15.083 139.291529,15.713 C139.291529,16.203 139.382529,16.623 139.564529,16.973 C139.746529,17.323 139.981029,17.617 140.268029,17.855 C140.555029,18.093 140.880529,18.282 141.244529,18.422 C141.608529,18.562 141.972529,18.674 142.336529,18.758 C143.050529,18.926 143.575529,19.087 143.911529,19.241 C144.247529,19.395 144.415529,19.633 144.415529,19.955 C144.415529,20.291 144.279029,20.5255 144.006029,20.6585 C143.733029,20.7915 143.456529,20.858 143.176529,20.858 C142.672529,20.858 142.196529,20.746 141.748529,20.522 C141.300529,20.298 140.922529,20.018 140.614529,19.682 L140.614529,19.682 L138.682529,21.719 C139.228529,22.251 139.911029,22.6535 140.730029,22.9265 C141.549029,23.1995 142.385529,23.336 143.239529,23.336 Z M153.555471,23.252 C153.919471,23.252 154.283471,23.2205 154.647471,23.1575 C155.011471,23.0945 155.312471,23.021 155.550471,22.937 L155.550471,22.937 L155.508471,20.417 C155.382471,20.473 155.224971,20.515 155.035971,20.543 C154.846971,20.571 154.668471,20.585 154.500471,20.585 C154.010471,20.585 153.670971,20.4625 153.481971,20.2175 C153.292971,19.9725 153.198471,19.605 153.198471,19.115 L153.198471,19.115 L153.198471,15.125 L155.655471,15.125 L155.655471,12.542 L153.198471,12.542 L153.198471,9.791 L149.817471,9.791 L149.817471,12.542 L148.158471,12.542 L148.158471,15.125 L149.838471,15.125 L149.838471,19.535 C149.838471,20.095 149.901471,20.6025 150.027471,21.0575 C150.153471,21.5125 150.359971,21.9045 150.646971,22.2335 C150.933971,22.5625 151.315471,22.8145 151.791471,22.9895 C152.267471,23.1645 152.855471,23.252 153.555471,23.252 Z" id="RealInvest" fill="#FFFFFF"></path>
                <path d="M32,0.543970133 L32,29 L34,29 L34,31 L30,31 L30,3.45602987 L19,7.6867991 L19,10.1666667 L23,8.5 L23,31 L17,31 L17,14.2729701 L19,13.5449701 L19,29 L21,29 L21,11.5 L19,12.3333333 L17,13.1669701 L17,13.1666667 L11,15.6666667 L11,18.1468305 L15,16.5104669 L15,31 L9,31 L9,22.1999701 L10.999,21.3999701 L11,29 L13,29 L12.999,19.5019701 L13,19.5 L12.999,19.4999701 L13,19.4895331 L11,20.3077149 L10.999,20.3239701 L9,21.1469701 L9,21.1258968 L4,23.1713513 L4,31 L0,31 L0,29 L2,29 L2,21.8286487 L9,18.9650123 L9,14.3333333 L17,11 L17,6.3132009 L32,0.543970133 Z" id="Combined-Shape" fill="#3F89E8"></path>
            </g>
        </g>
    </g>
</svg>