<?xml version="1.0" encoding="UTF-8"?>
<svg width="181px" height="31px" viewBox="0 0 181 31" version="1.1" xmlns="http://www.w3.org/2000/svg" xmlns:xlink="http://www.w3.org/1999/xlink">
    <!-- Generator: Sketch 58 (84663) - https://sketch.com -->
    <title>logo_footer</title>
    <desc>Created with Sketch.</desc>
    <g id="designs" stroke="none" stroke-width="1" fill="none" fill-rule="evenodd">
        <g id="04-EstateFunder-edirect-investments-efund-tab" transform="translate(-140.000000, -6957.000000)" fill-rule="nonzero">
            <g id="footer" transform="translate(0.000000, 6517.000000)">
                <g transform="translate(0.000000, 340.000000)" id="logo_footer">
                    <g transform="translate(140.000000, 100.000000)">
                        <path d="M32,0.543970133 L32,29 L34,29 L34,31 L30,31 L30,3.45602987 L19,7.6867991 L19,10.1666667 L23,8.5 L23,31 L17,31 L17,14.2729701 L19,13.5449701 L19,29 L21,29 L21,11.5 L19,12.3333333 L17,13.1669701 L17,13.1666667 L11,15.6666667 L11,18.1468305 L15,16.5104669 L15,31 L9,31 L9,22.1999701 L10.999,21.3999701 L11,29 L13,29 L12.999,19.5019701 L13,19.5 L12.999,19.4999701 L13,19.4895331 L11,20.3077149 L10.999,20.3239701 L9,21.1469701 L9,21.1258968 L4,23.1713513 L4,31 L0,31 L0,29 L2,29 L2,21.8286487 L9,18.9650123 L9,14.3333333 L17,11 L17,6.3132009 L32,0.543970133 Z" id="Combined-Shape" fill="#3F89E8"></path>
                        <path d="M58.7,15.52 L58.7,20.24 L66.1,20.24 L66.1,22 L56.72,22 L56.72,7.84 L65.8,7.84 L65.8,9.58 L58.7,9.58 L58.7,13.82 L65.38,13.82 L65.38,15.52 L58.7,15.52 Z M75.06,13.82 L73.76,14.92 C73.5466656,14.5733316 73.2433353,14.2900011 72.85,14.07 C72.4566647,13.8499989 72.026669,13.74 71.56,13.74 C71.0799976,13.74 70.6666684,13.8433323 70.32,14.05 C69.9733316,14.2566677 69.8,14.5666646 69.8,14.98 C69.8,15.3533352 69.966665,15.639999 70.3,15.84 C70.633335,16.040001 71.1866628,16.2266658 71.96,16.4 C74.0800106,16.866669 75.14,17.799993 75.14,19.2 C75.14,20.2400052 74.7766703,21.0099975 74.05,21.51 C73.3233297,22.0100025 72.426672,22.26 71.36,22.26 C70.6133296,22.26 69.9000034,22.1133348 69.22,21.82 C68.54,21.5266652 67.9800022,21.1066694 67.54,20.56 L68.88,19.42 C69.1333346,19.8066686 69.4899977,20.1233321 69.95,20.37 C70.4100023,20.6166679 70.8933308,20.74 71.4,20.74 C71.933336,20.74 72.3799982,20.6300011 72.74,20.41 C73.1000018,20.1899989 73.28,19.8400024 73.28,19.36 C73.28,18.9466646 73.0900019,18.6333344 72.71,18.42 C72.3299981,18.2066656 71.6933378,17.9933344 70.8,17.78 C70.4266648,17.6866662 70.1000014,17.5866672 69.82,17.48 C69.54,17.3733328 69.2533348,17.2233343 68.96,17.03 C68.6666652,16.8366657 68.4400008,16.5833349 68.28,16.27 C68.1199992,15.9566651 68.04,15.5866688 68.04,15.16 C68.04,14.1999952 68.3899965,13.4766691 69.09,12.99 C69.7900035,12.5033309 70.6333284,12.26 71.62,12.26 C72.3133368,12.26 72.9766635,12.3966653 73.61,12.67 C74.2433365,12.9433347 74.726665,13.3266642 75.06,13.82 Z M82.16,12.52 L82.16,14.06 L79.64,14.06 L79.64,19 C79.64,19.5733362 79.7466656,19.9833321 79.96,20.23 C80.1733344,20.4766679 80.513331,20.6 80.98,20.6 C81.3933354,20.6 81.7599984,20.5200008 82.08,20.36 L82.14,21.9 C81.6599976,22.0733342 81.1266696,22.16 80.54,22.16 C79.6466622,22.16 78.9633357,21.9100025 78.49,21.41 C78.0166643,20.9099975 77.78,20.1733382 77.78,19.2 L77.78,14.06 L75.96,14.06 L75.96,12.52 L77.78,12.52 L77.78,9.8 L79.64,9.8 L79.64,12.52 L82.16,12.52 Z M90,16.12 L90,15.86 C90,15.1799966 89.7900021,14.6633351 89.37,14.31 C88.9499979,13.9566649 88.3800036,13.78 87.66,13.78 C86.593328,13.78 85.693337,14.146663 84.96,14.88 L83.96,13.68 C84.9466716,12.7333286 86.239992,12.26 87.84,12.26 C89.1466732,12.26 90.13333,12.6033299 90.8,13.29 C91.46667,13.9766701 91.8,14.8733278 91.8,15.98 L91.8,20.12 C91.8,20.9466708 91.8466662,21.5733312 91.94,22 L90.24,22 C90.1333328,21.5466644 90.08,21.0933356 90.08,20.64 L90.02,20.64 C89.3133298,21.706672 88.2533404,22.24 86.84,22.24 C86.439998,22.24 86.0466686,22.1866672 85.66,22.08 C85.2733314,21.9733328 84.9066684,21.8133344 84.56,21.6 C84.2133316,21.3866656 83.9333344,21.0833353 83.72,20.69 C83.5066656,20.2966647 83.4,19.8400026 83.4,19.32 C83.4,18.7733306 83.5299987,18.2966687 83.79,17.89 C84.0500013,17.4833313 84.379998,17.1700011 84.78,16.95 C85.180002,16.7299989 85.6899969,16.5566673 86.31,16.43 C86.9300031,16.3033327 87.5166639,16.2200002 88.07,16.18 C88.6233361,16.1399998 89.266663,16.12 90,16.12 Z M90,17.48 L89.54,17.48 C86.7266526,17.48 85.32,18.079994 85.32,19.28 C85.32,19.8000026 85.5066648,20.1766655 85.88,20.41 C86.2533352,20.6433345 86.7133306,20.76 87.26,20.76 C88.1133376,20.76 88.7833309,20.5033359 89.27,19.99 C89.7566691,19.4766641 90,18.8066708 90,17.98 L90,17.48 Z M99.58,12.52 L99.58,14.06 L97.06,14.06 L97.06,19 C97.06,19.5733362 97.1666656,19.9833321 97.38,20.23 C97.5933344,20.4766679 97.933331,20.6 98.4,20.6 C98.8133354,20.6 99.1799984,20.5200008 99.5,20.36 L99.56,21.9 C99.0799976,22.0733342 98.5466696,22.16 97.96,22.16 C97.0666622,22.16 96.3833357,21.9100025 95.91,21.41 C95.4366643,20.9099975 95.2,20.1733382 95.2,19.2 L95.2,14.06 L93.38,14.06 L93.38,12.52 L95.2,12.52 L95.2,9.8 L97.06,9.8 L97.06,12.52 L99.58,12.52 Z M102.82,16.42 L108.46,16.42 C108.433333,15.6333294 108.193336,14.9900025 107.74,14.49 C107.286664,13.9899975 106.640004,13.74 105.8,13.74 C104.999996,13.74 104.32,13.9999974 103.76,14.52 C103.199997,15.0400026 102.886667,15.6733296 102.82,16.42 Z M110.36,17.18 C110.36,17.4600014 110.353333,17.6733326 110.34,17.82 L102.82,17.82 C102.846667,18.6333374 103.159997,19.3166639 103.76,19.87 C104.360003,20.4233361 105.073329,20.7 105.9,20.7 C107.086673,20.7 108.006663,20.2200048 108.66,19.26 L109.98,20.32 C108.979995,21.6133398 107.620009,22.26 105.9,22.26 C104.446659,22.26 103.250005,21.8000046 102.31,20.88 C101.369995,19.9599954 100.9,18.76 100.9,17.28 C100.9,15.813326 101.366662,14.6100047 102.3,13.67 C103.233338,12.7299953 104.4,12.26 105.8,12.26 C107.200007,12.26 108.309996,12.7033289 109.13,13.59 C109.950004,14.4766711 110.36,15.6733258 110.36,17.18 Z M122.14,10.76 L116.2,10.76 L116.2,13.68 L121.68,13.68 L121.68,16.5 L116.2,16.5 L116.2,22 L112.82,22 L112.82,7.84 L122.14,7.84 L122.14,10.76 Z M133.88,22 L130.72,22 L130.72,20.62 L130.68,20.62 C130.439999,21.086669 130.046669,21.4799984 129.5,21.8 C128.953331,22.1200016 128.34667,22.28 127.68,22.28 C126.439994,22.28 125.52667,21.8833373 124.94,21.09 C124.35333,20.2966627 124.06,19.333339 124.06,18.2 L124.06,12.04 L127.36,12.04 L127.36,17.44 C127.36,18.8533404 127.853328,19.56 128.84,19.56 C129.386669,19.56 129.816665,19.3533354 130.13,18.94 C130.443335,18.5266646 130.6,18.020003 130.6,17.42 L130.6,12.04 L133.88,12.04 L133.88,22 Z M146.28,22 L142.98,22 L142.98,16.56 C142.98,15.159993 142.486672,14.46 141.5,14.46 C140.94,14.46 140.506668,14.6666646 140.2,15.08 C139.893332,15.4933354 139.74,15.999997 139.74,16.6 L139.74,22 L136.44,22 L136.44,12.04 L139.62,12.04 L139.62,13.42 L139.66,13.42 C139.900001,12.953331 140.289997,12.5600016 140.83,12.24 C141.370003,11.9199984 141.97333,11.76 142.64,11.76 C143.880006,11.76 144.796664,12.1566627 145.39,12.95 C145.983336,13.7433373 146.28,14.706661 146.28,15.84 L146.28,22 Z M159.32,22 L156.3,22 L156.3,20.7 L156.26,20.7 C155.939998,21.1933358 155.483336,21.5799986 154.89,21.86 C154.296664,22.1400014 153.66667,22.28 153,22.28 C151.559993,22.28 150.410004,21.7633385 149.55,20.73 C148.689996,19.6966615 148.26,18.446674 148.26,16.98 C148.26,15.5399928 148.693329,14.3100051 149.56,13.29 C150.426671,12.2699949 151.559993,11.76 152.96,11.76 C154.226673,11.76 155.239996,12.2066622 156,13.1 L156.04,13.1 L156.04,6.88 L159.32,6.88 L159.32,22 Z M156.18,17 C156.18,16.33333 155.956669,15.7400026 155.51,15.22 C155.063331,14.6999974 154.48667,14.44 153.78,14.44 C153.046663,14.44 152.470002,14.6899975 152.05,15.19 C151.629998,15.6900025 151.42,16.2866632 151.42,16.98 C151.42,17.6866702 151.629998,18.2933308 152.05,18.8 C152.470002,19.3066692 153.046663,19.56 153.78,19.56 C154.48667,19.56 155.063331,19.3033359 155.51,18.79 C155.956669,18.2766641 156.18,17.6800034 156.18,17 Z M164.56,15.88 L168.78,15.88 C168.78,15.3333306 168.610002,14.8800018 168.27,14.52 C167.929998,14.1599982 167.44667,13.98 166.82,13.98 C166.206664,13.98 165.686669,14.1666648 165.26,14.54 C164.833331,14.9133352 164.6,15.3599974 164.56,15.88 Z M171.8,17.14 C171.8,17.5000018 171.793333,17.7599992 171.78,17.92 L164.56,17.92 C164.613334,18.453336 164.873331,18.8999982 165.34,19.26 C165.806669,19.6200018 166.339997,19.8 166.94,19.8 C167.900005,19.8 168.633331,19.4533368 169.14,18.76 L171.42,20.2 C170.446662,21.6133404 168.94001,22.32 166.9,22.32 C165.339992,22.32 164.036672,21.8500047 162.99,20.91 C161.943328,19.9699953 161.42,18.6866748 161.42,17.06 C161.42,15.459992 161.929995,14.1700049 162.95,13.19 C163.970005,12.2099951 165.253326,11.72 166.8,11.72 C168.293341,11.72 169.499995,12.2033285 170.42,13.17 C171.340005,14.1366715 171.8,15.4599916 171.8,17.14 Z M180.44,11.84 L180.3,14.72 C180.046665,14.653333 179.766668,14.62 179.46,14.62 C178.673329,14.62 178.086669,14.8633309 177.7,15.35 C177.313331,15.8366691 177.12,16.346664 177.12,16.88 L177.12,22 L173.84,22 L173.84,12.04 L177,12.04 L177,13.48 L177.04,13.48 C177.293335,12.9599974 177.659998,12.5433349 178.14,12.23 C178.620002,11.9166651 179.15333,11.76 179.74,11.76 C180.060002,11.76 180.293333,11.7866664 180.44,11.84 Z" id="EstateFunder" fill="#FFFFFF"></path>
                    </g>
                </g>
            </g>
        </g>
    </g>
</svg>