<?xml version="1.0" encoding="UTF-8"?>
<svg width="18px" height="5px" viewBox="0 0 18 5" version="1.1" xmlns="http://www.w3.org/2000/svg" xmlns:xlink="http://www.w3.org/1999/xlink">
    <!-- Generator: Sketch 58 (84663) - https://sketch.com -->
    <title>more</title>
    <desc>Created with Sketch.</desc>
    <g id="designs" stroke="none" stroke-width="1" fill="none" fill-rule="evenodd">
        <g id="14-EstateFunder-doc-centre" transform="translate(-1042.000000, -826.000000)" fill="#3F89E8">
            <g id="capital-structure" transform="translate(340.000000, 549.000000)">
                <g id="Group-5" transform="translate(40.000000, 265.000000)">
                    <path d="M664.076923,12 C665.223976,12 666.153846,12.9298701 666.153846,14.0769231 C666.153846,15.223976 665.223976,16.1538462 664.076923,16.1538462 C662.92987,16.1538462 662,15.223976 662,14.0769231 C662,12.9298701 662.92987,12 664.076923,12 Z M671,12 C672.147053,12 673.076923,12.9298701 673.076923,14.0769231 C673.076923,15.223976 672.147053,16.1538462 671,16.1538462 C669.852947,16.1538462 668.923077,15.223976 668.923077,14.0769231 C668.923077,12.9298701 669.852947,12 671,12 Z M677.923077,12 C679.07013,12 680,12.9298701 680,14.0769231 C680,15.223976 679.07013,16.1538462 677.923077,16.1538462 C676.776024,16.1538462 675.846154,15.223976 675.846154,14.0769231 C675.846154,12.9298701 676.776024,12 677.923077,12 Z" id="more"></path>
                </g>
            </g>
        </g>
    </g>
</svg>