<?xml version="1.0" encoding="UTF-8"?>
<svg width="20px" height="20px" viewBox="0 0 20 20" version="1.1" xmlns="http://www.w3.org/2000/svg" xmlns:xlink="http://www.w3.org/1999/xlink">
    <!-- Generator: Sketch 58 (84663) - https://sketch.com -->
    <title>my_position</title>
    <desc>Created with Sketch.</desc>
    <g id="designs" stroke="none" stroke-width="1" fill="none" fill-rule="evenodd">
        <g id="20-EstateFunder-perfomance" transform="translate(-1375.000000, -3293.000000)" fill="#475871">
            <g id="map" transform="translate(0.000000, 2576.000000)">
                <g id="zoom" transform="translate(1370.000000, 712.000000)">
                    <path d="M16,5 L16.0010101,8.07103341 C19.0662656,8.50994026 21.4907127,10.9347117 21.9291291,14.0001255 L25,14 L25,16 L21.9289856,16.0008772 C21.490184,19.065817 19.0659314,21.4901076 16.0010101,21.9289666 L16,25 L14,25 L13.9999918,21.92911 C10.9342948,21.4905927 8.50938589,19.0656731 8.0708847,15.9999709 L5,16 L5,14 L8.07102821,13.9990263 C8.50991472,10.9337981 10.9346291,8.50935953 13.9999918,8.07089004 L14,5 L16,5 Z M15,10 C12.2385763,10 10,12.2385763 10,15 C10,17.7614237 12.2385763,20 15,20 C17.7614237,20 20,17.7614237 20,15 C20,12.2385763 17.7614237,10 15,10 Z M15,13 C16.1045695,13 17,13.8954305 17,15 C17,16.1045695 16.1045695,17 15,17 C13.8954305,17 13,16.1045695 13,15 C13,13.8954305 13.8954305,13 15,13 Z" id="my_position"></path>
                </g>
            </g>
        </g>
    </g>
</svg>