<svg width="19px" height="22px" viewBox="0 0 19 22" version="1.1" xmlns="http://www.w3.org/2000/svg" xmlns:xlink="http://www.w3.org/1999/xlink">
    <g stroke="none" stroke-width="1" fill="none" fill-rule="evenodd">
        <g transform="translate(-1291.000000, -29.000000)" fill="#6B7C95" fill-rule="nonzero">
            <g>
                <path d="M1310.62926,45.621875 L1309.78977,45.621875 L1309.78977,39.7454545 C1309.78977,36.3379833 1307.52217,33.4504375 1304.41672,32.5119155 C1304.57789,32.1867776 1304.66889,31.8211409 1304.66889,31.434517 C1304.66889,30.092155 1303.57674,29 1302.23438,29 C1300.89201,29 1299.79986,30.092155 1299.79986,31.434517 C1299.79986,31.8211409 1299.89086,32.1867776 1300.05203,32.5119155 C1296.94658,33.4504375 1294.67898,36.3379833 1294.67898,39.7454545 L1294.67898,45.621875 L1293.83949,45.621875 C1293.3758,45.621875 1293,45.9976773 1293,46.4613636 C1293,46.9250499 1293.3758,47.3008523 1293.83949,47.3008523 L1298.12514,47.3008523 C1298.51242,49.1211653 1300.13237,50.4909091 1302.06648,50.4909091 L1302.40227,50.4909091 C1304.33638,50.4909091 1305.95633,49.1211653 1306.34361,47.3008523 L1310.62926,47.3008523 C1311.09295,47.3008523 1311.46875,46.9250499 1311.46875,46.4613636 C1311.46875,45.9976773 1311.09295,45.621875 1310.62926,45.621875 Z M1301.47884,31.434517 C1301.47884,31.017888 1301.81775,30.6789773 1302.23438,30.6789773 C1302.651,30.6789773 1302.98991,31.017888 1302.98991,31.434517 C1302.98991,31.8511461 1302.651,32.1900568 1302.23438,32.1900568 C1301.81775,32.1900568 1301.47884,31.8511461 1301.47884,31.434517 Z M1302.40227,48.8119318 L1302.06648,48.8119318 C1301.06598,48.8119318 1300.20944,48.183627 1299.87085,47.3008523 L1304.5979,47.3008523 C1304.25931,48.183627 1303.40277,48.8119318 1302.40227,48.8119318 L1302.40227,48.8119318 Z M1296.35795,45.621875 L1296.35795,39.7454545 C1296.35795,36.5052252 1298.99415,33.8690341 1302.23438,33.8690341 C1305.4746,33.8690341 1308.1108,36.5052252 1308.1108,39.7454545 L1308.1108,45.621875 C1306.97011,45.621875 1296.80164,45.621875 1296.35795,45.621875 Z" id="notification" transform="translate(1302.234375, 39.745455) rotate(-345.000000) translate(-1302.234375, -39.745455) "></path>
            </g>
        </g>
    </g>
</svg>