<?xml version="1.0" encoding="UTF-8"?>
<svg width="880px" height="221px" viewBox="0 0 880 221" version="1.1" xmlns="http://www.w3.org/2000/svg" xmlns:xlink="http://www.w3.org/1999/xlink">
    <!-- Generator: Sketch 58 (84663) - https://sketch.com -->
    <title>paper-plane_illustration</title>
    <desc>Created with Sketch.</desc>
    <g id="designs" stroke="none" stroke-width="1" fill="none" fill-rule="evenodd">
        <g id="23-EstateFunder-term-of-use" transform="translate(-560.000000, -4100.000000)" fill-rule="nonzero">
            <g id="footer" transform="translate(0.000000, 4017.000000)">
                <g id="get-started">
                    <g id="paper-plane_illustration" transform="translate(557.428441, 83.007478)">
                        <path d="M938.439141,193.883626 C937.14607,194.238758 935.858021,194.590196 934.574995,194.937941 L934.836592,195.903118 C936.120701,195.55508 937.409829,195.203347 938.703977,194.84792 L938.439141,193.883626 Z M930.727883,195.973598 C929.434633,196.319358 928.146568,196.661306 926.863687,196.999442 L927.118558,197.966417 C928.40258,197.627981 929.691784,197.28573 930.986169,196.939666 L930.727883,195.973598 Z M922.99562,198.011497 C921.696911,198.348766 920.403603,198.682064 919.115695,199.011391 L919.363431,199.980218 C920.652549,199.650582 921.947065,199.316973 923.246978,198.979391 L922.99562,198.011497 Z M915.236647,199.995389 C913.936125,200.322621 912.641204,200.645735 911.351886,200.964729 L911.592057,201.935459 C912.882659,201.616148 914.178859,201.292715 915.480657,200.965162 L915.236647,199.995389 Z M907.483692,201.913498 C906.184803,202.22928 904.8917,202.540808 903.604384,202.848081 L903.836554,203.820756 C905.12523,203.513158 906.419688,203.201304 907.719927,202.885194 L907.483692,201.913498 Z M899.694336,203.772464 C898.393382,204.077031 897.098446,204.377172 895.80953,204.672888 L896.03315,205.647565 C897.323513,205.351517 898.619891,205.051041 899.922283,204.746137 L899.694336,203.772464 Z M891.902061,205.559962 C890.596013,205.853284 889.296264,206.141974 888.002815,206.426033 L888.217316,207.402756 C889.512313,207.118358 890.813604,206.829325 892.12119,206.535658 L891.902061,205.559962 Z M884.091532,207.275004 C882.778349,207.55665 881.471789,207.833425 880.171854,208.105331 L880.376592,209.084148 C881.678189,208.811894 882.986404,208.534768 884.301238,208.252769 L884.091532,207.275004 Z M876.272577,208.910382 C874.957559,209.178285 873.64946,209.441102 872.348281,209.698831 L872.54258,210.679774 C873.845541,210.421691 875.155415,210.158518 876.472203,209.890254 L876.272577,208.910382 Z M868.432626,210.463082 C867.114931,210.716409 865.804489,210.964407 864.501298,211.207073 L864.684361,212.190174 C865.989469,211.947151 867.301821,211.698792 868.621419,211.445098 L868.432626,210.463082 Z M860.561317,211.92847 C859.241083,212.166044 857.928463,212.398021 856.623458,212.624401 L856.794376,213.609687 C858.101451,213.382947 859.416133,213.150606 860.738421,212.912662 L860.561317,211.92847 Z M852.693817,213.293004 C851.371773,213.513489 850.057731,213.728093 848.751693,213.936815 L848.909503,214.924285 C850.217782,214.715204 851.534054,214.500236 852.858321,214.27938 L852.693817,213.293004 Z M844.800323,214.554078 C843.472988,214.756592 842.154129,214.952876 840.843747,215.142932 L840.987283,216.132577 C842.300105,215.942167 843.621394,215.745521 844.951149,215.542639 L844.800323,214.554078 Z M836.896692,215.700087 C835.567255,215.882519 834.246777,216.058368 832.935257,216.227635 L833.063257,217.21941 C834.377438,217.049799 835.700567,216.873596 837.032643,216.690803 L836.896692,215.700087 Z M828.959273,216.723928 C827.627285,216.884464 826.304801,217.038018 824.99182,217.18459 L825.102765,218.178417 C826.418662,218.031519 827.74405,217.877628 829.07893,217.716743 L828.959273,216.723928 Z M821.027626,217.608869 C819.693987,217.745371 818.370449,217.874454 817.057012,217.996118 L817.149247,218.991855 C818.465894,218.869894 819.792627,218.740499 821.129448,218.603671 L821.027626,217.608869 Z M813.064368,218.345669 C811.727965,218.45577 810.402358,218.557944 809.087548,218.652189 L809.159044,219.64963 C810.477409,219.55513 811.806553,219.452684 813.146476,219.342292 L813.064368,218.345669 Z M805.094545,218.91604 C803.752744,218.99706 802.422575,219.06954 801.10404,219.133479 L801.152475,220.132305 C802.474975,220.068174 803.809089,219.995479 805.154817,219.914222 L805.094545,218.91604 Z M797.126512,219.301727 C795.783588,219.350064 794.453178,219.389216 793.135282,219.419183 L793.158015,220.418925 C794.480345,220.388856 795.815168,220.349574 797.162482,220.30108 L797.126512,219.301727 Z M789.13834,219.482247 C787.794868,219.493907 786.464923,219.495643 785.148506,219.487454 L785.142285,220.487434 C786.463694,220.495655 787.798605,220.493913 789.147019,220.482209 L789.13834,219.482247 Z M781.149711,219.431137 C779.804294,219.401384 778.473625,219.360814 777.157705,219.30943 L777.118686,220.308668 C778.440272,220.360274 779.776577,220.401015 781.127601,220.430893 L781.149711,219.431137 Z M773.169113,219.117984 C771.826121,219.041222 770.499225,218.952662 769.188424,218.852305 L769.112085,219.849387 C770.429344,219.950238 771.762665,220.039227 773.112049,220.116355 L773.169113,219.117984 Z M765.212606,218.50693 C763.872248,218.376323 762.549605,218.232739 761.244678,218.076178 L761.125556,219.069057 C762.437899,219.226508 763.767921,219.370894 765.115624,219.502216 L765.212606,218.50693 Z M757.290519,217.554238 C755.957477,217.361797 754.644004,217.155031 753.350099,216.933943 L753.181671,217.919657 C754.484129,218.142206 755.806118,218.350312 757.147638,218.543977 L757.290519,217.554238 Z M749.425378,216.20743 C748.104845,215.943573 746.80603,215.66383 745.528933,215.368204 L745.303414,216.342442 C746.590405,216.640359 747.89908,216.922226 749.22944,217.188046 L749.425378,216.20743 Z M741.653063,214.404502 C740.352002,214.057871 739.075157,213.693544 737.822526,213.311523 L737.530816,214.26803 C738.79489,214.65354 740.083159,215.021127 741.395621,215.370796 L741.653063,214.404502 Z M734.024033,212.07306 C732.754207,211.631185 731.511381,211.169595 730.295553,210.688294 L729.927481,211.618092 C731.156437,212.104589 732.412404,212.57106 733.695382,213.017511 L734.024033,212.07306 Z M726.614907,209.134006 C725.390258,208.582938 724.195696,208.009913 723.031215,207.414937 L722.576227,208.305434 C723.755506,208.907972 724.964952,209.488137 726.204557,210.045934 L726.614907,209.134006 Z M719.580223,205.536487 C718.420788,204.864537 717.294552,204.168356 716.201503,203.447949 L715.651195,204.282911 C716.760339,205.013926 717.902877,205.720183 719.078797,206.401687 L719.580223,205.536487 Z M712.951187,201.161011 C711.883779,200.35931 710.85232,199.531337 709.856793,198.677089 L709.205589,199.435992 C710.217628,200.304408 711.265983,201.145945 712.350638,201.960599 L712.951187,201.161011 Z M706.932636,195.990946 C705.985599,195.059149 705.076384,194.099632 704.204973,193.112385 L703.455252,193.774139 C704.342218,194.779009 705.267569,195.755554 706.231288,196.703765 L706.932636,195.990946 Z M701.677772,190.032872 C700.876936,188.981863 700.114415,187.902664 699.390196,186.795257 L698.553277,187.342583 C699.29062,188.470058 700.066987,189.568853 700.882365,190.638947 L701.677772,190.032872 Z M697.334681,183.392432 C696.695145,182.243351 696.092916,181.066714 695.527993,179.8625 L694.622663,180.28721 C695.197361,181.512259 695.810106,182.709445 696.460898,183.878748 L697.334681,183.392432 Z M693.960135,176.205597 C693.640082,175.385171 693.33587,174.553014 693.047501,173.70912 C692.902579,173.28483 692.763874,172.868781 692.628666,172.452896 L691.677663,172.762075 C691.814403,173.182675 691.954669,173.603407 692.101201,174.032412 C692.394178,174.889789 692.703275,175.735308 693.028514,176.569028 L693.960135,176.205597 Z M691.486813,168.639547 C691.131234,167.338909 690.814241,166.050712 690.535542,164.775262 L689.558593,164.988736 C689.840994,166.281128 690.162109,167.586073 690.522211,168.903258 L691.486813,168.639547 Z M689.794353,160.86511 C689.581784,159.537185 689.412292,158.224624 689.285467,156.927854 L688.290215,157.02519 C688.419037,158.342382 688.591145,159.675192 688.806924,161.023174 L689.794353,160.86511 Z M689.028927,152.970743 C688.987232,151.630709 688.993086,150.309692 689.045901,149.00829 L688.046724,148.96774 C687.992936,150.293113 687.986975,151.638027 688.02941,153.001843 L689.028927,152.970743 Z M689.358595,145.044586 C689.515663,143.716903 689.724098,142.412655 689.98304,141.132676 L689.002895,140.934391 C688.738528,142.241186 688.525786,143.57239 688.36552,144.927104 L689.358595,145.044586 Z M690.932388,137.291856 C691.307226,136.015654 691.735233,134.767717 692.215165,133.549163 L691.284729,133.182708 C690.793856,134.429042 690.356162,135.705222 689.972917,137.010047 L690.932388,137.291856 Z M693.845901,129.910648 C694.443137,128.728452 695.092587,127.579529 695.792478,126.465302 L694.945677,125.933392 C694.229312,127.073845 693.564587,128.249792 692.953336,129.459731 L693.845901,129.910648 Z M698.065133,123.19767 C698.867316,122.152168 699.717328,121.144554 700.612745,120.176489 L699.878629,119.497465 C698.962462,120.487963 698.09267,121.519025 697.271758,122.588937 L698.065133,123.19767 Z M703.384573,117.436226 C704.361106,116.552962 705.378559,115.711932 706.433754,114.914904 L705.831031,114.116953 C704.752416,114.931672 703.712242,115.791482 702.71377,116.69459 L703.384573,117.436226 Z M709.711911,112.65607 C710.827507,111.956449 711.97482,111.303051 713.14989,110.69755 L712.691837,109.808625 C711.491858,110.426962 710.320107,111.094278 709.180617,111.808882 L709.711911,112.65607 Z M716.765942,109.021688 C717.985208,108.517129 719.225422,108.062669 720.48189,107.65968 L720.176482,106.707458 C718.894023,107.118784 717.628131,107.582653 716.383568,108.097681 L716.765942,109.021688 Z M724.341351,106.595859 C725.63067,106.29738 726.928732,106.052862 728.230259,105.863165 L728.086034,104.873621 C726.757177,105.0673 725.431989,105.316928 724.115815,105.621624 L724.341351,106.595859 Z M732.196572,105.45601 C733.522241,105.377103 734.843004,105.35603 736.153251,105.392975 L736.181436,104.393372 C734.841874,104.355601 733.491884,104.37714 732.137155,104.457776 L732.196572,105.45601 Z M740.111451,105.685799 C741.432279,105.845472 742.733086,106.066467 744.008298,106.348209 L744.224032,105.371757 C742.917002,105.082985 741.584253,104.856564 740.231466,104.693027 L740.111451,105.685799 Z M747.832636,107.401963 C749.09375,107.821928 750.318794,108.305603 751.502671,108.851723 L751.921549,107.943681 C750.703896,107.38198 749.444487,106.884737 748.148588,106.453188 L747.832636,107.401963 Z M754.957724,110.695706 C756.08507,111.386068 757.161506,112.139961 758.182838,112.955718 L758.806923,112.174362 C757.752959,111.332541 756.642495,110.554816 755.47996,109.842905 L754.957724,110.695706 Z M761.050512,115.559185 C761.962463,116.499733 762.813472,117.499674 763.600476,118.557366 L764.402751,117.960412 C763.589762,116.867797 762.710572,115.834743 761.76845,114.863077 L761.050512,115.559185 Z M765.755553,121.882681 C766.390291,123.014485 766.961728,124.197479 767.467857,125.430353 L768.392938,125.050582 C767.871458,123.780315 767.282374,122.560791 766.627754,121.393533 L765.755553,121.882681 Z M768.765914,129.197905 C769.117436,130.440209 769.4099,131.723866 769.642073,133.047946 L770.627045,132.875235 C770.389027,131.517815 770.088992,130.200929 769.728135,128.925635 L768.765914,129.197905 Z M770.146294,137.01347 C770.250973,138.299935 770.303769,139.618813 770.30394,140.969478 L771.30394,140.969352 C771.303766,139.591874 771.249888,138.245989 771.143,136.932369 L770.146294,137.01347 Z M770.155957,144.978598 C770.062384,146.268848 769.924283,147.584477 769.741197,148.925072 L770.731999,149.060386 C770.91792,147.699042 771.058225,146.362416 771.153338,145.050931 L770.155957,144.978598 Z M769.084962,152.875999 C768.933037,153.656207 768.766796,154.444003 768.586172,155.239323 C768.468285,155.758109 768.347044,156.264959 768.220218,156.769383 L769.190034,157.013221 C769.318727,156.501372 769.441742,155.987105 769.561326,155.460851 C769.744241,154.655442 769.912616,153.857535 770.066526,153.067134 L769.084962,152.875999 Z M767.139093,160.583214 C766.736288,161.855191 766.297565,163.102305 765.82324,164.324457 L766.755491,164.686269 C767.2375,163.444319 767.683252,162.177223 768.092432,160.885114 L767.139093,160.583214 Z M764.258094,167.992478 C763.69636,169.195596 763.097481,170.372041 762.461842,171.521702 L763.336987,172.005563 C763.983646,170.835971 764.592848,169.639246 765.164197,168.415536 L764.258094,167.992478 Z M760.420335,174.928352 C759.699577,176.040886 758.94143,177.12545 758.146347,178.18192 L758.945355,178.783241 C759.754514,177.708066 760.52609,176.604292 761.259601,175.472073 L760.420335,174.928352 Z M755.635012,181.285021 C754.770649,182.279558 753.870369,183.245953 752.934682,184.184078 L753.642707,184.890264 C754.5945,183.935993 755.510375,182.952857 756.389787,181.941005 L755.635012,181.285021 Z M750.049239,186.889533 C749.060956,187.756508 748.039172,188.595831 746.984443,189.407376 L747.594255,190.199922 C748.665891,189.375368 749.704237,188.522441 750.708702,187.64127 L750.049239,186.889533 Z M743.74192,191.745075 C742.652989,192.480494 741.533689,193.189329 740.384611,193.871466 L740.895079,194.731363 C742.060767,194.039366 743.196477,193.320138 744.301597,192.573786 L743.74192,191.745075 Z M736.882595,195.819978 C735.718998,196.426228 734.528589,197.007418 733.311972,197.563455 L733.727651,198.472967 C734.959826,197.909819 736.1657,197.321078 737.344655,196.706827 L736.882595,195.819978 Z M729.67378,199.120201 C728.456147,199.607191 727.215173,200.070744 725.951464,200.51079 L726.280315,201.455172 C727.55822,201.010183 728.813363,200.541337 730.04513,200.048694 L729.67378,199.120201 Z M722.207159,201.725894 C720.948515,202.105555 719.66966,202.463263 718.371202,202.79897 L718.621515,203.767135 C719.932791,203.428114 721.224474,203.066818 722.49595,202.683286 L722.207159,201.725894 Z M714.489966,203.724237 C713.204759,204.005493 711.902292,204.266286 710.583162,204.506593 L710.762384,205.490402 C712.093007,205.248001 713.406995,204.984901 714.703747,204.701118 L714.489966,203.724237 Z M706.637226,205.157046 C705.335666,205.349601 704.019511,205.523084 702.68935,205.677491 L702.804657,206.670821 C704.145132,206.515216 705.471634,206.34037 706.783575,206.146279 L706.637226,205.157046 Z M698.702945,206.079579 C697.391186,206.192345 696.067193,206.287266 694.731541,206.364358 L694.789164,207.362696 C696.134123,207.285067 697.467458,207.189477 698.788595,207.075904 L698.702945,206.079579 Z M690.716138,206.541376 C689.396906,206.58186 688.067517,206.605532 686.728538,206.612431 L686.73369,207.612418 C688.081142,207.605475 689.419038,207.581651 690.746811,207.540905 L690.716138,206.541376 Z M682.728279,206.583714 C681.406966,206.558167 680.07739,206.516765 678.740106,206.459563 L678.69737,207.458649 C680.042423,207.516184 681.379801,207.557828 682.708948,207.583527 L682.728279,206.583714 Z M674.736442,206.242623 C673.415976,206.156179 672.08897,206.054732 670.755968,205.938353 L670.668993,206.934564 C672.009182,207.05157 673.343404,207.153568 674.671117,207.240487 L674.736442,206.242623 Z M666.79601,205.550623 C665.479645,205.407894 664.158324,205.250943 662.83258,205.079854 L662.70459,206.071629 C664.037039,206.243584 665.365092,206.401335 666.688215,206.544796 L666.79601,205.550623 Z M658.892426,204.531692 C657.582039,204.336276 656.268161,204.127338 654.951313,203.904976 L654.78481,204.891017 C656.107969,205.114445 657.428183,205.32439 658.744929,205.520754 L658.892426,204.531692 Z M651.039558,203.206594 C649.736152,202.961335 648.430624,202.703173 647.123483,202.432219 L646.920511,203.411403 C648.233646,203.6836 649.545191,203.942952 650.854636,204.189347 L651.039558,203.206594 Z M643.214552,201.584896 C641.919411,201.291904 640.623446,200.986569 639.327159,200.669016 L639.089223,201.640297 C640.391253,201.959257 641.692979,202.265949 642.993903,202.56025 L643.214552,201.584896 Z M635.476678,199.690064 C634.193073,199.351819 632.909884,199.001779 631.627598,198.640078 L631.356117,199.602521 C632.64394,199.965785 633.932685,200.31734 635.221865,200.657055 L635.476678,199.690064 Z M627.782472,197.519681 C626.509881,197.137006 625.238905,196.743008 623.970021,196.33783 L623.665834,197.290442 C624.940108,197.697341 626.21649,198.093016 627.494504,198.477322 L627.782472,197.519681 Z M620.188659,195.095164 C618.928842,194.669374 617.671806,194.232703 616.418016,193.785304 L616.081935,194.727137 C617.341008,195.176421 618.603343,195.614933 619.868475,196.042519 L620.188659,195.095164 Z M612.667163,192.41119 C611.421713,191.943008 610.180191,191.464358 608.943051,190.975403 L608.575488,191.905401 C609.817842,192.396418 611.064594,192.877084 612.31529,193.347238 L612.667163,192.41119 Z M605.223876,189.468921 C603.993769,188.958469 602.768737,188.437928 601.549221,187.907468 L601.150346,188.824473 C602.375046,189.357188 603.605278,189.879939 604.840599,190.392555 L605.223876,189.468921 Z M597.913831,186.289309 C596.700901,185.736998 595.494189,185.174956 594.294124,184.60336 L593.864107,185.506181 C595.069359,186.080247 596.281272,186.644712 597.499419,187.199399 L597.913831,186.289309 Z M590.694547,182.850258 C589.501196,182.2561 588.315215,181.652558 587.137022,181.039817 L586.675621,181.927009 C587.859032,182.542463 589.050245,183.148668 590.248845,183.745439 L590.694547,182.850258 Z M583.637046,179.180057 C582.465311,178.544011 581.302111,177.898909 580.147851,177.244943 L579.654904,178.115002 C580.81444,178.771957 581.982932,179.419994 583.159976,180.058923 L583.637046,179.180057 Z M576.687321,175.241879 C575.538977,174.562855 574.400381,173.875081 573.271924,173.178755 L572.746793,174.029777 C573.880614,174.729412 575.024593,175.420437 576.178337,176.102655 L576.687321,175.241879 Z M569.873362,171.035981 C568.75108,170.313009 567.639806,169.581582 566.539918,168.841901 L565.981868,169.671708 C567.087232,170.415072 568.204005,171.150119 569.331807,171.876646 L569.873362,171.035981 Z M563.252693,166.582781 C562.159845,165.815256 561.079305,165.039564 560.011442,164.255913 L559.419807,165.062119 C560.493278,165.849885 561.579452,166.629622 562.67796,167.401122 L563.252693,166.582781 Z M556.811761,161.854828 C555.752101,161.041631 554.706113,160.220552 553.674154,159.391803 L553.047995,160.171498 C554.085707,161.004867 555.13748,161.830488 556.202956,162.648149 L556.811761,161.854828 Z M550.583967,156.85185 C549.851243,156.235358 549.126274,155.614957 548.409188,154.990727 C548.116105,154.735559 547.832484,154.486703 547.549103,154.236092 L546.886636,154.985183 C547.17196,155.237513 547.457525,155.488074 547.752577,155.744956 C548.473929,156.3729 549.203157,156.996947 549.940161,157.617038 L550.583967,156.85185 Z M544.608588,151.562771 C543.632242,150.650207 542.67285,149.727877 541.729956,148.795629 L541.026875,149.506739 C541.976419,150.445561 542.942559,151.374378 543.925746,152.293337 L544.608588,151.562771 Z M538.932753,145.950599 C538.012551,144.987704 537.108789,144.014552 536.220938,143.030916 L535.478612,143.700955 C536.37281,144.691623 537.28303,145.671728 538.2098,146.641497 L538.932753,145.950599 Z M533.584895,140.025211 C532.72102,139.011341 531.872835,137.986606 531.039712,136.950662 L530.260449,137.577359 C531.099482,138.620653 531.9537,139.652675 532.823729,140.673768 L533.584895,140.025211 Z M528.59166,133.81774 C527.789075,132.760558 527.00092,131.69189 526.226456,130.611221 L525.413633,131.193732 C526.19342,132.281828 526.987022,133.357883 527.795182,134.422407 L528.59166,133.81774 Z M523.940374,127.328217 C523.197246,126.229873 522.466925,125.119185 521.748511,123.99537 L520.905958,124.533983 C521.629021,125.665071 522.364112,126.783013 523.112136,127.888594 L523.940374,127.328217 Z M519.64271,120.607915 C518.95804,119.475401 518.284033,118.329392 517.619564,117.168663 L516.751706,117.665475 C517.420092,118.833047 518.098127,119.985905 518.786942,121.125275 L519.64271,120.607915 Z M515.686074,113.700788 C515.056989,112.542515 514.435823,111.369059 513.821103,110.178431 L512.932544,110.637193 C513.550434,111.83396 514.174865,113.013584 514.807319,114.17806 L515.686074,113.700788 Z M512.015015,106.5941 C511.434826,105.414752 510.859072,104.217354 510.285615,102.998371 L509.380744,103.424058 C509.956646,104.648236 510.534921,105.850878 511.117719,107.035531 L512.015015,106.5941 Z M508.610684,99.3632632 C508.072248,98.1709006 507.533544,96.9553111 506.990891,95.7092348 L506.074058,96.1085056 C506.618463,97.3586051 507.158979,98.5782823 507.699299,99.774818 L508.610684,99.3632632 Z M505.417697,92.0388714 C504.915249,90.8489077 504.405405,89.6253001 503.879329,88.3480047 L502.954684,88.728836 C503.481845,90.0087643 503.992816,91.2350759 504.496453,92.4278557 L505.417697,92.0388714 Z M502.372795,84.6549336 C501.911746,83.5151683 501.433943,82.3265568 500.881981,80.9475611 L499.953589,81.3191629 C500.505971,82.6992081 500.984211,83.8889084 501.445768,85.029928 L502.372795,84.6549336 Z M499.399781,77.2374007 C498.768117,75.6554428 498.343161,74.593315 497.912525,73.5215403 L496.984624,73.8943679 C497.414932,74.9653252 497.839659,76.0268817 498.471078,77.6082248 L499.399781,77.2374007 Z M496.413732,69.8169681 C495.880937,68.5111084 495.376282,67.2880163 494.885405,66.1142939 L493.962838,66.5001322 C494.452533,67.6710275 494.956089,68.8914554 495.487832,70.194738 L496.413732,69.8169681 Z M493.314331,62.4188593 C492.766056,61.1521311 492.227856,59.9341994 491.694159,58.7538754 L490.782976,59.1658773 C491.314385,60.3411396 491.850413,61.5541584 492.396606,62.8160759 L493.314331,62.4188593 Z M490.007629,55.1188795 C489.417751,53.8815499 488.828696,52.6823975 488.237062,51.5158886 L487.345212,51.9682198 C487.933069,53.1272811 488.518527,54.319112 489.10496,55.549214 L490.007629,55.1188795 Z M486.367107,47.9546058 C485.715282,46.756885 485.057085,45.5928406 484.389969,44.4592817 L483.52814,44.9664806 C484.189491,46.0902442 484.842192,47.2445671 485.488757,48.4326229 L486.367107,47.9546058 Z M482.285333,41.0314832 C481.551917,39.887547 480.80572,38.7752852 480.044618,37.6927252 L479.226562,38.2678652 C479.979382,39.3386443 480.717662,40.4391034 481.443495,41.5712136 L482.285333,41.0314832 Z M477.6386,34.4343894 C476.808836,33.3652477 475.96054,32.3266628 475.091867,31.3174069 L474.333947,31.9697539 C475.1915,32.9660905 476.029111,33.9915933 476.848606,35.0475051 L477.6386,34.4343894 Z M472.387674,28.3397482 C471.455678,27.3677213 470.500472,26.4251774 469.52045,25.5113756 L468.838485,26.2427602 C469.804787,27.1437699 470.746711,28.0732072 471.66586,29.0318357 L472.387674,28.3397482 Z M466.499264,22.8512987 C465.468931,21.995232 464.412203,21.1671585 463.327711,20.3666581 L462.733838,21.1712175 C463.802904,21.9603309 464.844564,22.7765965 465.860201,23.6204531 L466.499264,22.8512987 Z M460.006544,18.0585861 C458.891258,17.3294573 457.748092,16.6262713 456.575909,15.9488117 L456.075522,16.8146133 C457.231859,17.482915 458.359415,18.1764988 459.459346,18.8955889 L460.006544,18.0585861 Z M453.043056,14.0300169 C451.861033,13.4273715 450.651115,12.8482644 449.412382,12.2926001 L449.003099,13.2050076 C450.22673,13.7538976 451.421665,14.3258336 452.588842,14.9209093 L453.043056,14.0300169 Z M445.687635,10.726812 C444.456711,10.2426325 443.198897,9.77949234 441.913454,9.3373645 L441.588205,10.282993 C442.860007,10.7204291 444.10422,11.1785608 445.321589,11.6574085 L445.687635,10.726812 Z M438.091248,8.10919467 C436.826312,7.73026223 435.536025,7.37001871 434.2198,7.02847374 L433.96863,7.99641678 C435.272929,8.33486705 436.551282,8.69177876 437.804282,9.06713521 L438.091248,8.10919467 Z M430.305411,6.08504494 C429.018073,5.79771626 427.707155,5.52695977 426.372185,5.27280329 L426.185161,6.25515855 C427.509888,6.50736508 428.810536,6.77600025 430.087575,7.0610303 L430.305411,6.08504494 Z M422.404527,4.5777527 C421.102859,4.36887579 419.779386,4.17473548 418.43373,3.99536744 L418.301604,4.98660044 C419.638524,5.164804 420.953225,5.35765758 422.246086,5.56512105 L422.404527,4.5777527 Z M414.459521,3.51563885 C413.148852,3.37343028 411.818044,3.24440075 410.466789,3.12858826 L410.381394,4.12493551 C411.725195,4.24010904 413.048512,4.36841231 414.351653,4.50980411 L414.459521,3.51563885 Z M406.456898,2.82764932 C405.109812,2.74068354 403.776272,2.67072544 402.456119,2.61767913 L402.415969,3.61687282 C403.727993,3.66959247 405.053442,3.73912608 406.392473,3.82557191 L406.456898,2.82764932 Z M398.441369,2.50780233 C397.087169,2.48842525 395.747502,2.48749585 394.422178,2.50490498 L394.435313,3.50481872 C395.751454,3.48753021 397.081972,3.48845327 398.427061,3.50769998 L398.441369,2.50780233 Z M390.412045,2.61526768 C389.06202,2.67223669 387.727368,2.74897669 386.407862,2.84536651 L386.480718,3.842709 C387.789964,3.74706862 389.114384,3.67091696 390.454206,3.61437851 L390.412045,2.61526768 Z M382.38978,3.20442871 C381.045875,3.34691757 379.718222,3.51064145 378.406543,3.69546689 L378.546072,4.68568485 C379.846375,4.50246241 381.162662,4.34014018 382.495215,4.1988549 L382.38978,3.20442871 Z M374.432347,4.32854209 C373.099256,4.56596973 371.783247,4.82615861 370.48398,5.1089649 L370.696666,6.08608549 C371.983502,5.80598496 373.287062,5.54825749 374.60769,5.31304934 L374.432347,4.32854209 Z M366.579707,6.0397124 C365.272844,6.37898569 363.983517,6.74221011 362.71132,7.12923994 L363.002371,8.08594746 C364.261369,7.70293309 365.537435,7.34344429 366.830986,7.00762703 L366.579707,6.0397124 Z M358.885123,8.38288901 C357.611535,8.83074779 356.355702,9.30363765 355.117133,9.80142213 L355.490046,10.7292887 C356.715001,10.2369754 357.957106,9.76925501 359.21686,9.32626063 L358.885123,8.38288901 Z M351.408826,11.3892995 C350.182854,11.9472917 348.974324,12.5309266 347.782651,13.1400987 L348.237818,14.0305047 C349.416021,13.4282182 350.61091,12.8511709 351.82308,12.2994613 L351.408826,11.3892995 Z M344.234844,15.0571127 C343.067796,15.7225676 341.917321,16.4138125 340.782724,17.1308044 L341.316933,17.9761572 C342.438788,17.2672168 343.576304,16.5837583 344.730181,15.9258139 L344.234844,15.0571127 Z M337.434766,19.3528012 C336.336955,20.1170784 335.254221,20.9067647 334.185752,21.7219246 L334.792307,22.5169659 C335.849287,21.7105717 336.920288,20.9294424 338.006124,20.1735023 L337.434766,19.3528012 Z M331.044643,24.2253342 C330.020004,25.0775902 329.008439,25.9545718 328.008989,26.8565134 L328.678953,27.598907 C329.668484,26.7059171 330.669887,25.8377456 331.684114,24.994149 L331.044643,24.2253342 Z M325.062206,29.6216958 C324.110305,30.549744 323.169025,31.5017451 322.237221,32.4781986 L322.960674,33.1685716 C323.884245,32.200746 324.817071,31.2572956 325.760285,30.3377168 L325.062206,29.6216958 Z M319.522747,35.421256 C318.640477,36.4102277 317.765954,37.4224705 316.897767,38.4589008 L317.66435,39.1010452 C318.52594,38.0724911 319.393679,37.0681014 320.268962,36.0869607 L319.522747,35.421256 Z M314.359202,41.5804161 C313.540407,42.6167246 312.726026,43.6760709 311.914222,44.7600792 L312.714648,45.3595107 C313.521344,44.2823224 314.330469,43.2298135 315.143843,42.2003666 L314.359202,41.5804161 Z M309.535591,48.0163481 C308.770869,49.0888034 308.006587,50.1851027 307.240092,51.3082346 L308.066072,51.8719342 C308.828762,50.754378 309.589125,49.6636996 310.349797,48.5969236 L309.535591,48.0163481 Z M305.003042,54.6518181 C304.285386,55.7450482 303.56301,56.8647721 302.831437,58.017072 L303.675665,58.5530562 C304.404575,57.4049508 305.124205,56.2894834 305.839011,55.200594 L305.003042,54.6518181 Z M300.703353,61.4177983 C300.024144,62.5179929 299.33243,63.6518099 298.617866,64.835306 L299.473931,65.3521753 C300.186845,64.1714118 300.876849,63.0403964 301.554263,61.9431106 L300.703353,61.4177983 Z M296.564978,68.2649016 C295.929324,69.3349817 295.268831,70.4534017 294.528829,71.7117845 L295.390831,72.2186907 C296.130133,70.9614962 296.789897,69.8443121 297.424729,68.7756148 L296.564978,68.2649016 Z M292.510555,75.1519485 C291.435777,76.9861967 291.041772,77.6581278 290.487111,78.6017113 L291.349201,79.1084675 C291.904183,78.1643365 292.298325,77.4921726 293.373349,75.657503 L292.510555,75.1519485 Z M288.455285,82.042545 C287.732783,83.2590517 287.056019,84.3895139 286.402319,85.470775 L287.258081,85.9881446 C287.913213,84.9045158 288.591304,83.771837 289.315078,82.553189 L288.455285,82.042545 Z M284.315827,88.8802355 C283.588722,90.0524588 282.881633,91.1743882 282.186881,92.2571382 L283.02852,92.7971797 C283.726115,91.7099975 284.435911,90.5837736 285.165624,89.4073464 L284.315827,88.8802355 Z M280.006862,95.5856413 C279.246459,96.7214435 278.495537,97.8156028 277.749809,98.8732593 L278.567088,99.4495022 C279.317572,98.3850994 280.073044,97.284311 280.83783,96.1419622 L280.006862,95.5856413 Z M275.400098,102.106985 C274.584219,103.194757 273.770594,104.242327 272.956195,105.252464 L273.734693,105.880111 C274.55656,104.860711 275.37733,103.803941 276.200081,102.707008 L275.400098,102.106985 Z M270.394027,108.303025 C269.502189,109.320354 268.606293,110.295769 267.703884,111.230805 L268.423433,111.925247 C269.337111,110.978535 270.243795,109.991375 271.14599,108.96223 L270.394027,108.303025 Z M264.863336,114.019733 C263.877498,114.934638 262.881486,115.804423 261.873158,116.629854 L262.506595,117.403648 C263.531158,116.564927 264.542758,115.68153 265.543581,114.752717 L264.863336,114.019733 Z M258.710309,119.043946 C257.621843,119.81573 256.517401,120.53924 255.395061,121.21471 L255.910716,122.071506 C257.054675,121.383025 258.180034,120.645813 259.288719,119.859692 L258.710309,119.043946 Z M251.909639,123.130279 C250.73106,123.726728 249.537703,124.310564 248.330692,124.881005 L248.757983,125.785119 C249.973133,125.210831 251.174576,124.62304 252.361184,124.022528 L251.909639,123.130279 Z M244.701549,126.537392 C243.488253,127.071835 242.263565,127.592228 241.028397,128.097965 L241.407313,129.023396 C242.650601,128.514334 243.883355,127.990514 245.104662,127.452542 L244.701549,126.537392 Z M237.322539,129.55916 C236.082441,130.029546 234.833652,130.484787 233.576917,130.924404 L233.907107,131.868319 C235.172051,131.42583 236.428996,130.967615 237.677196,130.494156 L237.322539,129.55916 Z M229.793524,132.192727 C228.529551,132.598174 227.259049,132.987528 225.982638,133.360401 L226.263045,134.320282 C227.547853,133.944956 228.826701,133.553044 230.098966,133.144938 L229.793524,132.192727 Z M222.126177,134.43185 C220.840271,134.770821 219.549618,135.092824 218.254741,135.397533 L218.483804,136.370945 C219.787343,136.064197 221.086608,135.740046 222.381075,135.398818 L222.126177,134.43185 Z M214.351787,136.260728 C213.051531,136.529935 211.748063,136.78149 210.441829,137.015116 L210.61789,137.999495 C211.933065,137.76427 213.245428,137.510999 214.554529,137.23996 L214.351787,136.260728 Z M206.529198,137.659834 C205.215818,137.857766 203.900533,138.03737 202.583726,138.198407 L202.705115,139.191012 C204.031176,139.028844 205.355673,138.847982 206.678219,138.648668 L206.529198,137.659834 Z M198.605223,138.627808 C197.280648,138.751716 195.955316,138.856629 194.629564,138.942335 L194.694077,139.940252 C196.029408,139.853926 197.364282,139.748258 198.698362,139.623461 L198.605223,138.627808 Z M190.637822,139.1421 C189.309909,139.189103 187.982261,139.216622 186.655172,139.224468 L186.661084,140.22445 C187.998022,140.216546 189.335492,140.188824 190.673196,140.141474 L190.637822,139.1421 Z M182.659312,139.188393 C181.330744,139.156463 180.003347,139.104585 178.677383,139.03259 L178.623166,140.031119 C179.959212,140.103662 181.296673,140.155932 182.635285,140.188104 L182.659312,139.188393 Z M174.686697,138.754599 C173.363507,138.641983 172.042292,138.509087 170.723281,138.355753 L170.607809,139.349063 C171.937049,139.503586 173.268489,139.637512 174.601895,139.750997 L174.686697,138.754599 Z M166.785362,137.836094 C165.471329,137.641906 164.159979,137.427171 162.851518,137.191744 L162.674435,138.17594 C163.993186,138.413218 165.314833,138.62964 166.63917,138.82535 L166.785362,137.836094 Z M158.954953,136.427484 C157.65708,136.151726 156.362499,135.855327 155.071393,135.538155 L154.832827,136.509281 C156.134157,136.828965 157.438984,137.12771 158.747124,137.405649 L158.954953,136.427484 Z M151.217955,134.526777 C149.941599,134.170158 148.669052,133.792936 147.400476,133.394988 L147.101161,134.349143 C148.379774,134.750239 149.662394,135.130447 150.948858,135.48989 L151.217955,134.526777 Z M143.607746,132.13917 C142.356998,131.70305 141.110493,131.246464 139.868372,130.769299 L139.509769,131.702788 C140.761625,132.183694 142.017918,132.643866 143.2785,133.083414 L143.607746,132.13917 Z M136.155692,129.276113 C134.93387,128.762467 133.716648,128.228574 132.504151,127.67433 L132.088417,128.583816 C133.31025,129.142328 134.536872,129.680344 135.768151,130.197966 L136.155692,129.276113 Z M128.890983,125.955396 C127.704253,125.36848 126.522381,124.761722 125.345478,124.135029 L124.875468,125.01769 C126.0612,125.649084 127.251972,126.260411 128.44767,126.851763 L128.890983,125.955396 Z M121.853488,122.208584 C120.704151,121.552237 119.55986,120.876526 118.420716,120.181364 L117.899802,121.034973 C119.047208,121.735177 120.199837,122.415812 121.357586,123.076963 L121.853488,122.208584 Z M115.028743,118.043891 C113.920258,117.323054 112.816934,116.583442 111.718857,115.824975 L111.150529,116.647777 C112.25625,117.411524 113.367298,118.156314 114.483583,118.882223 L115.028743,118.043891 Z M108.464892,113.510819 C107.397668,112.729741 106.33567,111.930496 105.278976,111.113012 L104.667084,111.903954 C105.730797,112.726867 106.799892,113.531454 107.874292,114.317784 L108.464892,113.510819 Z M102.168796,108.641617 C101.144739,107.806129 100.125913,106.953159 99.1123878,106.082642 L98.4608283,106.84124 C99.480743,107.717245 100.506035,108.575629 101.536636,109.416455 L102.168796,108.641617 Z M96.1201243,103.447585 C95.1387063,102.561742 94.1624945,101.659094 93.1915499,100.739584 L92.5039361,101.46566 C93.4806658,102.390649 94.4627366,103.298714 95.4500872,104.189913 L96.1201243,103.447585 Z M90.33518,97.9706964 C89.3969234,97.0399435 88.463807,96.0931001 87.5358849,95.1301136 L86.8157895,95.8239887 C87.74892,96.7923804 88.6873142,97.7445792 89.6309178,98.6806363 L90.33518,97.9706964 Z M84.7912491,92.2181526 C83.8951862,91.2464243 83.0041771,90.2593026 82.1182699,89.2567399 L81.3689117,89.9189049 C82.259491,90.9267548 83.1552364,91.9191237 84.0560999,92.896058 L84.7912491,92.2181526 Z M79.5140074,86.2476409 C78.6590353,85.2391698 77.8090125,84.2159874 76.9639817,83.1780505 L76.1884923,83.809411 C77.0377039,84.8524831 77.8919663,85.8807688 78.751237,86.8943104 L79.5140074,86.2476409 Z M74.4667489,80.049127 C73.6520268,79.0079437 72.842133,77.9527219 72.0371054,76.8834227 L71.2382017,77.4848816 C72.046961,78.5591376 72.86064,79.6192911 73.6792009,80.6653804 L74.4667489,80.049127 Z M69.6726419,73.6828957 C68.8965764,72.6125013 68.1252106,71.5287115 67.3585783,70.4314909 L66.5388476,71.0042399 C67.3088085,72.1062246 68.0835512,73.194759 68.8630421,74.2698779 L69.6726419,73.6828957 Z M65.09448,67.1315108 C64.3555559,66.034805 63.6211988,64.9253159 62.891439,63.8030115 L62.0530848,64.3481374 C62.7858117,65.475005 63.5231793,66.5890423 64.2651575,67.6902809 L65.09448,67.1315108 Z M60.7420442,60.4391326 C60.0386753,59.318989 59.3397383,58.1866438 58.6452605,57.0420678 L57.7903261,57.560804 C58.4874491,58.7097396 59.1890701,59.846433 59.895162,60.9709132 L60.7420442,60.4391326 Z M56.6012199,53.6159265 C56.4022903,53.2768293 56.2037399,52.9367026 56.0055693,52.5955458 L55.1408679,53.0978321 C55.3397582,53.4402278 55.5390313,53.7815925 55.7386867,54.121927 L56.6012199,53.6159265 Z" id="Path-7" fill="#8CBEFF"></path>
                        <path d="M194.540452,139.230502 C162.882845,141.203898 132.264763,132.20545 104.881266,110.599989 L104.261853,111.385054 C131.843562,133.146905 162.705147,142.216916 194.602667,140.228565 L194.540452,139.230502 Z" id="Path-7" fill="#8CBEFF"></path>
                        <path d="M648.670579,202.502424 C615.504424,195.801522 582.466686,181.197853 556.875603,161.595587 L556.267515,162.389456 C581.982249,182.086437 615.160603,196.752262 648.47254,203.482619 L648.670579,202.502424 Z" id="Path-7" fill="#8CBEFF"></path>
                        <path d="M464.879409,21.5985308 C456.900811,15.3643545 447.338491,10.6864053 435.703233,7.51017102 L435.439885,8.47487205 C446.950211,11.617002 456.392452,16.2362076 464.26371,22.3865122 L464.879409,21.5985308 Z" id="Path-7" fill="#8CBEFF"></path>
                        <path d="M406.602626,2.82296741 C387.694725,1.64588925 371.468541,3.62299988 357.407107,8.52033993 L357.736011,9.46470315 C371.666726,4.61289021 387.760465,2.65191763 406.540493,3.82103529 L406.602626,2.82296741 Z" id="Path-7" fill="#8CBEFF"></path>
                        <g id="paper-plane" transform="translate(47.500000, 32.000000) scale(-1, 1) rotate(-2.000000) translate(-47.500000, -32.000000) translate(2.000000, 2.000000)">
                            <polygon id="Path" fill="#EFF6FF" points="27.0707326 33.1578947 90.9157509 0 37.6056464 39.4736842 69.5853962 60 90.9157509 0 0.201465201 18.9473684"></polygon>
                            <polygon id="Path" fill="#B6D6FF" points="37.6056464 39.4736842 31.4326499 60 27.0707326 33.1578947 90.9157509 0"></polygon>
                            <polygon id="Path" fill="#599EF7" points="37.6056464 39.4736842 31.4326499 60 50.5586081 47.8571429"></polygon>
                        </g>
                    </g>
                </g>
            </g>
        </g>
    </g>
</svg>