<?xml version="1.0" encoding="UTF-8"?>
<svg width="28px" height="32px" viewBox="0 0 28 32" version="1.1" xmlns="http://www.w3.org/2000/svg" xmlns:xlink="http://www.w3.org/1999/xlink">
    <!-- Generator: Sketch 58 (84663) - https://sketch.com -->
    <title>pdf</title>
    <desc>Created with Sketch.</desc>
    <g id="designs" stroke="none" stroke-width="1" fill="none" fill-rule="evenodd">
        <g id="06-EstateFunder-investments" transform="translate(-540.000000, -4281.000000)" fill-rule="nonzero">
            <g id="pdf" transform="translate(540.000000, 4281.000000)">
                <path d="M2.03108487,0 L18.9994982,0 L27.9934908,8.9508129 L27.9934908,29.9290839 C27.9934908,31.0314323 27.0988339,31.9243355 25.9963985,31.9243355 L2.03108487,31.9243355 C0.928649446,31.9243355 0.0339926199,31.0314323 0.0339926199,29.9290839 L0.0339926199,1.99525161 C0.0339926199,0.892903226 0.928752768,0 2.03108487,0 Z" id="Path" fill="#E2574C"></path>
                <path d="M27.9646642,8.97868387 L21.0037196,8.97868387 C19.9012841,8.97868387 19.0066273,8.08485161 19.0066273,6.98343226 L19.0066273,0.0199225806 L27.9646642,8.97868387 Z" id="Path" fill="#B53629"></path>
                <path d="M20.5024059,15.1271226 C20.8369594,15.1271226 21.0007232,14.8358194 21.0007232,14.5534968 C21.0007232,14.2611613 20.8299336,13.9788387 20.5024059,13.9788387 L18.5971661,13.9788387 C18.2246937,13.9788387 18.0170185,14.287071 18.0170185,14.6273032 L18.0170185,19.3051871 C18.0170185,19.7222194 18.2546568,19.9536516 18.5761919,19.9536516 C18.8957638,19.9536516 19.1344354,19.7222194 19.1344354,19.3051871 L19.1344354,18.0212645 L20.2867749,18.0212645 C20.6442657,18.0212645 20.8230111,17.728929 20.8230111,17.4386581 C20.8230111,17.1543742 20.6442657,16.8719484 20.2867749,16.8719484 L19.1344354,16.8719484 L19.1344354,15.1271226 C19.1344354,15.1271226 20.5024059,15.1271226 20.5024059,15.1271226 Z M14.0627159,13.9788387 L12.6687085,13.9788387 C12.2902435,13.9788387 12.0216089,14.2382452 12.0216089,14.6232774 L12.0216089,19.3092129 C12.0216089,19.7870452 12.4080295,19.9367226 12.6846199,19.9367226 L14.1475424,19.9367226 C15.8789963,19.9367226 17.0223469,18.7984516 17.0223469,17.0415484 C17.021417,15.184 15.9450185,13.9788387 14.0627159,13.9788387 Z M14.1296679,18.7815226 L13.2798524,18.7815226 L13.2798524,15.1341419 L14.0457712,15.1341419 C15.2051365,15.1341419 15.7093432,15.911329 15.7093432,16.9837419 C15.7093432,17.9874065 15.2140221,18.7815226 14.1296679,18.7815226 Z M9.02302583,13.9788387 L7.6420369,13.9788387 C7.25158672,13.9788387 7.0338893,14.2361806 7.0338893,14.6273032 L7.0338893,19.3051871 C7.0338893,19.7222194 7.28351292,19.9536516 7.61899631,19.9536516 C7.9544797,19.9536516 8.20410332,19.7222194 8.20410332,19.3051871 L8.20410332,17.9394065 L9.06983026,17.9394065 C10.1382731,17.9394065 11.0200148,17.1831742 11.0200148,15.967071 C11.0201181,14.7769806 10.1693727,13.9788387 9.02302583,13.9788387 Z M9.00008856,16.8421161 L8.20420664,16.8421161 L8.20420664,15.0772645 L9.00008856,15.0772645 C9.49138007,15.0772645 9.8039262,15.4603355 9.8039262,15.9601548 C9.80289299,16.4590452 9.49138007,16.8421161 9.00008856,16.8421161 Z" id="Shape" fill="#FFFFFF"></path>
            </g>
        </g>
    </g>
</svg>