<?xml version="1.0" encoding="UTF-8"?>
<svg width="50px" height="70px" viewBox="0 0 50 70" version="1.1" xmlns="http://www.w3.org/2000/svg" xmlns:xlink="http://www.w3.org/1999/xlink">
    <!-- Generator: Sketch 58 (84663) - https://sketch.com -->
    <title>pin</title>
    <desc>Created with Sketch.</desc>
    <g id="designs" stroke="none" stroke-width="1" fill="none" fill-rule="evenodd">
        <g id="06-EstateFunder-investments" transform="translate(-1154.000000, -3077.000000)">
            <g id="map" transform="translate(740.000000, 2997.000000)">
                <g id="pin" transform="translate(414.000000, 80.000000)">
                    <path d="M29.2889833,58.7381125 C43.0963278,44.624079 50,33.3780415 50,25 C50,11.1928813 38.8071187,0 25,0 C11.1928813,0 0,11.1928813 0,25 C0,33.3780409 6.90367129,44.6240774 20.7110139,58.7381096 L20.711011,58.7381124 C23.0282813,61.106854 26.8270446,61.1485798 29.1957862,58.8313095 C29.2271922,58.800586 29.2582598,58.7695184 29.2889833,58.7381125 Z" id="Oval" fill="#4C84FF"></path>
                    <circle id="Oval" fill="#4C84FF" cx="25" cy="67" r="3"></circle>
                    <path d="M35.4705882,13 L35.4705882,34.7604934 L37,34.7604934 L37,36.2899052 L33.9411765,36.2899052 L33.9411765,15.2268692 L25.5294118,18.4621633 L25.5294118,20.3585326 L28.5882353,19.0840228 L28.5882353,36.2899052 L24,36.2899052 L24,23.498 L25.529,22.942 L25.5294118,34.7604934 L27.0588235,34.7604934 L27.0588235,21.3781405 L22.4705882,23.2899052 L19.4117647,24.564415 L19.4117647,26.4610109 L22.4705882,25.209674 L22.4705882,36.2899052 L17.8823529,36.2899052 L17.882,29.56 L19.411,28.948 L19.4117647,34.7604934 L20.9411765,34.7604934 L20.9411765,27.4877835 L19.4117647,28.1134519 L19.411,28.125 L17.882,28.755 L17.8823529,28.7391204 L14.0588235,30.3032915 L14.0588235,36.2899052 L11,36.2899052 L11,34.7604934 L12.5294118,34.7604934 L12.5294118,29.2765189 L17.8823529,27.0866793 L17.8823529,23.5448072 L24,20.9957875 L24,17.4117647 L35.4705882,13 Z" id="Combined-Shape" fill="#FFFFFF" fill-rule="nonzero"></path>
                </g>
            </g>
        </g>
    </g>
</svg>