<?xml version="1.0" encoding="UTF-8"?>
<svg width="50px" height="50px" viewBox="0 0 50 50" version="1.1" xmlns="http://www.w3.org/2000/svg" xmlns:xlink="http://www.w3.org/1999/xlink">
    <!-- Generator: Sketch 58 (84663) - https://sketch.com -->
    <title>pointer 1</title>
    <desc>Created with Sketch.</desc>
    <defs>
        <path d="M10,20 C15.5228475,20 20,15.5228475 20,10 C20,4.4771525 15.5228475,0 10,0 C4.4771525,0 0,4.4771525 0,10 C0,15.5228475 4.4771525,20 10,20 Z" id="path-1"></path>
        <filter x="-125.0%" y="-100.0%" width="350.0%" height="350.0%" filterUnits="objectBoundingBox" id="filter-2">
            <feOffset dx="0" dy="5" in="SourceAlpha" result="shadowOffsetOuter1"></feOffset>
            <feGaussianBlur stdDeviation="7.5" in="shadowOffsetOuter1" result="shadowBlurOuter1"></feGaussianBlur>
            <feColorMatrix values="0 0 0 0 0.470274255   0 0 0 0 0.239542904   0 0 0 0 0.736752717  0 0 0 0.45 0" type="matrix" in="shadowBlurOuter1"></feColorMatrix>
        </filter>
    </defs>
    <g id="designs" stroke="none" stroke-width="1" fill="none" fill-rule="evenodd">
        <g id="09-EstateFunder-dashboard" transform="translate(-251.000000, -654.000000)">
            <g id="Group-7" transform="translate(140.000000, 282.000000)">
                <g id="graph" transform="translate(0.000000, 69.000000)">
                    <g id="Group-4" transform="translate(126.000000, 202.000000)">
                        <g id="pointer-1" transform="translate(0.000000, 111.000000)">
                            <g id="Oval">
                                <use fill="black" fill-opacity="1" filter="url(#filter-2)" xlink:href="#path-1"></use>
                                <use fill="#FFFFFF" fill-rule="evenodd" xlink:href="#path-1"></use>
                            </g>
                            <path d="M10,15 C12.7614237,15 15,12.7614237 15,10 C15,7.23857625 12.7614237,5 10,5 C7.23857625,5 5,7.23857625 5,10 C5,12.7614237 7.23857625,15 10,15 Z" id="Oval" fill="#9D54EE"></path>
                        </g>
                    </g>
                </g>
            </g>
        </g>
    </g>
</svg>