<?xml version="1.0" encoding="UTF-8"?>
<svg width="84px" height="84px" viewBox="0 0 84 84" version="1.1" xmlns="http://www.w3.org/2000/svg" xmlns:xlink="http://www.w3.org/1999/xlink">
    <!-- Generator: Sketch 58 (84663) - https://sketch.com -->
    <title>returns</title>
    <desc>Created with Sketch.</desc>
    <g id="designs" stroke="none" stroke-width="1" fill="none" fill-rule="evenodd">
        <g id="02-EstateFunder-aternative-v5" transform="translate(-1078.000000, -3951.000000)" fill-rule="nonzero">
            <g id="benefits" transform="translate(196.000000, 3747.000000)">
                <g id="access" transform="translate(800.000000, 204.000000)">
                    <g id="returns" transform="translate(82.000000, 0.000000)">
                        <polygon id="Path" fill="#A1D2FF" points="8.12903226 6.77419355 14.9032258 6.77419355 14.9032258 44.7096774 8.12903226 44.7096774"></polygon>
                        <path d="M71.8064516,43.3548387 L71.8064516,9.48387097 L64.4712702,9.48387097 L48.2132056,25.7419355 L24.9844695,25.7419355 L16.2580645,39.9227571 L16.2580645,0 L13.5483871,0 L13.5483871,5.41935484 L8.12903226,5.41935484 L8.12903226,8.12903226 L13.5483871,8.12903226 L13.5483871,13.5483871 L8.12903226,13.5483871 L8.12903226,16.2580645 L13.5483871,16.2580645 L13.5483871,21.6774194 L8.12903226,21.6774194 L8.12903226,24.3870968 L13.5483871,24.3870968 L13.5483871,29.8064516 L8.12903226,29.8064516 L8.12903226,32.516129 L13.5483871,32.516129 L13.5483871,37.9354839 L8.12903226,37.9354839 L8.12903226,40.6451613 L13.5483871,40.6451613 L13.5483871,43.3548387 L0,43.3548387 L0,84 L84,84 L84,43.3548387 L71.8064516,43.3548387 Z M69.0967742,43.3548387 L66.3870968,43.3548387 L66.3870968,12.1935484 L69.0967742,12.1935484 L69.0967742,43.3548387 Z M63.6774194,43.3548387 L60.9677419,43.3548387 L60.9677419,16.8190524 L63.6774194,14.109375 L63.6774194,43.3548387 Z M25.7419355,29.6820817 L25.7419355,43.3548387 L23.0322581,43.3548387 L23.0322581,34.0853075 L25.7419355,29.6820817 Z M17.3271169,43.3548387 L20.3225806,38.4885333 L20.3225806,43.3548387 L17.3271169,43.3548387 Z M81.2903226,81.2903226 L2.70967742,81.2903226 L2.70967742,46.0645161 L28.4516129,46.0645161 L28.4516129,28.4516129 L31.1612903,28.4516129 L31.1612903,42 L33.8709677,42 L33.8709677,28.4516129 L36.5806452,28.4516129 L36.5806452,39.2903226 L39.2903226,39.2903226 L39.2903226,28.4516129 L42,28.4516129 L42,39.2903226 L44.7096774,39.2903226 L44.7096774,28.4516129 L47.4193548,28.4516129 L47.4193548,40.6451613 L50.1290323,40.6451613 L50.1290323,27.6577621 L52.8387097,24.9480847 L52.8387097,43.3548387 L55.5483871,43.3548387 L55.5483871,22.2384073 L58.2580645,19.5287298 L58.2580645,43.3548387 L55.5483871,43.3548387 L55.5483871,46.0645161 L81.2903226,46.0645161 L81.2903226,81.2903226 Z" id="Shape" fill="#3F89E8"></path>
                        <path d="M42,78.5806452 C30.7941343,78.5806452 21.6774194,69.4639302 21.6774194,58.2580645 C21.6774194,47.0521988 30.7941343,37.9354839 42,37.9354839 C53.2058657,37.9354839 62.3225806,47.0521988 62.3225806,58.2580645 C62.3225806,69.4639302 53.2058657,78.5806452 42,78.5806452 Z" id="Path" fill="#A1D2FF"></path>
                        <path d="M8.12903226,71.8064516 L8.12903226,75.8709677 L12.1935484,75.8709677 L12.1935484,78.5806452 L5.41935484,78.5806452 L5.41935484,71.8064516 L8.12903226,71.8064516 Z M78.5806452,71.8064516 L78.5806452,78.5806452 L71.8064516,78.5806452 L71.8064516,75.8709677 L75.8709677,75.8709677 L75.8709677,71.8064516 L78.5806452,71.8064516 Z M42,43.3548387 C50.2170173,43.3548387 56.9032258,50.0410472 56.9032258,58.2580645 C56.9032258,66.4750819 50.2170173,73.1612903 42,73.1612903 C33.7829827,73.1612903 27.0967742,66.4750819 27.0967742,58.2580645 C27.0967742,50.0410472 33.7829827,43.3548387 42,43.3548387 Z M42,46.0645161 C35.2760837,46.0645161 29.8064516,51.5354714 29.8064516,58.2580645 C29.8064516,64.9806577 35.2760837,70.4516129 42,70.4516129 C48.7239163,70.4516129 54.1935484,64.9806577 54.1935484,58.2580645 C54.1935484,51.5354714 48.7239163,46.0645161 42,46.0645161 Z M43.3548387,50.1290323 L43.3548387,51.7332724 C44.8650604,52.2718208 45.9728952,53.6669661 46.0591056,55.3380999 L46.0645161,55.5483871 L43.3548387,55.5483871 C43.3548387,54.8021673 42.7475428,54.1935484 42,54.1935484 C41.2524572,54.1935484 40.6451613,54.8021673 40.6451613,55.5483871 C40.6451613,56.2946069 41.2524572,56.9032258 42,56.9032258 C44.2406439,56.9032258 46.0645161,58.727098 46.0645161,60.9677419 C46.0645161,62.6608669 45.0170902,64.1021952 43.5414759,64.7111187 L43.3548387,64.7828566 L43.3548387,66.3870968 L40.6451613,66.3870968 L40.6451613,64.7828566 C39.1349396,64.2443083 38.0271048,62.849163 37.9408944,61.1780291 L37.9354839,60.9677419 L40.6451613,60.9677419 C40.6451613,61.7139617 41.2524572,62.3225806 42,62.3225806 C42.7475428,62.3225806 43.3548387,61.7139617 43.3548387,60.9677419 C43.3548387,60.2215222 42.7475428,59.6129032 42,59.6129032 C39.7593561,59.6129032 37.9354839,57.789031 37.9354839,55.5483871 C37.9354839,53.8552622 38.9829098,52.4139338 40.4585241,51.8050104 L40.6451613,51.7332724 L40.6451613,50.1290323 L43.3548387,50.1290323 Z M78.5806452,62.3225806 L78.5806452,65.0322581 L75.8709677,65.0322581 L75.8709677,62.3225806 L78.5806452,62.3225806 Z M73.1612903,62.3225806 L73.1612903,65.0322581 L70.4516129,65.0322581 L70.4516129,62.3225806 L73.1612903,62.3225806 Z M67.7419355,62.3225806 L67.7419355,65.0322581 L65.0322581,65.0322581 L65.0322581,62.3225806 L67.7419355,62.3225806 Z M18.9677419,62.3225806 L18.9677419,65.0322581 L16.2580645,65.0322581 L16.2580645,62.3225806 L18.9677419,62.3225806 Z M13.5483871,62.3225806 L13.5483871,65.0322581 L10.8387097,65.0322581 L10.8387097,62.3225806 L13.5483871,62.3225806 Z M8.12903226,62.3225806 L8.12903226,65.0322581 L5.41935484,65.0322581 L5.41935484,62.3225806 L8.12903226,62.3225806 Z M12.1935484,48.7741935 L12.1935484,51.483871 L8.12903226,51.483871 L8.12903226,55.5483871 L5.41935484,55.5483871 L5.41935484,48.7741935 L12.1935484,48.7741935 Z M78.5806452,48.7741935 L78.5806452,55.5483871 L75.8709677,55.5483871 L75.8709677,51.483871 L71.8064516,51.483871 L71.8064516,48.7741935 L78.5806452,48.7741935 Z M67.7419355,-2.84217094e-14 L67.7419355,6.77419355 L65.0322581,6.77419355 L65.0322581,4.62550403 L46.625504,23.0322581 L18.9677419,23.0322581 L18.9677419,20.3225806 L45.5035282,20.3225806 L63.1164315,2.70967742 L60.9677419,2.70967742 L60.9677419,-2.84217094e-14 L67.7419355,-2.84217094e-14 Z" id="Combined-Shape" fill="#3F89E8"></path>
                    </g>
                </g>
            </g>
        </g>
    </g>
</svg>