<?xml version="1.0" encoding="UTF-8"?>
<svg width="100px" height="74px" viewBox="0 0 100 74" version="1.1" xmlns="http://www.w3.org/2000/svg" xmlns:xlink="http://www.w3.org/1999/xlink">
    <!-- Generator: Sketch 58 (84663) - https://sketch.com -->
    <title>security</title>
    <desc>Created with Sketch.</desc>
    <g id="designs" stroke="none" stroke-width="1" fill="none" fill-rule="evenodd">
        <g id="03-EstateFunder-edirect-investments-edirect-tab" transform="translate(-670.000000, -2439.000000)" fill-rule="nonzero">
            <g id="key-benefits" transform="translate(86.000000, 830.000000)">
                <g id="Group-10" transform="translate(54.000000, 1344.000000)">
                    <g id="access" transform="translate(444.000000, 192.000000)">
                        <g id="security" transform="translate(86.000000, 73.000000)">
                            <circle id="Oval" fill="#3C92CA" cx="6.7755102" cy="37.6326531" r="4.91836735"></circle>
                            <circle id="Oval" fill="#3C92CA" cx="6.7755102" cy="8.67346939" r="4.91836735"></circle>
                            <circle id="Oval" fill="#3C92CA" cx="6.7755102" cy="66.5714286" r="4.91836735"></circle>
                            <circle id="Oval" fill="#3C92CA" cx="93.1020408" cy="37.6326531" r="4.91836735"></circle>
                            <circle id="Oval" fill="#3C92CA" cx="93.1020408" cy="66.5714286" r="4.91836735"></circle>
                            <circle id="Oval" fill="#3C92CA" cx="93.1020408" cy="8.67346939" r="4.91836735"></circle>
                            <g id="Group">
                                <path d="M65.1836735,22 L64.6326531,22 L64.6326531,14.6938776 C64.6326531,6.59183673 58.0408163,0 49.9387755,0 C41.8367347,0 35.244898,6.59183673 35.244898,14.6938776 C35.244898,15.7142857 36.0816327,16.5510204 37.1020408,16.5510204 C38.122449,16.5510204 38.9591837,15.7142857 38.9591837,14.6938776 C38.9591837,8.63265306 43.8979592,3.69387755 49.9591837,3.69387755 C56.0204082,3.69387755 60.9591837,8.63265306 60.9591837,14.6938776 L60.9591837,22 L34.6938776,22 C32.0408163,22 29.877551,24.1632653 29.877551,26.8163265 L29.877551,46.877551 C29.877551,49.5306122 32.0408163,51.6938776 34.6938776,51.6938776 L65.1632653,51.6938776 C67.8163265,51.6938776 69.9795918,49.5306122 69.9795918,46.877551 L69.9795918,26.8163265 C69.9795918,24.1632653 67.8367347,22 65.1836735,22 Z M66.2857143,46.8571429 C66.2857143,47.4693878 65.7959184,47.9591837 65.1836735,47.9591837 L34.6938776,47.9591837 C34.0816327,47.9591837 33.5918367,47.4693878 33.5918367,46.8571429 L33.5918367,26.7959184 C33.5918367,26.1836735 34.0816327,25.6938776 34.6938776,25.6938776 L65.1632653,25.6938776 C65.7755102,25.6938776 66.2653061,26.1836735 66.2653061,26.7959184 L66.2653061,46.8571429 L66.2857143,46.8571429 Z" id="Shape" fill="#FFFFFF"></path>
                                <path d="M50.4693878,31.6122449 C49.122449,31.3469388 47.7142857,32.1020408 47.1428571,33.3877551 C46.5510204,34.7142857 46.9387755,36.2040816 48.1428571,37.0816327 C48.3877551,37.2653061 48.4285714,37.4285714 48.4285714,37.6938776 C48.4285714,39.0204082 48.4285714,40.3265306 48.4285714,41.6530612 L48.4285714,41.6530612 C48.4285714,42.7346939 49.5714286,43.5714286 50.7346939,42.9795918 C51.2244898,42.7346939 51.5102041,42.2040816 51.4693878,41.6530612 L51.4693878,41.6530612 C51.4693878,40.3265306 51.4693878,39.0204082 51.4693878,37.6938776 C51.4693878,37.4081633 51.5306122,37.2244898 51.7959184,37.0408163 C52.6326531,36.4285714 53.0408163,35.5918367 53.0408163,34.5714286 C53,33.1020408 51.9591837,31.8979592 50.4693878,31.6122449 Z" id="Path" fill="#A1D2FF"></path>
                                <path d="M23.5510204,35.7755102 L13.2857143,35.7755102 C12.4693878,32.9387755 9.87755102,30.8571429 6.7755102,30.8571429 C3.04081633,30.8571429 0,33.8979592 0,37.6326531 C0,41.3673469 3.04081633,44.4081633 6.7755102,44.4081633 C9.85714286,44.4081633 12.4693878,42.3265306 13.2857143,39.4897959 L23.5714286,39.4897959 C24.5918367,39.4897959 25.4285714,38.6530612 25.4285714,37.6326531 C25.4081633,36.6122449 24.5714286,35.7755102 23.5510204,35.7755102 Z M6.7755102,40.6938776 C5.08163265,40.6938776 3.71428571,39.3265306 3.71428571,37.6326531 C3.71428571,35.9387755 5.08163265,34.5714286 6.7755102,34.5714286 C8.46938776,34.5714286 9.83673469,35.9387755 9.83673469,37.6326531 C9.83673469,39.3265306 8.46938776,40.6938776 6.7755102,40.6938776 Z" id="Shape" fill="#A1D2FF"></path>
                                <path d="M23.5510204,24.8979592 L12.3061224,24.8979592 C10.2857143,24.8979592 8.63265306,23.244898 8.63265306,21.2244898 L8.63265306,15.1836735 C11.4693878,14.3673469 13.5510204,11.7755102 13.5510204,8.67346939 C13.5510204,4.93877551 10.5102041,1.89795918 6.7755102,1.89795918 C3.04081633,1.89795918 0,4.93877551 0,8.67346939 C0,11.755102 2.08163265,14.3673469 4.91836735,15.1836735 L4.91836735,21.2244898 C4.91836735,25.2857143 8.2244898,28.5918367 12.2857143,28.5918367 L23.5510204,28.5918367 C24.5714286,28.5918367 25.4081633,27.755102 25.4081633,26.7346939 C25.4081633,25.7142857 24.5714286,24.8979592 23.5510204,24.8979592 Z M3.69387755,8.67346939 C3.69387755,6.97959184 5.06122449,5.6122449 6.75510204,5.6122449 C8.44897959,5.6122449 9.81632653,6.97959184 9.81632653,8.67346939 C9.81632653,10.3673469 8.44897959,11.7346939 6.75510204,11.7346939 C5.06122449,11.7346939 3.69387755,10.3673469 3.69387755,8.67346939 Z" id="Shape" fill="#FFFFFF"></path>
                                <path d="M23.5510204,46.6530612 L12.3061224,46.6530612 C8.24489796,46.6530612 4.93877551,49.9591837 4.93877551,54.0204082 L4.93877551,60.0612245 C2.10204082,60.877551 0.0204081633,63.4693878 0.0204081633,66.5714286 C0.0204081633,70.3061224 3.06122449,73.3469388 6.79591837,73.3469388 C10.5306122,73.3469388 13.5714286,70.3061224 13.5714286,66.5714286 C13.5714286,63.4897959 11.4897959,60.877551 8.65306122,60.0612245 L8.65306122,54.0204082 C8.65306122,52 10.3061224,50.3469388 12.3265306,50.3469388 L23.5918367,50.3469388 C24.6122449,50.3469388 25.4489796,49.5102041 25.4489796,48.4897959 C25.4081633,47.4897959 24.5714286,46.6530612 23.5510204,46.6530612 Z M9.83673469,66.5714286 C9.83673469,68.2653061 8.46938776,69.6326531 6.7755102,69.6326531 C5.08163265,69.6326531 3.71428571,68.2653061 3.71428571,66.5714286 C3.71428571,64.877551 5.08163265,63.5102041 6.7755102,63.5102041 C8.46938776,63.5102041 9.83673469,64.877551 9.83673469,66.5714286 Z" id="Shape" fill="#FFFFFF"></path>
                                <path d="M93.1020408,30.8571429 C90.0204082,30.8571429 87.4081633,32.9387755 86.5918367,35.7755102 L76.3061224,35.7755102 C75.2857143,35.7755102 74.4489796,36.6122449 74.4489796,37.6326531 C74.4489796,38.6530612 75.2857143,39.4897959 76.3061224,39.4897959 L86.5918367,39.4897959 C87.4081633,42.3265306 90,44.4081633 93.1020408,44.4081633 C96.8367347,44.4081633 99.877551,41.3673469 99.877551,37.6326531 C99.877551,33.8979592 96.8367347,30.8571429 93.1020408,30.8571429 Z M93.1020408,40.6938776 C91.4081633,40.6938776 90.0408163,39.3265306 90.0408163,37.6326531 C90.0408163,35.9387755 91.4081633,34.5714286 93.1020408,34.5714286 C94.7959184,34.5714286 96.1632653,35.9387755 96.1632653,37.6326531 C96.1836735,39.3265306 94.7959184,40.6938776 93.1020408,40.6938776 Z" id="Shape" fill="#A1D2FF"></path>
                                <path d="M94.9591837,60.0612245 L94.9591837,54.0204082 C94.9591837,49.9591837 91.6530612,46.6530612 87.5918367,46.6530612 L76.3265306,46.6530612 C75.3061224,46.6530612 74.4693878,47.4897959 74.4693878,48.5102041 C74.4693878,49.5306122 75.3061224,50.3673469 76.3265306,50.3673469 L87.5918367,50.3673469 C89.6122449,50.3673469 91.2653061,52.0204082 91.2653061,54.0408163 L91.2653061,60.0816327 C88.4285714,60.8979592 86.3469388,63.4897959 86.3469388,66.5918367 C86.3469388,70.3265306 89.3877551,73.3673469 93.122449,73.3673469 C96.8571429,73.3673469 99.8979592,70.3265306 99.8979592,66.5918367 C99.877551,63.4897959 97.7959184,60.877551 94.9591837,60.0612245 Z M93.1020408,69.6530612 C91.4081633,69.6530612 90.0408163,68.2857143 90.0408163,66.5918367 C90.0408163,64.8979592 91.4081633,63.5306122 93.1020408,63.5306122 C94.7959184,63.5306122 96.1632653,64.8979592 96.1632653,66.5918367 C96.1836735,68.2653061 94.7959184,69.6530612 93.1020408,69.6530612 Z" id="Shape" fill="#FFFFFF"></path>
                                <path d="M76.3265306,28.5918367 L87.5918367,28.5918367 C91.6530612,28.5918367 94.9591837,25.2857143 94.9591837,21.2244898 L94.9591837,15.1836735 C97.7959184,14.3673469 99.877551,11.7755102 99.877551,8.67346939 C99.877551,4.93877551 96.8367347,1.89795918 93.1020408,1.89795918 C89.3673469,1.89795918 86.3265306,4.93877551 86.3265306,8.67346939 C86.3265306,11.755102 88.4081633,14.3673469 91.244898,15.1836735 L91.244898,21.2244898 C91.244898,23.244898 89.5918367,24.8979592 87.5714286,24.8979592 L76.3061224,24.8979592 C75.2857143,24.8979592 74.4489796,25.7346939 74.4489796,26.755102 C74.4693878,27.755102 75.3061224,28.5918367 76.3265306,28.5918367 Z M90.0408163,8.67346939 C90.0408163,6.97959184 91.4081633,5.6122449 93.1020408,5.6122449 C94.7959184,5.6122449 96.1632653,6.97959184 96.1632653,8.67346939 C96.1632653,10.3673469 94.7959184,11.7346939 93.1020408,11.7346939 C91.4081633,11.7346939 90.0408163,10.3673469 90.0408163,8.67346939 Z" id="Shape" fill="#FFFFFF"></path>
                            </g>
                        </g>
                    </g>
                </g>
            </g>
        </g>
    </g>
</svg>