<?xml version="1.0" encoding="UTF-8"?>
<svg width="84px" height="84px" viewBox="0 0 84 84" version="1.1" xmlns="http://www.w3.org/2000/svg" xmlns:xlink="http://www.w3.org/1999/xlink">
    <!-- Generator: Sketch 58 (84663) - https://sketch.com -->
    <title>transparency</title>
    <desc>Created with Sketch.</desc>
    <g id="designs" stroke="none" stroke-width="1" fill="none" fill-rule="evenodd">
        <g id="02-EstateFunder-aternative-v5" transform="translate(-878.000000, -4234.000000)" fill-rule="nonzero">
            <g id="benefits" transform="translate(196.000000, 3747.000000)">
                <g id="access" transform="translate(600.000000, 487.000000)">
                    <g id="transparency" transform="translate(82.000000, 0.000000)">
                        <g id="Group" transform="translate(8.129032, 6.774194)" fill="#A1D2FF">
                            <path d="M25.7419355,63.6774194 L25.7419355,71.8064516 L7.10542736e-15,71.8064516 L7.10542736e-15,63.6774194 L25.7419355,63.6774194 Z M43.3548387,37.9354839 L43.3548387,59.6129032 L21.6774194,59.6129032 L21.6774194,37.9354839 L43.3548387,37.9354839 Z M40.6451613,13.5483871 L40.6451613,32.516129 L35.2258065,32.516129 L35.2258065,13.5483871 L40.6451613,13.5483871 Z M29.8064516,17.6129032 L29.8064516,32.516129 L24.3870968,32.516129 L24.3870968,17.6129032 L29.8064516,17.6129032 Z M18.9677419,21.6774194 L18.9677419,32.516129 L13.5483871,32.516129 L13.5483871,21.6774194 L18.9677419,21.6774194 Z M8.12903226,27.0967742 L8.12903226,32.516129 L2.70967742,32.516129 L2.70967742,27.0967742 L8.12903226,27.0967742 Z M25.7419355,1.10134124e-13 L25.7419355,8.12903226 L7.10542736e-15,8.12903226 L7.10542736e-15,1.10134124e-13 L25.7419355,1.10134124e-13 Z" id="Combined-Shape"></path>
                        </g>
                        <path d="M45.2706653,0 L59.6129032,14.3422379 L59.6129032,54.092994 L70.6778605,18.3472153 C71.5669734,15.4761214 74.1813887,13.5483871 77.1867754,13.5483871 C80.8654057,13.5483871 83.872349,16.4786923 83.9960417,20.127739 L84,20.3616117 L84,20.8564454 C84,21.4231666 83.9292518,21.9862127 83.790435,22.5337155 L83.6989982,22.8602571 L67.5646421,75.2993952 L59.6129032,81.9240802 L59.6129032,84 L-5.68434189e-14,84 L-5.68434189e-14,0 L45.2706653,0 Z M43.3548387,2.70967742 L2.70967742,2.70967742 L2.70967742,81.2903226 L56.8489794,81.2903226 L54.1353327,71.7899131 L54.2544103,71.4055569 L56.9032258,62.8485068 L56.9032258,16.2580645 L43.3548387,16.2580645 L43.3548387,2.70967742 Z M57.4953062,73.6898627 L58.9884073,78.9180318 L63.4703566,75.1829637 L57.4953062,73.6898627 Z M33.8709677,75.8709677 L33.8709677,78.5806452 L13.5483871,78.5806452 L13.5483871,75.8709677 L33.8709677,75.8709677 Z M10.8387097,75.8709677 L10.8387097,78.5806452 L8.12903226,78.5806452 L8.12903226,75.8709677 L10.8387097,75.8709677 Z M33.8709677,70.4516129 L33.8709677,73.1612903 L13.5483871,73.1612903 L13.5483871,70.4516129 L33.8709677,70.4516129 Z M10.8387097,70.4516129 L10.8387097,73.1612903 L8.12903226,73.1612903 L8.12903226,70.4516129 L10.8387097,70.4516129 Z M74.2832661,34.830204 L62.6870905,72.1954385 L65.4701992,72.890058 L76.9023123,35.7391633 L74.2832661,34.830204 Z M68.9816657,32.991778 L57.2664125,70.8405998 L60.0534903,71.5378653 L71.7211127,33.9430758 L68.9816657,32.991778 Z M17.6129032,43.3548387 L17.6129032,46.0645161 C20.5288529,46.0645161 22.9133646,48.3779072 23.0279476,51.2661984 L23.0322581,51.483871 L23.0322581,52.8387097 L20.3225806,52.8387097 L20.3225806,51.483871 C20.3225806,50.0447958 19.1956792,48.8645953 17.7777539,48.779147 L17.6129032,48.7741935 L14.9032258,48.7741935 C13.4088016,48.7741935 12.1935484,49.9894468 12.1935484,51.483871 C12.1935484,52.9229461 13.3204499,54.1031467 14.7383751,54.1885949 L14.9032258,54.1935484 L17.6129032,54.1935484 C20.6017516,54.1935484 23.0322581,56.6240549 23.0322581,59.6129032 C23.0322581,62.5288529 20.718867,64.9133646 17.8305758,65.0279476 L17.6129032,65.0322581 L17.6129032,67.7419355 L14.9032258,67.7419355 L14.9032258,65.0322581 C11.9872762,65.0322581 9.60276441,62.718867 9.48818141,59.8305758 L9.48387097,59.6129032 L9.48387097,58.2580645 L12.1935484,58.2580645 L12.1935484,59.6129032 C12.1935484,61.0519784 13.3204499,62.2321789 14.7383751,62.3176272 L14.9032258,62.3225806 L17.6129032,62.3225806 C19.1073274,62.3225806 20.3225806,61.1073274 20.3225806,59.6129032 C20.3225806,58.1738281 19.1956792,56.9936275 17.7777539,56.9081793 L17.6129032,56.9032258 L14.9032258,56.9032258 C11.9143774,56.9032258 9.48387097,54.4727193 9.48387097,51.483871 C9.48387097,48.5679213 11.797262,46.1834096 14.6855532,46.0688266 L14.9032258,46.0645161 L14.9032258,43.3548387 L17.6129032,43.3548387 Z M51.483871,65.0322581 L51.483871,67.7419355 L29.8064516,67.7419355 L29.8064516,65.0322581 L51.483871,65.0322581 Z M51.483871,59.6129032 L51.483871,62.3225806 L29.8064516,62.3225806 L29.8064516,59.6129032 L51.483871,59.6129032 Z M51.483871,54.1935484 L51.483871,56.9032258 L29.8064516,56.9032258 L29.8064516,54.1935484 L51.483871,54.1935484 Z M51.483871,48.7741935 L51.483871,51.483871 L29.8064516,51.483871 L29.8064516,48.7741935 L51.483871,48.7741935 Z M51.483871,43.3548387 L51.483871,46.0645161 L29.8064516,46.0645161 L29.8064516,43.3548387 L51.483871,43.3548387 Z M54.1935484,37.9354839 L54.1935484,40.6451613 L5.41935484,40.6451613 L5.41935484,37.9354839 L54.1935484,37.9354839 Z M70.6427986,27.6213772 L69.7821321,30.4011782 L77.6988093,33.1472403 L78.601153,30.2126387 L70.6427986,27.6213772 Z M77.1867754,16.2580645 C75.4457741,16.2580645 73.9225142,17.3314806 73.3309596,18.9519553 L73.2644909,19.1490045 L71.4432649,25.0321006 L79.39765,27.6227004 L81.1090601,22.0637601 C81.2053806,21.7504536 81.2635963,21.4274092 81.2830297,21.1014012 L81.2903226,20.8564454 L81.2903226,20.3616117 C81.2903226,18.0991369 79.4492502,16.2580645 77.1867754,16.2580645 Z M28.4516129,12.1935484 L28.4516129,14.9032258 L8.12903226,14.9032258 L8.12903226,12.1935484 L28.4516129,12.1935484 Z M33.8709677,12.1935484 L33.8709677,14.9032258 L31.1612903,14.9032258 L31.1612903,12.1935484 L33.8709677,12.1935484 Z M46.0645161,4.62550403 L46.0645161,13.5483871 L54.9873992,13.5483871 L46.0645161,4.62550403 Z M28.4516129,6.77419355 L28.4516129,9.48387097 L8.12903226,9.48387097 L8.12903226,6.77419355 L28.4516129,6.77419355 Z M33.8709677,6.77419355 L33.8709677,9.48387097 L31.1612903,9.48387097 L31.1612903,6.77419355 L33.8709677,6.77419355 Z" id="Combined-Shape" fill="#3F89E8"></path>
                    </g>
                </g>
            </g>
        </g>
    </g>
</svg>