<?xml version="1.0" encoding="UTF-8"?>
<svg width="23px" height="18px" viewBox="0 0 23 18" version="1.1" xmlns="http://www.w3.org/2000/svg" xmlns:xlink="http://www.w3.org/1999/xlink">
    <!-- Generator: Sketch 58 (84663) - https://sketch.com -->
    <title>twitter</title>
    <desc>Created with Sketch.</desc>
    <g id="designs" stroke="none" stroke-width="1" fill="none" fill-rule="evenodd">
        <g id="01-EstateFunder-home-page" transform="translate(-753.000000, -6497.000000)" fill="#6B7C95" fill-rule="nonzero">
            <g id="Group-6" transform="translate(0.000000, 4795.000000)">
                <g id="footer" transform="translate(0.000000, 1356.000000)">
                    <g id="social-links" transform="translate(641.000000, 346.000000)">
                        <path d="M134.648997,2.13092347 C133.834312,2.49217735 132.95795,2.73651511 132.038887,2.84563683 C132.977266,2.28342276 133.697402,1.39384355 134.037306,0.332109574 C133.159249,0.852979384 132.186303,1.23083875 131.15168,1.43451003 C130.322762,0.551708557 129.14174,0 127.833973,0 C125.324852,0 123.289833,2.03501836 123.289833,4.54414007 C123.289833,4.90031065 123.330161,5.24699238 123.408105,5.57977972 C119.631545,5.39034171 116.282999,3.5813612 114.041598,0.831290596 C113.650522,1.50228749 113.426179,2.28342276 113.426179,3.11606891 C113.426179,4.69223383 114.229003,6.08370517 115.447642,6.89839029 C114.703106,6.87500706 114.001949,6.67065801 113.389579,6.32939848 C113.38924,6.34871505 113.38924,6.36803163 113.38924,6.38700932 C113.38924,8.58876024 114.956255,10.4251906 117.034651,10.8423609 C116.653742,10.9467382 116.251483,11.0019768 115.837701,11.0019768 C115.544225,11.0019768 115.259898,10.9738492 114.982689,10.9209828 C115.56083,12.7258966 117.238661,14.0397628 119.227591,14.0767015 C117.672098,15.2956792 115.712991,16.0219147 113.583423,16.0219147 C113.217424,16.0219147 112.854815,16.0005648 112.5,15.9582039 C114.509941,17.248009 116.899096,18 119.465151,18 C127.823468,18 132.39438,11.0758543 132.39438,5.07043208 C132.39438,4.87353855 132.389975,4.67732279 132.381164,4.48280147 C133.269726,3.84230443 134.040017,3.04219147 134.648997,2.13092347 L134.648997,2.13092347 Z" id="twitter"></path>
                    </g>
                </g>
            </g>
        </g>
    </g>
</svg>