<svg xmlns="http://www.w3.org/2000/svg" width="174" height="174" viewBox="0 0 174 174"><g><g><g><g><g><path fill="#fff" d="M36.48 126.29h11.226v11.226H36.48z"/></g><g><path fill="#fff" d="M58.94 115.06h11.226v22.452H58.94z"/></g><g><path fill="#fff" d="M81.39 109.45h11.226v28.065H81.39z"/></g><g><path fill="#fff" d="M103.84 98.23h11.226v39.29H103.84z"/></g><g><path fill="#fff" d="M126.29 87h11.226v50.516H126.29z"/></g></g><g><path fill="#a1d1ff" d="M134.71 72.97h5.613v5.613h-5.613z"/></g><g><path fill="#a1d1ff" d="M134.71 61.74h5.613v5.613h-5.613z"/></g><g><path fill="#a1d1ff" d="M28.06 134.71h117.871v5.613H28.06z"/></g><g><path fill="#fff" d="M168.397 159.972c0 4.642-3.778 8.42-8.42 8.42H14.033c-4.642 0-8.42-3.778-8.42-8.42v-8.419h56.132v2.806c0 4.642 3.779 8.42 8.42 8.42h33.68c4.641 0 8.42-3.778 8.42-8.42v-2.806h56.132zm-101.042-8.419h39.3v2.811a2.811 2.811 0 0 1-2.807 2.812H70.162a2.811 2.811 0 0 1-2.807-2.812zm72.968-101.032v-5.613h14.032c4.641 0 8.42 3.778 8.42 8.42v92.612h-5.614V56.134a5.618 5.618 0 0 0-5.613-5.613zm28.064 95.42V53.326c0-7.737-6.295-14.032-14.032-14.032h-14.032v-5.613h8.646L131.903 12.35l-17.066 21.332h8.647v5.613h-16.965v5.613h16.965v5.613h-22.452v5.613h22.452v22.451h5.613V28.07h-2.58l5.386-6.732 5.386 6.732h-2.58v28.065h16.84v89.806H22.451V56.134h22.451V50.52H22.452a5.618 5.618 0 0 0-5.613 5.613v89.806h-5.613V53.327c0-4.641 3.778-8.42 8.42-8.42h19.77v-5.612h-19.77c-7.738 0-14.033 6.295-14.033 14.032v92.613H0v14.032c0 7.737 6.295 14.033 14.032 14.033h145.936c7.737 0 14.032-6.296 14.032-14.033V145.94z"/></g><g><path fill="#a1d1ff" d="M72.964 72.968c-20.117 0-36.484-16.368-36.484-36.484C36.48 16.367 52.847 0 72.964 0c20.116 0 36.484 16.367 36.484 36.484 0 20.116-16.368 36.484-36.484 36.484z"/></g><g><path fill="#fff" d="M72.968 61.743c-13.928 0-25.258-11.33-25.258-25.258 0-5.647 1.838-10.995 5.321-15.475l4.434 3.444c-2.711 3.486-4.142 7.648-4.142 12.031 0 10.83 8.815 19.645 19.645 19.645 4.384 0 8.545-1.43 12.032-4.142l3.443 4.434c-4.48 3.484-9.828 5.321-15.475 5.321z"/></g><g><path fill="#fff" d="M72.97 28.07a2.808 2.808 0 0 1 2.806 2.806h5.613c0-3.654-2.355-6.74-5.613-7.903V19.65h-5.613v3.323c-3.259 1.162-5.613 4.25-5.613 7.903 0 4.641 3.778 8.42 8.42 8.42a2.808 2.808 0 0 1 2.806 2.806 2.808 2.808 0 0 1-2.807 2.806 2.808 2.808 0 0 1-2.806-2.806H64.55c0 3.653 2.354 6.74 5.613 7.902v3.323h5.613v-3.323c3.258-1.162 5.613-4.25 5.613-7.902 0-4.642-3.778-8.42-8.42-8.42a2.808 2.808 0 0 1-2.806-2.806 2.808 2.808 0 0 1 2.806-2.807z"/></g><g><path fill="#fff" d="M72.965 11.23c-5.647 0-10.995 1.838-15.475 5.321l3.444 4.434c3.486-2.711 7.648-4.142 12.031-4.142 10.83 0 19.645 8.815 19.645 19.645 0 4.384-1.43 8.545-4.142 12.032l4.434 3.443c3.484-4.48 5.321-9.828 5.321-15.475 0-13.928-11.33-25.258-25.258-25.258z"/></g></g></g></g></svg>